%TF.GenerationSoftware,KiCad,Pcbnew,8.0.0-rc2-179-gceb8beb8c4*%
%TF.CreationDate,2024-02-16T13:12:57+01:00*%
%TF.ProjectId,CAT_MEP,4341545f-4d45-4502-9e6b-696361645f70,rev?*%
%TF.SameCoordinates,Original*%
%TF.FileFunction,Paste,Top*%
%TF.FilePolarity,Positive*%
%FSLAX46Y46*%
G04 Gerber Fmt 4.6, Leading zero omitted, Abs format (unit mm)*
G04 Created by KiCad (PCBNEW 8.0.0-rc2-179-gceb8beb8c4) date 2024-02-16 13:12:57*
%MOMM*%
%LPD*%
G01*
G04 APERTURE LIST*
G04 Aperture macros list*
%AMRoundRect*
0 Rectangle with rounded corners*
0 $1 Rounding radius*
0 $2 $3 $4 $5 $6 $7 $8 $9 X,Y pos of 4 corners*
0 Add a 4 corners polygon primitive as box body*
4,1,4,$2,$3,$4,$5,$6,$7,$8,$9,$2,$3,0*
0 Add four circle primitives for the rounded corners*
1,1,$1+$1,$2,$3*
1,1,$1+$1,$4,$5*
1,1,$1+$1,$6,$7*
1,1,$1+$1,$8,$9*
0 Add four rect primitives between the rounded corners*
20,1,$1+$1,$2,$3,$4,$5,0*
20,1,$1+$1,$4,$5,$6,$7,0*
20,1,$1+$1,$6,$7,$8,$9,0*
20,1,$1+$1,$8,$9,$2,$3,0*%
G04 Aperture macros list end*
%ADD10R,1.100000X0.600000*%
%ADD11R,1.100000X0.300000*%
%ADD12RoundRect,0.125000X0.175000X-0.125000X0.175000X0.125000X-0.175000X0.125000X-0.175000X-0.125000X0*%
%ADD13RoundRect,0.125000X0.125000X0.175000X-0.125000X0.175000X-0.125000X-0.175000X0.125000X-0.175000X0*%
%ADD14RoundRect,0.075000X0.175000X0.075000X-0.175000X0.075000X-0.175000X-0.075000X0.175000X-0.075000X0*%
%ADD15RoundRect,0.125000X-0.175000X0.125000X-0.175000X-0.125000X0.175000X-0.125000X0.175000X0.125000X0*%
%ADD16RoundRect,0.125000X-0.125000X-0.175000X0.125000X-0.175000X0.125000X0.175000X-0.125000X0.175000X0*%
%ADD17RoundRect,0.250000X-0.250000X-0.450000X0.250000X-0.450000X0.250000X0.450000X-0.250000X0.450000X0*%
%ADD18R,1.900000X0.400000*%
%ADD19RoundRect,0.300000X-1.100000X0.300000X-1.100000X-0.300000X1.100000X-0.300000X1.100000X0.300000X0*%
%ADD20RoundRect,0.200000X-0.250000X-0.200000X0.250000X-0.200000X0.250000X0.200000X-0.250000X0.200000X0*%
%ADD21RoundRect,0.062500X-0.237500X-0.062500X0.237500X-0.062500X0.237500X0.062500X-0.237500X0.062500X0*%
%ADD22RoundRect,0.062500X-0.062500X-0.237500X0.062500X-0.237500X0.062500X0.237500X-0.062500X0.237500X0*%
%ADD23R,0.900000X0.300000*%
%ADD24R,0.250000X1.650000*%
%ADD25RoundRect,0.249999X-0.395001X0.395001X-0.395001X-0.395001X0.395001X-0.395001X0.395001X0.395001X0*%
%ADD26RoundRect,0.050000X-0.050000X0.387500X-0.050000X-0.387500X0.050000X-0.387500X0.050000X0.387500X0*%
%ADD27RoundRect,0.050000X-0.387500X0.050000X-0.387500X-0.050000X0.387500X-0.050000X0.387500X0.050000X0*%
%ADD28R,1.000000X0.700000*%
G04 APERTURE END LIST*
D10*
%TO.C,J1*%
X107000000Y-48600000D03*
X107000000Y-55000000D03*
X107000000Y-49400000D03*
X107000000Y-54200000D03*
D11*
X107000000Y-50550000D03*
X107000000Y-51550000D03*
X107000000Y-52050000D03*
X107000000Y-53050000D03*
X107000000Y-53550000D03*
X107000000Y-52550000D03*
X107000000Y-51050000D03*
X107000000Y-50050000D03*
%TD*%
D12*
%TO.C,R4*%
X109000000Y-49500000D03*
X109000000Y-48500000D03*
%TD*%
D13*
%TO.C,C14*%
X125475000Y-53425000D03*
X124475000Y-53425000D03*
%TD*%
%TO.C,C9*%
X125410000Y-52520000D03*
X124410000Y-52520000D03*
%TD*%
D12*
%TO.C,R8*%
X124525000Y-49675000D03*
X124525000Y-48675000D03*
%TD*%
D14*
%TO.C,U4*%
X123575000Y-48525000D03*
X123575000Y-47725000D03*
X122175000Y-47725000D03*
X122175000Y-48525000D03*
%TD*%
D15*
%TO.C,C17*%
X121175000Y-47725000D03*
X121175000Y-48725000D03*
%TD*%
D16*
%TO.C,C12*%
X134930000Y-54350000D03*
X135930000Y-54350000D03*
%TD*%
D17*
%TO.C,C1*%
X115700000Y-49550000D03*
X117700000Y-49550000D03*
%TD*%
D16*
%TO.C,R1*%
X109000000Y-50500000D03*
X110000000Y-50500000D03*
%TD*%
D18*
%TO.C,Y1*%
X122650000Y-50570000D03*
X122650000Y-51770000D03*
X122650000Y-52970000D03*
%TD*%
D16*
%TO.C,C8*%
X134930000Y-55300000D03*
X135930000Y-55300000D03*
%TD*%
D19*
%TO.C,L1*%
X113350000Y-50600000D03*
X113350000Y-53100000D03*
%TD*%
D17*
%TO.C,C2*%
X115650000Y-54600000D03*
X117650000Y-54600000D03*
%TD*%
D15*
%TO.C,C7*%
X129351965Y-56962442D03*
X129351965Y-57962442D03*
%TD*%
%TO.C,R5*%
X113400000Y-55720000D03*
X113400000Y-56720000D03*
%TD*%
D20*
%TO.C,D1*%
X113100000Y-47050000D03*
X113100000Y-48950000D03*
X115100000Y-48000000D03*
%TD*%
D21*
%TO.C,U1*%
X115500000Y-51350000D03*
X115500000Y-51850000D03*
X115500000Y-52350000D03*
X115500000Y-52850000D03*
D22*
X116400000Y-53250000D03*
X116900000Y-53250000D03*
D21*
X117800000Y-52850000D03*
X117800000Y-52350000D03*
X117800000Y-51850000D03*
X117800000Y-51350000D03*
D22*
X116900000Y-50950000D03*
X116400000Y-50950000D03*
%TD*%
D12*
%TO.C,R6*%
X134925000Y-49475000D03*
X134925000Y-48475000D03*
%TD*%
D23*
%TO.C,U3*%
X136075000Y-49675000D03*
X136075000Y-50175000D03*
X136075000Y-50675000D03*
X136075000Y-51175000D03*
X138875000Y-51175000D03*
X138875000Y-50675000D03*
X138875000Y-50175000D03*
X138875000Y-49675000D03*
D24*
X137475000Y-50425000D03*
%TD*%
D15*
%TO.C,R3*%
X109000000Y-54500000D03*
X109000000Y-55500000D03*
%TD*%
%TO.C,R7*%
X124525000Y-46725000D03*
X124525000Y-47725000D03*
%TD*%
D16*
%TO.C,C11*%
X134930000Y-56250000D03*
X135930000Y-56250000D03*
%TD*%
%TO.C,R2*%
X109000000Y-53000000D03*
X110000000Y-53000000D03*
%TD*%
D15*
%TO.C,C4*%
X118850000Y-53050000D03*
X118850000Y-54050000D03*
%TD*%
D25*
%TO.C,U2*%
X131137500Y-51587500D03*
X129537500Y-51587500D03*
X131137500Y-53187500D03*
X129537500Y-53187500D03*
D26*
X132937500Y-48950000D03*
X132537500Y-48950000D03*
X132137500Y-48950000D03*
X131737500Y-48950000D03*
X131337500Y-48950000D03*
X130937500Y-48950000D03*
X130537500Y-48950000D03*
X130137500Y-48950000D03*
X129737500Y-48950000D03*
X129337500Y-48950000D03*
X128937500Y-48950000D03*
X128537500Y-48950000D03*
X128137500Y-48950000D03*
X127737500Y-48950000D03*
D27*
X126900000Y-49787500D03*
X126900000Y-50187500D03*
X126900000Y-50587500D03*
X126900000Y-50987500D03*
X126900000Y-51387500D03*
X126900000Y-51787500D03*
X126900000Y-52187500D03*
X126900000Y-52587500D03*
X126900000Y-52987500D03*
X126900000Y-53387500D03*
X126900000Y-53787500D03*
X126900000Y-54187500D03*
X126900000Y-54587500D03*
X126900000Y-54987500D03*
D26*
X127737500Y-55825000D03*
X128137500Y-55825000D03*
X128537500Y-55825000D03*
X128937500Y-55825000D03*
X129337500Y-55825000D03*
X129737500Y-55825000D03*
X130137500Y-55825000D03*
X130537500Y-55825000D03*
X130937500Y-55825000D03*
X131337500Y-55825000D03*
X131737500Y-55825000D03*
X132137500Y-55825000D03*
X132537500Y-55825000D03*
X132937500Y-55825000D03*
D27*
X133775000Y-54987500D03*
X133775000Y-54587500D03*
X133775000Y-54187500D03*
X133775000Y-53787500D03*
X133775000Y-53387500D03*
X133775000Y-52987500D03*
X133775000Y-52587500D03*
X133775000Y-52187500D03*
X133775000Y-51787500D03*
X133775000Y-51387500D03*
X133775000Y-50987500D03*
X133775000Y-50587500D03*
X133775000Y-50187500D03*
X133775000Y-49787500D03*
%TD*%
D17*
%TO.C,C3*%
X115650000Y-56400000D03*
X117650000Y-56400000D03*
%TD*%
D16*
%TO.C,C10*%
X134975000Y-53175000D03*
X135975000Y-53175000D03*
%TD*%
D28*
%TO.C,SW1*%
X136125000Y-46325000D03*
X140625000Y-46325000D03*
X136125000Y-48475000D03*
X140625000Y-48475000D03*
%TD*%
D16*
%TO.C,C16*%
X140075000Y-49525000D03*
X141075000Y-49525000D03*
%TD*%
%TO.C,C13*%
X134975000Y-52225000D03*
X135975000Y-52225000D03*
%TD*%
D12*
%TO.C,C5*%
X129250000Y-47700000D03*
X129250000Y-46700000D03*
%TD*%
D16*
%TO.C,C6*%
X133025000Y-47775000D03*
X134025000Y-47775000D03*
%TD*%
D12*
%TO.C,C15*%
X112450000Y-56720000D03*
X112450000Y-55720000D03*
%TD*%
M02*
