%TF.GenerationSoftware,KiCad,Pcbnew,8.0.0-rc2-179-gceb8beb8c4*%
%TF.CreationDate,2024-02-16T13:12:57+01:00*%
%TF.ProjectId,CAT_MEP,4341545f-4d45-4502-9e6b-696361645f70,rev?*%
%TF.SameCoordinates,Original*%
%TF.FileFunction,Copper,L2,Bot*%
%TF.FilePolarity,Positive*%
%FSLAX46Y46*%
G04 Gerber Fmt 4.6, Leading zero omitted, Abs format (unit mm)*
G04 Created by KiCad (PCBNEW 8.0.0-rc2-179-gceb8beb8c4) date 2024-02-16 13:12:57*
%MOMM*%
%LPD*%
G01*
G04 APERTURE LIST*
%TA.AperFunction,ComponentPad*%
%ADD10O,2.000000X1.050000*%
%TD*%
%TA.AperFunction,ComponentPad*%
%ADD11O,2.200000X1.150000*%
%TD*%
%TA.AperFunction,ComponentPad*%
%ADD12R,1.700000X1.700000*%
%TD*%
%TA.AperFunction,ComponentPad*%
%ADD13O,1.700000X1.700000*%
%TD*%
%TA.AperFunction,ViaPad*%
%ADD14C,0.600000*%
%TD*%
%TA.AperFunction,ViaPad*%
%ADD15C,0.300000*%
%TD*%
%TA.AperFunction,Conductor*%
%ADD16C,0.150000*%
%TD*%
G04 APERTURE END LIST*
D10*
%TO.P,J1,S1,SHIELD*%
%TO.N,unconnected-(J1-SHIELD-PadS1)_0*%
X105850000Y-46180000D03*
D11*
X101850000Y-46180000D03*
D10*
X105850000Y-57420000D03*
D11*
X101850000Y-57420000D03*
%TD*%
D12*
%TO.P,J2,1*%
%TO.N,+5V*%
X149260000Y-43850000D03*
D13*
%TO.P,J2,2*%
X146720000Y-43850000D03*
%TO.P,J2,3*%
%TO.N,/A0*%
X144180000Y-43850000D03*
%TO.P,J2,4*%
%TO.N,/A1*%
X141640000Y-43850000D03*
%TO.P,J2,5*%
%TO.N,/A2*%
X139100000Y-43850000D03*
%TO.P,J2,6*%
%TO.N,/A3*%
X136560000Y-43850000D03*
%TO.P,J2,7*%
%TO.N,/A4*%
X134020000Y-43850000D03*
%TO.P,J2,8*%
%TO.N,/A5*%
X131480000Y-43850000D03*
%TO.P,J2,9*%
%TO.N,/A6*%
X128940000Y-43850000D03*
%TO.P,J2,10*%
%TO.N,/A7*%
X126400000Y-43850000D03*
%TO.P,J2,11*%
%TO.N,/A8*%
X123860000Y-43850000D03*
%TO.P,J2,12*%
%TO.N,/A9*%
X121320000Y-43850000D03*
%TO.P,J2,13*%
%TO.N,/A10*%
X118780000Y-43850000D03*
%TO.P,J2,14*%
%TO.N,/A11*%
X116240000Y-43850000D03*
%TO.P,J2,15*%
%TO.N,/A12*%
X113700000Y-43850000D03*
%TO.P,J2,16*%
%TO.N,/A13*%
X111160000Y-43850000D03*
%TO.P,J2,17*%
%TO.N,/A14*%
X108620000Y-43850000D03*
%TO.P,J2,18*%
%TO.N,/A15*%
X106080000Y-43850000D03*
%TO.P,J2,19*%
%TO.N,GND*%
X103540000Y-43850000D03*
%TO.P,J2,20*%
X101000000Y-43850000D03*
%TD*%
D12*
%TO.P,J3,1*%
%TO.N,+3V3*%
X101000000Y-59950000D03*
D13*
%TO.P,J3,2*%
X103540000Y-59950000D03*
%TO.P,J3,3*%
X106080000Y-59950000D03*
%TO.P,J3,4*%
%TO.N,/B0*%
X108620000Y-59950000D03*
%TO.P,J3,5*%
%TO.N,/B1*%
X111160000Y-59950000D03*
%TO.P,J3,6*%
%TO.N,/B2*%
X113700000Y-59950000D03*
%TO.P,J3,7*%
%TO.N,/B3*%
X116240000Y-59950000D03*
%TO.P,J3,8*%
%TO.N,/B4*%
X118780000Y-59950000D03*
%TO.P,J3,9*%
%TO.N,/B5*%
X121320000Y-59950000D03*
%TO.P,J3,10*%
%TO.N,/B6*%
X123860000Y-59950000D03*
%TO.P,J3,11*%
%TO.N,/B7*%
X126400000Y-59950000D03*
%TO.P,J3,12*%
%TO.N,/B8*%
X128940000Y-59950000D03*
%TO.P,J3,13*%
%TO.N,/B9*%
X131480000Y-59950000D03*
%TO.P,J3,14*%
%TO.N,/B10*%
X134020000Y-59950000D03*
%TO.P,J3,15*%
%TO.N,/B11*%
X136560000Y-59950000D03*
%TO.P,J3,16*%
%TO.N,/B12*%
X139100000Y-59950000D03*
%TO.P,J3,17*%
%TO.N,/B13*%
X141640000Y-59950000D03*
%TO.P,J3,18*%
%TO.N,GND*%
X144180000Y-59950000D03*
%TO.P,J3,19*%
X146720000Y-59950000D03*
%TO.P,J3,20*%
X149260000Y-59950000D03*
%TD*%
D14*
%TO.N,GND*%
X144000000Y-48000000D03*
D15*
X112230000Y-47320000D03*
X140730000Y-57720000D03*
X122630000Y-59520000D03*
D14*
X131600000Y-51150000D03*
X142000000Y-54000000D03*
X116271064Y-52075713D03*
D15*
X137830000Y-43420000D03*
X100130000Y-58520000D03*
X131030000Y-57620000D03*
X110930000Y-46820000D03*
X142230000Y-45120000D03*
X120430000Y-54220000D03*
D14*
X146000000Y-46000000D03*
D15*
X110930000Y-45520000D03*
D14*
X150000000Y-54000000D03*
X148000000Y-56000000D03*
D15*
X125130000Y-44320000D03*
X137830000Y-60820000D03*
X138630000Y-45120000D03*
D14*
X107450000Y-47350000D03*
D15*
X120130000Y-59420000D03*
X112430000Y-43920000D03*
X135230000Y-60820000D03*
X111930000Y-57520000D03*
D14*
X150000000Y-50000000D03*
D15*
X117230000Y-44820000D03*
X104730000Y-60920000D03*
D14*
X129100000Y-53600000D03*
D15*
X141030000Y-45120000D03*
X119730000Y-53320000D03*
X145730000Y-42820000D03*
D14*
X146000000Y-52000000D03*
D15*
X134730000Y-46120000D03*
D14*
X117677700Y-53475000D03*
X146000000Y-58000000D03*
D15*
X131030000Y-45120000D03*
D14*
X150000000Y-46000000D03*
X148000000Y-46000000D03*
D15*
X100130000Y-45820000D03*
X117530000Y-43320000D03*
X133330000Y-45420000D03*
X119030000Y-47120000D03*
D14*
X148000000Y-48000000D03*
D15*
X127730000Y-44320000D03*
X117830000Y-44820000D03*
D14*
X125110000Y-51020000D03*
D15*
X112130000Y-45520000D03*
D14*
X148000000Y-58000000D03*
D15*
X107730000Y-57120000D03*
X121630000Y-53920000D03*
X140230000Y-58720000D03*
X137830000Y-44320000D03*
X139730000Y-57720000D03*
D14*
X107500000Y-56200000D03*
D15*
X121330000Y-46820000D03*
D14*
X118950000Y-56000000D03*
D15*
X134730000Y-58220000D03*
X102330000Y-60820000D03*
X132730000Y-60820000D03*
D14*
X131200000Y-54850000D03*
D15*
X106130000Y-58620000D03*
D14*
X123000000Y-57550000D03*
X150000000Y-56000000D03*
D15*
X107430000Y-44520000D03*
X147830000Y-43020000D03*
X109130000Y-45120000D03*
X112430000Y-60820000D03*
X132030000Y-45120000D03*
X122630000Y-60520000D03*
X135730000Y-58220000D03*
X109830000Y-42920000D03*
X133230000Y-58720000D03*
X103830000Y-57220000D03*
X109130000Y-46220000D03*
X118630000Y-50720000D03*
X140430000Y-60820000D03*
D14*
X131600000Y-53650000D03*
D15*
X109530000Y-46720000D03*
D14*
X144000000Y-50000000D03*
D15*
X120030000Y-44220000D03*
X142730000Y-60820000D03*
D14*
X103730000Y-58220000D03*
D15*
X132230000Y-58220000D03*
X135230000Y-58720000D03*
X112530000Y-46320000D03*
X127730000Y-43320000D03*
D14*
X137414614Y-49826000D03*
D15*
X135330000Y-43420000D03*
X102230000Y-45020000D03*
D14*
X128400000Y-57900000D03*
D15*
X127730000Y-60720000D03*
X109830000Y-60820000D03*
D14*
X144000000Y-54000000D03*
X146000000Y-56000000D03*
D15*
X122630000Y-43320000D03*
X120030000Y-43320000D03*
X107230000Y-60820000D03*
X130730000Y-45920000D03*
X118930000Y-47620000D03*
D14*
X148000000Y-50000000D03*
X128300000Y-45650000D03*
D15*
X114130000Y-45220000D03*
X132630000Y-44420000D03*
D14*
X142000000Y-56000000D03*
X150000000Y-58000000D03*
D15*
X107330000Y-42920000D03*
D14*
X139250000Y-46200000D03*
D15*
X119730000Y-47420000D03*
X110530000Y-58720000D03*
D14*
X110730000Y-57220000D03*
D15*
X142730000Y-59220000D03*
X115330000Y-44720000D03*
D14*
X138000000Y-56000000D03*
D15*
X120130000Y-60820000D03*
X132730000Y-43420000D03*
X109830000Y-49720000D03*
X112430000Y-44420000D03*
D14*
X150000000Y-52000000D03*
X124325002Y-52835000D03*
X146000000Y-54000000D03*
D15*
X130130000Y-60820000D03*
X103930000Y-46120000D03*
X130230000Y-44220000D03*
D14*
X148000000Y-54000000D03*
X142000000Y-52000000D03*
D15*
X138230000Y-57720000D03*
X131030000Y-58620000D03*
X111330000Y-49020000D03*
X111430000Y-52020000D03*
X143630000Y-45720000D03*
X120830000Y-45120000D03*
D14*
X150000000Y-48000000D03*
D15*
X137730000Y-58720000D03*
X114230000Y-57620000D03*
D14*
X117450000Y-60750000D03*
D15*
X114630000Y-42920000D03*
D14*
X144000000Y-52000000D03*
D15*
X104930000Y-45020000D03*
D14*
X129100000Y-51150000D03*
D15*
X133630000Y-56220000D03*
X137230000Y-57720000D03*
X128830000Y-54820000D03*
D14*
X114400000Y-49100000D03*
D15*
X112430000Y-42920000D03*
X125130000Y-43320000D03*
D14*
X137500000Y-46150000D03*
X144000000Y-58000000D03*
D15*
X105030000Y-42920000D03*
D14*
X116550000Y-48050000D03*
X109730000Y-57220000D03*
D15*
X122630000Y-44220000D03*
D14*
X138000000Y-54000000D03*
X108730000Y-58220000D03*
D15*
X120430000Y-52020000D03*
X142930000Y-43220000D03*
D14*
X140000000Y-56000000D03*
X110730000Y-56220000D03*
X120350000Y-48750000D03*
D15*
X121730000Y-45120000D03*
D14*
X144000000Y-56000000D03*
X134850000Y-47700000D03*
X142000000Y-50000000D03*
X146000000Y-48000000D03*
D15*
X112530000Y-59120000D03*
X108030000Y-45820000D03*
X130230000Y-59620000D03*
X106530000Y-45220000D03*
D14*
X140000000Y-54000000D03*
D15*
X141930000Y-47020000D03*
X100130000Y-57220000D03*
X110430000Y-48520000D03*
D14*
X148000000Y-52000000D03*
X146000000Y-50000000D03*
X119750000Y-50650000D03*
D15*
X118330000Y-46920000D03*
X130230000Y-43420000D03*
X125530000Y-56520000D03*
X140330000Y-43220000D03*
D14*
%TO.N,+3V3*%
X128055913Y-50105913D03*
X127137500Y-48771385D03*
X134194828Y-48890972D03*
X117001081Y-51748482D03*
X137021995Y-49128968D03*
X119504074Y-48145926D03*
%TO.N,Net-(U2-VREG_VOUT)*%
X132838654Y-54218172D03*
X127848873Y-52987500D03*
X132437502Y-52075000D03*
%TO.N,/RESET*%
X124289850Y-56208979D03*
X123032150Y-56208979D03*
%TO.N,VBUS*%
X110850000Y-49925000D03*
X108191428Y-55005921D03*
X110700000Y-51206776D03*
X111354074Y-52945926D03*
%TO.N,/SWD_CLK*%
X109764144Y-51290195D03*
X122969465Y-54825002D03*
X127837500Y-54143602D03*
X119635119Y-54308857D03*
X108159615Y-49512363D03*
X114650000Y-54279233D03*
%TO.N,Net-(J1-D+-PadA6)*%
X108336091Y-51386091D03*
X109410000Y-52030000D03*
%TO.N,/SWD_DIO*%
X110050000Y-53800000D03*
X108471931Y-53658716D03*
X114420000Y-55460000D03*
X119587502Y-55107442D03*
%TO.N,/A12*%
X115550000Y-45400000D03*
X123325000Y-49100000D03*
X120448356Y-47302761D03*
%TO.N,/A13*%
X125450000Y-48975000D03*
X114650000Y-46400000D03*
X125450000Y-47750000D03*
X123100000Y-47225000D03*
X119650000Y-46700000D03*
%TO.N,/A15*%
X124130000Y-50500000D03*
X121170000Y-50600000D03*
%TO.N,/A14*%
X125323046Y-49856477D03*
X122250000Y-49650000D03*
%TO.N,/B6*%
X129912119Y-54915317D03*
%TO.N,/B2*%
X126981000Y-56650000D03*
%TO.N,/B3*%
X128131517Y-55007554D03*
%TO.N,/DM*%
X132437502Y-51274997D03*
X119354676Y-51920000D03*
X128237498Y-51793199D03*
X136581447Y-53751350D03*
X121200000Y-52700000D03*
X114420956Y-51775000D03*
%TO.N,/DP*%
X132850161Y-53393333D03*
X113830000Y-54565000D03*
X118607105Y-52300000D03*
X123290000Y-53675002D03*
%TO.N,Net-(U2-SPI_SD0)*%
X135050000Y-51070000D03*
X139875000Y-51175000D03*
%TO.N,Net-(U2-SPI_SD3)*%
X132847042Y-50339648D03*
X139860273Y-50318971D03*
%TD*%
D16*
%TO.N,+3V3*%
X136783999Y-48890972D02*
X137021995Y-49128968D01*
X127137500Y-48771385D02*
X127221385Y-48771385D01*
X117001081Y-51748482D02*
X117001081Y-50648919D01*
X117001081Y-50648919D02*
X119504074Y-48145926D01*
X134194828Y-48890972D02*
X136783999Y-48890972D01*
X128055913Y-49605913D02*
X128055913Y-50105913D01*
X127221385Y-48771385D02*
X128055913Y-49605913D01*
%TO.N,Net-(U2-VREG_VOUT)*%
X127848873Y-52987500D02*
X128468174Y-52368199D01*
X128468174Y-52368199D02*
X131431801Y-52368199D01*
X132838654Y-54218172D02*
X133510000Y-53546826D01*
X131431801Y-52368199D02*
X131725000Y-52075000D01*
X133510000Y-53546826D02*
X133510000Y-53154974D01*
X133510000Y-53154974D02*
X132437502Y-52082476D01*
X131725000Y-52075000D02*
X132437502Y-52075000D01*
X132437502Y-52082476D02*
X132437502Y-52075000D01*
%TO.N,/RESET*%
X124289850Y-56208979D02*
X123032150Y-56208979D01*
%TO.N,VBUS*%
X111354074Y-53309099D02*
X111354074Y-52945926D01*
X110700000Y-50075000D02*
X110850000Y-49925000D01*
X110700000Y-51206776D02*
X110700000Y-50075000D01*
X109657252Y-55005921D02*
X111354074Y-53309099D01*
X108191428Y-55005921D02*
X109657252Y-55005921D01*
%TO.N,/SWD_CLK*%
X109764144Y-51290195D02*
X109764144Y-51116892D01*
X127837500Y-54143602D02*
X127831398Y-54137500D01*
X119635119Y-54308857D02*
X119605495Y-54279233D01*
X119605495Y-54279233D02*
X114650000Y-54279233D01*
X122974998Y-54825002D02*
X122969465Y-54825002D01*
X109764144Y-51116892D02*
X108159615Y-49512363D01*
X120151264Y-54825002D02*
X122969465Y-54825002D01*
X119635119Y-54308857D02*
X120151264Y-54825002D01*
X123662500Y-54137500D02*
X122974998Y-54825002D01*
X127831398Y-54137500D02*
X123662500Y-54137500D01*
%TO.N,Net-(J1-D+-PadA6)*%
X108980000Y-52030000D02*
X108336091Y-51386091D01*
X109410000Y-52030000D02*
X108980000Y-52030000D01*
%TO.N,/SWD_DIO*%
X114772558Y-55107442D02*
X119587502Y-55107442D01*
X109950000Y-53700000D02*
X108513215Y-53700000D01*
X114420000Y-55460000D02*
X114772558Y-55107442D01*
X108513215Y-53700000D02*
X108471931Y-53658716D01*
X110050000Y-53800000D02*
X109950000Y-53700000D01*
%TO.N,/A12*%
X121527761Y-47302761D02*
X123325000Y-49100000D01*
X120448356Y-47302761D02*
X121527761Y-47302761D01*
X115250000Y-45400000D02*
X115550000Y-45400000D01*
X113700000Y-43850000D02*
X115250000Y-45400000D01*
%TO.N,/A13*%
X119650000Y-46700000D02*
X120030000Y-46320000D01*
X125450000Y-48975000D02*
X125450000Y-47750000D01*
X113710000Y-46400000D02*
X111160000Y-43850000D01*
X114650000Y-46400000D02*
X113710000Y-46400000D01*
X120030000Y-46320000D02*
X122195000Y-46320000D01*
X122195000Y-46320000D02*
X123100000Y-47225000D01*
%TO.N,/A15*%
X124130000Y-50500000D02*
X124030000Y-50600000D01*
X124030000Y-50600000D02*
X121170000Y-50600000D01*
%TO.N,/A14*%
X124400346Y-49856477D02*
X125323046Y-49856477D01*
X122500000Y-49900000D02*
X124356823Y-49900000D01*
X122250000Y-49650000D02*
X122500000Y-49900000D01*
X124356823Y-49900000D02*
X124400346Y-49856477D01*
%TO.N,/B6*%
X129912119Y-57337881D02*
X128425000Y-58825000D01*
X124985000Y-58825000D02*
X123860000Y-59950000D01*
X128425000Y-58825000D02*
X124985000Y-58825000D01*
X129912119Y-54915317D02*
X129912119Y-57337881D01*
%TO.N,/B2*%
X115525000Y-58125000D02*
X113700000Y-59950000D01*
X125506000Y-58125000D02*
X115525000Y-58125000D01*
X126981000Y-56650000D02*
X125506000Y-58125000D01*
%TO.N,/B3*%
X125975000Y-58475000D02*
X117715000Y-58475000D01*
X128131517Y-56318483D02*
X125975000Y-58475000D01*
X117715000Y-58475000D02*
X116240000Y-59950000D01*
X128131517Y-55007554D02*
X128131517Y-56318483D01*
%TO.N,/DM*%
X136581447Y-53751350D02*
X134971350Y-53751350D01*
X122054031Y-51845969D02*
X128184728Y-51845969D01*
X117894553Y-51950000D02*
X117094553Y-52750000D01*
X118143932Y-51950000D02*
X117894553Y-51950000D01*
X118368932Y-51725000D02*
X118143932Y-51950000D01*
X119159676Y-51725000D02*
X118368932Y-51725000D01*
X117094553Y-52750000D02*
X115395956Y-52750000D01*
X134971350Y-53751350D02*
X132494997Y-51274997D01*
X132494997Y-51274997D02*
X132437502Y-51274997D01*
X121200000Y-52700000D02*
X122054031Y-51845969D01*
X128184728Y-51845969D02*
X128237498Y-51793199D01*
X119354676Y-51920000D02*
X119159676Y-51725000D01*
X115395956Y-52750000D02*
X114420956Y-51775000D01*
%TO.N,/DP*%
X127434327Y-53410000D02*
X127586827Y-53562500D01*
X114860000Y-53250000D02*
X117089527Y-53250000D01*
X127586827Y-53562500D02*
X128237500Y-53562500D01*
X128237500Y-53562500D02*
X129000000Y-52800000D01*
X129000000Y-52800000D02*
X132256828Y-52800000D01*
X123290000Y-53675002D02*
X123555002Y-53410000D01*
X113830000Y-54280000D02*
X114860000Y-53250000D01*
X117089527Y-53250000D02*
X118039527Y-52300000D01*
X132256828Y-52800000D02*
X132850161Y-53393333D01*
X113830000Y-54565000D02*
X113830000Y-54280000D01*
X118039527Y-52300000D02*
X118607105Y-52300000D01*
X123555002Y-53410000D02*
X127434327Y-53410000D01*
%TO.N,Net-(U2-SPI_SD0)*%
X135050000Y-51070000D02*
X135155000Y-51175000D01*
X135155000Y-51175000D02*
X139875000Y-51175000D01*
%TO.N,Net-(U2-SPI_SD3)*%
X132847042Y-50339648D02*
X135132821Y-50339648D01*
X139529244Y-50650000D02*
X139860273Y-50318971D01*
X135132821Y-50339648D02*
X135443173Y-50650000D01*
X135443173Y-50650000D02*
X139529244Y-50650000D01*
%TD*%
%TA.AperFunction,Conductor*%
%TO.N,GND*%
G36*
X146254075Y-59757007D02*
G01*
X146220000Y-59884174D01*
X146220000Y-60015826D01*
X146254075Y-60142993D01*
X146286988Y-60200000D01*
X144613012Y-60200000D01*
X144645925Y-60142993D01*
X144680000Y-60015826D01*
X144680000Y-59884174D01*
X144645925Y-59757007D01*
X144613012Y-59700000D01*
X146286988Y-59700000D01*
X146254075Y-59757007D01*
G37*
%TD.AperFunction*%
%TA.AperFunction,Conductor*%
G36*
X148794075Y-59757007D02*
G01*
X148760000Y-59884174D01*
X148760000Y-60015826D01*
X148794075Y-60142993D01*
X148826988Y-60200000D01*
X147153012Y-60200000D01*
X147185925Y-60142993D01*
X147220000Y-60015826D01*
X147220000Y-59884174D01*
X147185925Y-59757007D01*
X147153012Y-59700000D01*
X148826988Y-59700000D01*
X148794075Y-59757007D01*
G37*
%TD.AperFunction*%
%TA.AperFunction,Conductor*%
G36*
X103074075Y-43657007D02*
G01*
X103040000Y-43784174D01*
X103040000Y-43915826D01*
X103074075Y-44042993D01*
X103106988Y-44100000D01*
X101433012Y-44100000D01*
X101465925Y-44042993D01*
X101500000Y-43915826D01*
X101500000Y-43784174D01*
X101465925Y-43657007D01*
X101433012Y-43600000D01*
X103106988Y-43600000D01*
X103074075Y-43657007D01*
G37*
%TD.AperFunction*%
%TA.AperFunction,Conductor*%
G36*
X150768326Y-42341674D02*
G01*
X150790000Y-42394000D01*
X150790000Y-61396000D01*
X150768326Y-61448326D01*
X150716000Y-61470000D01*
X99544635Y-61470000D01*
X99492309Y-61448326D01*
X99470635Y-61396000D01*
X99470638Y-61395367D01*
X99471620Y-61280634D01*
X99475563Y-60819746D01*
X99949500Y-60819746D01*
X99961133Y-60878232D01*
X99990608Y-60922343D01*
X100005448Y-60944552D01*
X100049560Y-60974027D01*
X100071767Y-60988866D01*
X100071768Y-60988866D01*
X100071769Y-60988867D01*
X100130252Y-61000500D01*
X100130254Y-61000500D01*
X101869746Y-61000500D01*
X101869748Y-61000500D01*
X101928231Y-60988867D01*
X101994552Y-60944552D01*
X102038867Y-60878231D01*
X102050500Y-60819748D01*
X102050500Y-59950000D01*
X102484417Y-59950000D01*
X102504700Y-60155935D01*
X102518067Y-60200000D01*
X102564768Y-60353954D01*
X102662315Y-60536450D01*
X102793590Y-60696410D01*
X102953550Y-60827685D01*
X103136046Y-60925232D01*
X103334066Y-60985300D01*
X103540000Y-61005583D01*
X103745934Y-60985300D01*
X103943954Y-60925232D01*
X104126450Y-60827685D01*
X104286410Y-60696410D01*
X104417685Y-60536450D01*
X104515232Y-60353954D01*
X104575300Y-60155934D01*
X104595583Y-59950000D01*
X105024417Y-59950000D01*
X105044700Y-60155935D01*
X105058067Y-60200000D01*
X105104768Y-60353954D01*
X105202315Y-60536450D01*
X105333590Y-60696410D01*
X105493550Y-60827685D01*
X105676046Y-60925232D01*
X105874066Y-60985300D01*
X106080000Y-61005583D01*
X106285934Y-60985300D01*
X106483954Y-60925232D01*
X106666450Y-60827685D01*
X106826410Y-60696410D01*
X106957685Y-60536450D01*
X107055232Y-60353954D01*
X107115300Y-60155934D01*
X107135583Y-59950000D01*
X107564417Y-59950000D01*
X107584700Y-60155935D01*
X107598067Y-60200000D01*
X107644768Y-60353954D01*
X107742315Y-60536450D01*
X107873590Y-60696410D01*
X108033550Y-60827685D01*
X108216046Y-60925232D01*
X108414066Y-60985300D01*
X108620000Y-61005583D01*
X108825934Y-60985300D01*
X109023954Y-60925232D01*
X109206450Y-60827685D01*
X109366410Y-60696410D01*
X109497685Y-60536450D01*
X109595232Y-60353954D01*
X109655300Y-60155934D01*
X109675583Y-59950000D01*
X110104417Y-59950000D01*
X110124700Y-60155935D01*
X110138067Y-60200000D01*
X110184768Y-60353954D01*
X110282315Y-60536450D01*
X110413590Y-60696410D01*
X110573550Y-60827685D01*
X110756046Y-60925232D01*
X110954066Y-60985300D01*
X111160000Y-61005583D01*
X111365934Y-60985300D01*
X111563954Y-60925232D01*
X111746450Y-60827685D01*
X111906410Y-60696410D01*
X112037685Y-60536450D01*
X112135232Y-60353954D01*
X112195300Y-60155934D01*
X112215583Y-59950000D01*
X112644417Y-59950000D01*
X112664700Y-60155935D01*
X112678067Y-60200000D01*
X112724768Y-60353954D01*
X112822315Y-60536450D01*
X112953590Y-60696410D01*
X113113550Y-60827685D01*
X113296046Y-60925232D01*
X113494066Y-60985300D01*
X113700000Y-61005583D01*
X113905934Y-60985300D01*
X114103954Y-60925232D01*
X114286450Y-60827685D01*
X114446410Y-60696410D01*
X114577685Y-60536450D01*
X114675232Y-60353954D01*
X114735300Y-60155934D01*
X114755583Y-59950000D01*
X114735300Y-59744066D01*
X114675232Y-59546046D01*
X114637823Y-59476061D01*
X114632272Y-59419699D01*
X114650758Y-59388855D01*
X115617442Y-58422174D01*
X115669768Y-58400500D01*
X117221233Y-58400500D01*
X117273559Y-58422174D01*
X117295233Y-58474500D01*
X117273559Y-58526826D01*
X116801145Y-58999238D01*
X116748819Y-59020912D01*
X116713936Y-59012174D01*
X116643958Y-58974769D01*
X116445935Y-58914700D01*
X116240000Y-58894417D01*
X116034064Y-58914700D01*
X115836043Y-58974769D01*
X115653549Y-59072315D01*
X115493590Y-59203589D01*
X115493589Y-59203590D01*
X115362315Y-59363549D01*
X115264769Y-59546043D01*
X115204700Y-59744064D01*
X115184417Y-59950000D01*
X115204700Y-60155935D01*
X115218067Y-60200000D01*
X115264768Y-60353954D01*
X115362315Y-60536450D01*
X115493590Y-60696410D01*
X115653550Y-60827685D01*
X115836046Y-60925232D01*
X116034066Y-60985300D01*
X116240000Y-61005583D01*
X116445934Y-60985300D01*
X116643954Y-60925232D01*
X116826450Y-60827685D01*
X116986410Y-60696410D01*
X117117685Y-60536450D01*
X117215232Y-60353954D01*
X117275300Y-60155934D01*
X117295583Y-59950000D01*
X117724417Y-59950000D01*
X117744700Y-60155935D01*
X117758067Y-60200000D01*
X117804768Y-60353954D01*
X117902315Y-60536450D01*
X118033590Y-60696410D01*
X118193550Y-60827685D01*
X118376046Y-60925232D01*
X118574066Y-60985300D01*
X118780000Y-61005583D01*
X118985934Y-60985300D01*
X119183954Y-60925232D01*
X119366450Y-60827685D01*
X119526410Y-60696410D01*
X119657685Y-60536450D01*
X119755232Y-60353954D01*
X119815300Y-60155934D01*
X119835583Y-59950000D01*
X120264417Y-59950000D01*
X120284700Y-60155935D01*
X120298067Y-60200000D01*
X120344768Y-60353954D01*
X120442315Y-60536450D01*
X120573590Y-60696410D01*
X120733550Y-60827685D01*
X120916046Y-60925232D01*
X121114066Y-60985300D01*
X121320000Y-61005583D01*
X121525934Y-60985300D01*
X121723954Y-60925232D01*
X121906450Y-60827685D01*
X122066410Y-60696410D01*
X122197685Y-60536450D01*
X122295232Y-60353954D01*
X122355300Y-60155934D01*
X122375583Y-59950000D01*
X122355300Y-59744066D01*
X122295232Y-59546046D01*
X122197685Y-59363550D01*
X122066410Y-59203590D01*
X121906450Y-59072315D01*
X121723954Y-58974768D01*
X121539068Y-58918684D01*
X121525935Y-58914700D01*
X121489718Y-58911133D01*
X121357835Y-58898143D01*
X121322311Y-58879155D01*
X121282165Y-58898143D01*
X121166927Y-58909493D01*
X121114064Y-58914700D01*
X120916043Y-58974769D01*
X120733549Y-59072315D01*
X120573590Y-59203589D01*
X120573589Y-59203590D01*
X120442315Y-59363549D01*
X120344769Y-59546043D01*
X120284700Y-59744064D01*
X120264417Y-59950000D01*
X119835583Y-59950000D01*
X119815300Y-59744066D01*
X119755232Y-59546046D01*
X119657685Y-59363550D01*
X119526410Y-59203590D01*
X119366450Y-59072315D01*
X119183954Y-58974768D01*
X118999068Y-58918684D01*
X118985935Y-58914700D01*
X118949718Y-58911133D01*
X118817835Y-58898143D01*
X118782311Y-58879155D01*
X118742165Y-58898143D01*
X118626927Y-58909493D01*
X118574064Y-58914700D01*
X118376043Y-58974769D01*
X118193549Y-59072315D01*
X118033590Y-59203589D01*
X118033589Y-59203590D01*
X117902315Y-59363549D01*
X117804769Y-59546043D01*
X117744700Y-59744064D01*
X117724417Y-59950000D01*
X117295583Y-59950000D01*
X117275300Y-59744066D01*
X117215232Y-59546046D01*
X117177823Y-59476061D01*
X117172272Y-59419699D01*
X117190758Y-59388855D01*
X117807441Y-58772174D01*
X117859767Y-58750500D01*
X118734911Y-58750500D01*
X118777657Y-58768206D01*
X118778144Y-58767297D01*
X118825089Y-58750500D01*
X121274911Y-58750500D01*
X121317657Y-58768206D01*
X121318144Y-58767297D01*
X121365089Y-58750500D01*
X123814911Y-58750500D01*
X123857657Y-58768206D01*
X123858144Y-58767297D01*
X123905089Y-58750500D01*
X124491232Y-58750500D01*
X124543558Y-58772174D01*
X124565232Y-58824500D01*
X124543558Y-58876826D01*
X124421145Y-58999238D01*
X124368819Y-59020912D01*
X124333936Y-59012174D01*
X124263958Y-58974769D01*
X124065935Y-58914700D01*
X124029718Y-58911133D01*
X123897835Y-58898143D01*
X123862311Y-58879155D01*
X123822165Y-58898143D01*
X123706927Y-58909493D01*
X123654064Y-58914700D01*
X123456043Y-58974769D01*
X123273549Y-59072315D01*
X123113590Y-59203589D01*
X123113589Y-59203590D01*
X122982315Y-59363549D01*
X122884769Y-59546043D01*
X122824700Y-59744064D01*
X122804417Y-59950000D01*
X122824700Y-60155935D01*
X122838067Y-60200000D01*
X122884768Y-60353954D01*
X122982315Y-60536450D01*
X123113590Y-60696410D01*
X123273550Y-60827685D01*
X123456046Y-60925232D01*
X123654066Y-60985300D01*
X123860000Y-61005583D01*
X124065934Y-60985300D01*
X124263954Y-60925232D01*
X124446450Y-60827685D01*
X124606410Y-60696410D01*
X124737685Y-60536450D01*
X124835232Y-60353954D01*
X124895300Y-60155934D01*
X124915583Y-59950000D01*
X124895300Y-59744066D01*
X124835232Y-59546046D01*
X124797823Y-59476061D01*
X124792272Y-59419699D01*
X124810758Y-59388856D01*
X125077442Y-59122174D01*
X125129768Y-59100500D01*
X125581734Y-59100500D01*
X125634060Y-59122174D01*
X125655734Y-59174500D01*
X125638937Y-59221445D01*
X125522315Y-59363549D01*
X125424769Y-59546043D01*
X125364700Y-59744064D01*
X125344417Y-59950000D01*
X125364700Y-60155935D01*
X125378067Y-60200000D01*
X125424768Y-60353954D01*
X125522315Y-60536450D01*
X125653590Y-60696410D01*
X125813550Y-60827685D01*
X125996046Y-60925232D01*
X126194066Y-60985300D01*
X126400000Y-61005583D01*
X126605934Y-60985300D01*
X126803954Y-60925232D01*
X126986450Y-60827685D01*
X127146410Y-60696410D01*
X127277685Y-60536450D01*
X127375232Y-60353954D01*
X127435300Y-60155934D01*
X127455583Y-59950000D01*
X127435300Y-59744066D01*
X127375232Y-59546046D01*
X127277685Y-59363550D01*
X127161062Y-59221444D01*
X127144622Y-59167247D01*
X127171321Y-59117297D01*
X127218266Y-59100500D01*
X128121734Y-59100500D01*
X128174060Y-59122174D01*
X128195734Y-59174500D01*
X128178937Y-59221445D01*
X128062315Y-59363549D01*
X127964769Y-59546043D01*
X127904700Y-59744064D01*
X127884417Y-59950000D01*
X127904700Y-60155935D01*
X127918067Y-60200000D01*
X127964768Y-60353954D01*
X128062315Y-60536450D01*
X128193590Y-60696410D01*
X128353550Y-60827685D01*
X128536046Y-60925232D01*
X128734066Y-60985300D01*
X128940000Y-61005583D01*
X129145934Y-60985300D01*
X129343954Y-60925232D01*
X129526450Y-60827685D01*
X129686410Y-60696410D01*
X129817685Y-60536450D01*
X129915232Y-60353954D01*
X129975300Y-60155934D01*
X129995583Y-59950000D01*
X130424417Y-59950000D01*
X130444700Y-60155935D01*
X130458067Y-60200000D01*
X130504768Y-60353954D01*
X130602315Y-60536450D01*
X130733590Y-60696410D01*
X130893550Y-60827685D01*
X131076046Y-60925232D01*
X131274066Y-60985300D01*
X131480000Y-61005583D01*
X131685934Y-60985300D01*
X131883954Y-60925232D01*
X132066450Y-60827685D01*
X132226410Y-60696410D01*
X132357685Y-60536450D01*
X132455232Y-60353954D01*
X132515300Y-60155934D01*
X132535583Y-59950000D01*
X132964417Y-59950000D01*
X132984700Y-60155935D01*
X132998067Y-60200000D01*
X133044768Y-60353954D01*
X133142315Y-60536450D01*
X133273590Y-60696410D01*
X133433550Y-60827685D01*
X133616046Y-60925232D01*
X133814066Y-60985300D01*
X134020000Y-61005583D01*
X134225934Y-60985300D01*
X134423954Y-60925232D01*
X134606450Y-60827685D01*
X134766410Y-60696410D01*
X134897685Y-60536450D01*
X134995232Y-60353954D01*
X135055300Y-60155934D01*
X135075583Y-59950000D01*
X135504417Y-59950000D01*
X135524700Y-60155935D01*
X135538067Y-60200000D01*
X135584768Y-60353954D01*
X135682315Y-60536450D01*
X135813590Y-60696410D01*
X135973550Y-60827685D01*
X136156046Y-60925232D01*
X136354066Y-60985300D01*
X136560000Y-61005583D01*
X136765934Y-60985300D01*
X136963954Y-60925232D01*
X137146450Y-60827685D01*
X137306410Y-60696410D01*
X137437685Y-60536450D01*
X137535232Y-60353954D01*
X137595300Y-60155934D01*
X137615583Y-59950000D01*
X138044417Y-59950000D01*
X138064700Y-60155935D01*
X138078067Y-60200000D01*
X138124768Y-60353954D01*
X138222315Y-60536450D01*
X138353590Y-60696410D01*
X138513550Y-60827685D01*
X138696046Y-60925232D01*
X138894066Y-60985300D01*
X139100000Y-61005583D01*
X139305934Y-60985300D01*
X139503954Y-60925232D01*
X139686450Y-60827685D01*
X139846410Y-60696410D01*
X139977685Y-60536450D01*
X140075232Y-60353954D01*
X140135300Y-60155934D01*
X140155583Y-59950000D01*
X140584417Y-59950000D01*
X140604700Y-60155935D01*
X140618067Y-60200000D01*
X140664768Y-60353954D01*
X140762315Y-60536450D01*
X140893590Y-60696410D01*
X141053550Y-60827685D01*
X141236046Y-60925232D01*
X141434066Y-60985300D01*
X141640000Y-61005583D01*
X141845934Y-60985300D01*
X142043954Y-60925232D01*
X142226450Y-60827685D01*
X142386410Y-60696410D01*
X142517685Y-60536450D01*
X142615232Y-60353954D01*
X142675300Y-60155934D01*
X142686033Y-60046952D01*
X142712732Y-59997004D01*
X142766930Y-59980563D01*
X142816880Y-60007262D01*
X142833395Y-60047757D01*
X142845430Y-60185318D01*
X142845431Y-60185325D01*
X142906566Y-60413483D01*
X142906571Y-60413494D01*
X143006401Y-60627579D01*
X143141888Y-60821075D01*
X143308924Y-60988111D01*
X143502420Y-61123598D01*
X143716505Y-61223428D01*
X143716508Y-61223430D01*
X143930000Y-61280634D01*
X143930000Y-60383012D01*
X143987007Y-60415925D01*
X144114174Y-60450000D01*
X144245826Y-60450000D01*
X144372993Y-60415925D01*
X144430000Y-60383012D01*
X144430000Y-61280634D01*
X144643491Y-61223430D01*
X144643494Y-61223428D01*
X144857579Y-61123598D01*
X145051075Y-60988111D01*
X145218111Y-60821075D01*
X145353598Y-60627579D01*
X145382933Y-60564673D01*
X145424691Y-60526410D01*
X145481274Y-60528880D01*
X145517067Y-60564673D01*
X145546401Y-60627579D01*
X145681888Y-60821075D01*
X145848924Y-60988111D01*
X146042420Y-61123598D01*
X146256505Y-61223428D01*
X146256508Y-61223430D01*
X146470000Y-61280634D01*
X146470000Y-60383012D01*
X146527007Y-60415925D01*
X146654174Y-60450000D01*
X146785826Y-60450000D01*
X146912993Y-60415925D01*
X146970000Y-60383012D01*
X146970000Y-61280634D01*
X147183491Y-61223430D01*
X147183494Y-61223428D01*
X147397579Y-61123598D01*
X147591075Y-60988111D01*
X147758111Y-60821075D01*
X147893598Y-60627579D01*
X147922933Y-60564673D01*
X147964691Y-60526410D01*
X148021274Y-60528880D01*
X148057067Y-60564673D01*
X148086401Y-60627579D01*
X148221888Y-60821075D01*
X148388924Y-60988111D01*
X148582420Y-61123598D01*
X148796505Y-61223428D01*
X148796508Y-61223430D01*
X149010000Y-61280634D01*
X149010000Y-60383012D01*
X149067007Y-60415925D01*
X149194174Y-60450000D01*
X149325826Y-60450000D01*
X149452993Y-60415925D01*
X149510000Y-60383012D01*
X149510000Y-61280634D01*
X149723491Y-61223430D01*
X149723494Y-61223428D01*
X149937579Y-61123598D01*
X150131075Y-60988111D01*
X150298111Y-60821075D01*
X150433598Y-60627579D01*
X150533428Y-60413494D01*
X150533433Y-60413483D01*
X150590636Y-60200000D01*
X149693012Y-60200000D01*
X149725925Y-60142993D01*
X149760000Y-60015826D01*
X149760000Y-59884174D01*
X149725925Y-59757007D01*
X149693012Y-59700000D01*
X150590636Y-59700000D01*
X150590636Y-59699999D01*
X150533432Y-59486512D01*
X150433598Y-59272421D01*
X150298109Y-59078921D01*
X150131075Y-58911888D01*
X150131076Y-58911888D01*
X149937579Y-58776401D01*
X149723494Y-58676571D01*
X149723483Y-58676566D01*
X149510000Y-58619363D01*
X149510000Y-59516988D01*
X149452993Y-59484075D01*
X149325826Y-59450000D01*
X149194174Y-59450000D01*
X149067007Y-59484075D01*
X149010000Y-59516988D01*
X149010000Y-58619363D01*
X149009999Y-58619363D01*
X148796512Y-58676567D01*
X148582421Y-58776401D01*
X148388921Y-58911890D01*
X148221890Y-59078921D01*
X148086400Y-59272421D01*
X148057067Y-59335327D01*
X148015309Y-59373590D01*
X147958726Y-59371120D01*
X147922933Y-59335327D01*
X147893599Y-59272421D01*
X147758109Y-59078921D01*
X147591075Y-58911888D01*
X147591076Y-58911888D01*
X147397579Y-58776401D01*
X147183494Y-58676571D01*
X147183483Y-58676566D01*
X146970000Y-58619363D01*
X146970000Y-59516988D01*
X146912993Y-59484075D01*
X146785826Y-59450000D01*
X146654174Y-59450000D01*
X146527007Y-59484075D01*
X146470000Y-59516988D01*
X146470000Y-58619363D01*
X146469999Y-58619363D01*
X146256512Y-58676567D01*
X146042421Y-58776401D01*
X145848921Y-58911890D01*
X145681890Y-59078921D01*
X145546400Y-59272421D01*
X145517067Y-59335327D01*
X145475309Y-59373590D01*
X145418726Y-59371120D01*
X145382933Y-59335327D01*
X145353599Y-59272421D01*
X145218109Y-59078921D01*
X145051075Y-58911888D01*
X145051076Y-58911888D01*
X144857579Y-58776401D01*
X144643494Y-58676571D01*
X144643483Y-58676566D01*
X144430000Y-58619363D01*
X144430000Y-59516988D01*
X144372993Y-59484075D01*
X144245826Y-59450000D01*
X144114174Y-59450000D01*
X143987007Y-59484075D01*
X143930000Y-59516988D01*
X143930000Y-58619363D01*
X143929999Y-58619363D01*
X143716512Y-58676567D01*
X143502421Y-58776401D01*
X143308921Y-58911890D01*
X143141890Y-59078921D01*
X143006401Y-59272421D01*
X142906571Y-59486505D01*
X142906566Y-59486516D01*
X142845431Y-59714674D01*
X142845430Y-59714681D01*
X142833395Y-59852242D01*
X142807243Y-59902479D01*
X142753227Y-59919510D01*
X142702990Y-59893358D01*
X142686033Y-59853046D01*
X142675300Y-59744066D01*
X142615232Y-59546046D01*
X142517685Y-59363550D01*
X142386410Y-59203590D01*
X142226450Y-59072315D01*
X142043954Y-58974768D01*
X141859068Y-58918684D01*
X141845935Y-58914700D01*
X141640000Y-58894417D01*
X141434064Y-58914700D01*
X141236043Y-58974769D01*
X141053549Y-59072315D01*
X140893590Y-59203589D01*
X140893589Y-59203590D01*
X140762315Y-59363549D01*
X140664769Y-59546043D01*
X140604700Y-59744064D01*
X140584417Y-59950000D01*
X140155583Y-59950000D01*
X140135300Y-59744066D01*
X140075232Y-59546046D01*
X139977685Y-59363550D01*
X139846410Y-59203590D01*
X139686450Y-59072315D01*
X139503954Y-58974768D01*
X139319068Y-58918684D01*
X139305935Y-58914700D01*
X139100000Y-58894417D01*
X138894064Y-58914700D01*
X138696043Y-58974769D01*
X138513549Y-59072315D01*
X138353590Y-59203589D01*
X138353589Y-59203590D01*
X138222315Y-59363549D01*
X138124769Y-59546043D01*
X138064700Y-59744064D01*
X138044417Y-59950000D01*
X137615583Y-59950000D01*
X137595300Y-59744066D01*
X137535232Y-59546046D01*
X137437685Y-59363550D01*
X137306410Y-59203590D01*
X137146450Y-59072315D01*
X136963954Y-58974768D01*
X136779068Y-58918684D01*
X136765935Y-58914700D01*
X136560000Y-58894417D01*
X136354064Y-58914700D01*
X136156043Y-58974769D01*
X135973549Y-59072315D01*
X135813590Y-59203589D01*
X135813589Y-59203590D01*
X135682315Y-59363549D01*
X135584769Y-59546043D01*
X135524700Y-59744064D01*
X135504417Y-59950000D01*
X135075583Y-59950000D01*
X135055300Y-59744066D01*
X134995232Y-59546046D01*
X134897685Y-59363550D01*
X134766410Y-59203590D01*
X134606450Y-59072315D01*
X134423954Y-58974768D01*
X134239068Y-58918684D01*
X134225935Y-58914700D01*
X134020000Y-58894417D01*
X133814064Y-58914700D01*
X133616043Y-58974769D01*
X133433549Y-59072315D01*
X133273590Y-59203589D01*
X133273589Y-59203590D01*
X133142315Y-59363549D01*
X133044769Y-59546043D01*
X132984700Y-59744064D01*
X132964417Y-59950000D01*
X132535583Y-59950000D01*
X132515300Y-59744066D01*
X132455232Y-59546046D01*
X132357685Y-59363550D01*
X132226410Y-59203590D01*
X132066450Y-59072315D01*
X131883954Y-58974768D01*
X131699068Y-58918684D01*
X131685935Y-58914700D01*
X131480000Y-58894417D01*
X131274064Y-58914700D01*
X131076043Y-58974769D01*
X130893549Y-59072315D01*
X130733590Y-59203589D01*
X130733589Y-59203590D01*
X130602315Y-59363549D01*
X130504769Y-59546043D01*
X130444700Y-59744064D01*
X130424417Y-59950000D01*
X129995583Y-59950000D01*
X129975300Y-59744066D01*
X129915232Y-59546046D01*
X129817685Y-59363550D01*
X129686410Y-59203590D01*
X129526450Y-59072315D01*
X129343954Y-58974768D01*
X129159068Y-58918684D01*
X129145935Y-58914700D01*
X129077289Y-58907939D01*
X128940000Y-58894417D01*
X128939999Y-58894417D01*
X128939998Y-58894417D01*
X128929732Y-58895428D01*
X128875534Y-58878985D01*
X128848837Y-58829035D01*
X128865280Y-58774837D01*
X128870144Y-58769469D01*
X130145676Y-57493939D01*
X130187619Y-57392681D01*
X130187619Y-57283081D01*
X130187619Y-55373616D01*
X130209293Y-55321290D01*
X130221607Y-55311366D01*
X130243247Y-55297460D01*
X130254084Y-55284954D01*
X130270201Y-55266352D01*
X130337496Y-55188690D01*
X130397284Y-55057774D01*
X130417766Y-54915317D01*
X130397284Y-54772860D01*
X130337496Y-54641944D01*
X130284058Y-54580273D01*
X130243250Y-54533177D01*
X130243248Y-54533176D01*
X130243247Y-54533174D01*
X130178471Y-54491545D01*
X130122173Y-54455364D01*
X130122169Y-54455363D01*
X129984083Y-54414817D01*
X129984080Y-54414817D01*
X129840158Y-54414817D01*
X129840155Y-54414817D01*
X129702068Y-54455363D01*
X129702064Y-54455364D01*
X129580994Y-54533172D01*
X129580987Y-54533177D01*
X129486742Y-54641943D01*
X129426953Y-54772862D01*
X129406472Y-54915317D01*
X129426953Y-55057771D01*
X129426953Y-55057772D01*
X129426954Y-55057774D01*
X129453208Y-55115262D01*
X129486742Y-55188690D01*
X129580987Y-55297457D01*
X129580988Y-55297458D01*
X129580990Y-55297459D01*
X129580991Y-55297460D01*
X129602626Y-55311363D01*
X129634927Y-55357884D01*
X129636619Y-55373616D01*
X129636619Y-57193114D01*
X129614945Y-57245440D01*
X128332559Y-58527826D01*
X128280233Y-58549500D01*
X126468767Y-58549500D01*
X126416441Y-58527826D01*
X126394767Y-58475500D01*
X126416441Y-58423174D01*
X127208001Y-57631614D01*
X128365075Y-56474541D01*
X128407017Y-56373283D01*
X128407017Y-56263683D01*
X128407017Y-55465853D01*
X128428691Y-55413527D01*
X128441005Y-55403603D01*
X128462645Y-55389697D01*
X128464060Y-55388065D01*
X128490211Y-55357884D01*
X128556894Y-55280927D01*
X128616682Y-55150011D01*
X128637164Y-55007554D01*
X128616682Y-54865097D01*
X128556894Y-54734181D01*
X128493807Y-54661374D01*
X128462648Y-54625414D01*
X128462646Y-54625413D01*
X128462645Y-54625411D01*
X128395454Y-54582230D01*
X128341571Y-54547601D01*
X128341569Y-54547600D01*
X128299088Y-54535127D01*
X128254988Y-54499589D01*
X128248935Y-54443276D01*
X128260644Y-54421837D01*
X128260013Y-54421432D01*
X128262875Y-54416977D01*
X128262874Y-54416977D01*
X128262877Y-54416975D01*
X128322665Y-54286059D01*
X128343147Y-54143602D01*
X128322665Y-54001145D01*
X128287037Y-53923133D01*
X128285017Y-53866534D01*
X128323610Y-53825081D01*
X128326005Y-53824038D01*
X128393558Y-53796057D01*
X128471057Y-53718558D01*
X129092441Y-53097174D01*
X129144767Y-53075500D01*
X132112061Y-53075500D01*
X132164387Y-53097174D01*
X132332906Y-53265694D01*
X132354580Y-53318020D01*
X132353827Y-53328550D01*
X132344514Y-53393332D01*
X132364995Y-53535787D01*
X132364995Y-53535788D01*
X132364996Y-53535790D01*
X132398382Y-53608895D01*
X132424784Y-53666706D01*
X132497524Y-53750653D01*
X132515409Y-53804391D01*
X132497524Y-53847571D01*
X132413277Y-53944798D01*
X132353488Y-54075717D01*
X132333007Y-54218172D01*
X132353488Y-54360626D01*
X132353488Y-54360627D01*
X132353489Y-54360629D01*
X132387305Y-54434674D01*
X132413277Y-54491545D01*
X132507522Y-54600311D01*
X132507523Y-54600312D01*
X132507526Y-54600315D01*
X132628601Y-54678125D01*
X132710594Y-54702200D01*
X132766689Y-54718671D01*
X132766691Y-54718672D01*
X132766693Y-54718672D01*
X132910617Y-54718672D01*
X132910618Y-54718671D01*
X132919170Y-54716160D01*
X133048707Y-54678125D01*
X133169782Y-54600315D01*
X133264031Y-54491545D01*
X133323819Y-54360629D01*
X133344301Y-54218172D01*
X133334986Y-54153389D01*
X133348993Y-54098513D01*
X133355900Y-54090540D01*
X133743558Y-53702884D01*
X133785500Y-53601626D01*
X133785500Y-53492026D01*
X133785500Y-53133767D01*
X133807174Y-53081441D01*
X133859500Y-53059767D01*
X133911826Y-53081441D01*
X134737793Y-53907408D01*
X134815292Y-53984907D01*
X134916550Y-54026850D01*
X136124118Y-54026850D01*
X136176444Y-54048524D01*
X136180034Y-54052380D01*
X136250319Y-54133493D01*
X136371394Y-54211303D01*
X136477850Y-54242561D01*
X136509482Y-54251849D01*
X136509484Y-54251850D01*
X136509486Y-54251850D01*
X136653410Y-54251850D01*
X136653411Y-54251849D01*
X136791500Y-54211303D01*
X136912575Y-54133493D01*
X137006824Y-54024723D01*
X137066612Y-53893807D01*
X137087094Y-53751350D01*
X137066612Y-53608893D01*
X137006824Y-53477977D01*
X136954730Y-53417857D01*
X136912578Y-53369210D01*
X136912576Y-53369209D01*
X136912575Y-53369207D01*
X136848558Y-53328066D01*
X136791501Y-53291397D01*
X136791497Y-53291396D01*
X136653411Y-53250850D01*
X136653408Y-53250850D01*
X136509486Y-53250850D01*
X136509483Y-53250850D01*
X136371396Y-53291396D01*
X136371392Y-53291397D01*
X136278245Y-53351260D01*
X136250319Y-53369207D01*
X136180042Y-53450310D01*
X136129397Y-53475661D01*
X136124118Y-53475850D01*
X135116117Y-53475850D01*
X135063791Y-53454176D01*
X132961982Y-51352367D01*
X132940308Y-51300041D01*
X132941061Y-51289516D01*
X132943149Y-51274997D01*
X132922667Y-51132540D01*
X132862879Y-51001624D01*
X132829071Y-50962607D01*
X132811186Y-50908868D01*
X132836538Y-50858222D01*
X132884997Y-50840148D01*
X132919005Y-50840148D01*
X132919006Y-50840147D01*
X133057095Y-50799601D01*
X133178170Y-50721791D01*
X133248446Y-50640687D01*
X133299092Y-50615337D01*
X133304371Y-50615148D01*
X134619838Y-50615148D01*
X134672164Y-50636822D01*
X134693838Y-50689148D01*
X134675764Y-50737605D01*
X134652717Y-50764205D01*
X134624622Y-50796628D01*
X134564834Y-50927545D01*
X134544353Y-51070000D01*
X134564834Y-51212454D01*
X134564834Y-51212455D01*
X134564835Y-51212457D01*
X134616769Y-51326175D01*
X134624623Y-51343373D01*
X134718868Y-51452139D01*
X134718869Y-51452140D01*
X134718872Y-51452143D01*
X134795869Y-51501626D01*
X134837760Y-51528548D01*
X134839947Y-51529953D01*
X134920857Y-51553710D01*
X134978035Y-51570499D01*
X134978037Y-51570500D01*
X134978039Y-51570500D01*
X135121963Y-51570500D01*
X135121964Y-51570499D01*
X135260053Y-51529953D01*
X135365406Y-51462247D01*
X135405413Y-51450500D01*
X139417671Y-51450500D01*
X139469997Y-51472174D01*
X139473587Y-51476030D01*
X139543872Y-51557143D01*
X139636474Y-51616654D01*
X139651854Y-51626539D01*
X139664947Y-51634953D01*
X139725818Y-51652826D01*
X139803035Y-51675499D01*
X139803037Y-51675500D01*
X139803039Y-51675500D01*
X139946963Y-51675500D01*
X139946964Y-51675499D01*
X140085053Y-51634953D01*
X140206128Y-51557143D01*
X140300377Y-51448373D01*
X140360165Y-51317457D01*
X140380647Y-51175000D01*
X140360165Y-51032543D01*
X140300377Y-50901627D01*
X140206128Y-50792857D01*
X140206127Y-50792856D01*
X140202662Y-50788857D01*
X140204514Y-50787252D01*
X140182885Y-50744028D01*
X140200770Y-50690301D01*
X140285650Y-50592344D01*
X140345438Y-50461428D01*
X140365920Y-50318971D01*
X140345438Y-50176514D01*
X140285650Y-50045598D01*
X140245213Y-49998931D01*
X140191404Y-49936831D01*
X140191402Y-49936830D01*
X140191401Y-49936828D01*
X140125540Y-49894502D01*
X140070327Y-49859018D01*
X140070323Y-49859017D01*
X139932237Y-49818471D01*
X139932234Y-49818471D01*
X139788312Y-49818471D01*
X139788309Y-49818471D01*
X139650222Y-49859017D01*
X139650218Y-49859018D01*
X139529148Y-49936826D01*
X139529141Y-49936831D01*
X139434896Y-50045597D01*
X139375107Y-50176516D01*
X139366178Y-50238621D01*
X139356327Y-50307144D01*
X139355768Y-50311031D01*
X139326868Y-50359740D01*
X139282521Y-50374500D01*
X135587940Y-50374500D01*
X135535614Y-50352826D01*
X135288878Y-50106090D01*
X135250114Y-50090034D01*
X135195609Y-50067457D01*
X135187621Y-50064148D01*
X135187620Y-50064148D01*
X133304371Y-50064148D01*
X133252045Y-50042474D01*
X133248454Y-50038617D01*
X133178170Y-49957505D01*
X133121224Y-49920908D01*
X133057096Y-49879695D01*
X133057092Y-49879694D01*
X132919006Y-49839148D01*
X132919003Y-49839148D01*
X132775081Y-49839148D01*
X132775078Y-49839148D01*
X132636991Y-49879694D01*
X132636987Y-49879695D01*
X132515917Y-49957503D01*
X132515910Y-49957508D01*
X132421665Y-50066274D01*
X132361876Y-50197193D01*
X132341395Y-50339648D01*
X132361876Y-50482102D01*
X132361876Y-50482103D01*
X132361877Y-50482105D01*
X132400129Y-50565865D01*
X132421665Y-50613021D01*
X132455473Y-50652038D01*
X132473358Y-50705777D01*
X132448006Y-50756423D01*
X132399547Y-50774497D01*
X132365538Y-50774497D01*
X132227451Y-50815043D01*
X132227447Y-50815044D01*
X132106377Y-50892852D01*
X132106370Y-50892857D01*
X132012125Y-51001623D01*
X131952336Y-51132542D01*
X131931855Y-51274997D01*
X131952336Y-51417451D01*
X131952336Y-51417452D01*
X131952337Y-51417454D01*
X132007323Y-51537855D01*
X132012125Y-51548370D01*
X132079858Y-51626539D01*
X132097743Y-51680278D01*
X132079858Y-51723457D01*
X132036099Y-51773959D01*
X131985453Y-51799311D01*
X131980173Y-51799500D01*
X131670200Y-51799500D01*
X131572317Y-51840043D01*
X131572318Y-51840044D01*
X131568945Y-51841441D01*
X131568940Y-51841445D01*
X131339360Y-52071025D01*
X131287034Y-52092699D01*
X128766090Y-52092699D01*
X128713764Y-52071025D01*
X128692090Y-52018699D01*
X128698777Y-51987958D01*
X128722663Y-51935656D01*
X128743145Y-51793199D01*
X128722663Y-51650742D01*
X128662875Y-51519826D01*
X128604228Y-51452143D01*
X128568629Y-51411059D01*
X128568627Y-51411058D01*
X128568626Y-51411056D01*
X128511680Y-51374459D01*
X128447552Y-51333246D01*
X128447548Y-51333245D01*
X128309462Y-51292699D01*
X128309459Y-51292699D01*
X128165537Y-51292699D01*
X128165534Y-51292699D01*
X128027447Y-51333245D01*
X128027443Y-51333246D01*
X127906373Y-51411054D01*
X127906366Y-51411059D01*
X127812120Y-51519826D01*
X127808748Y-51527211D01*
X127767295Y-51565804D01*
X127741436Y-51570469D01*
X121999231Y-51570469D01*
X121927629Y-51600126D01*
X121927630Y-51600127D01*
X121897973Y-51612411D01*
X121332182Y-52178200D01*
X121279856Y-52199874D01*
X121274622Y-52199500D01*
X121271961Y-52199500D01*
X121128039Y-52199500D01*
X121128036Y-52199500D01*
X120989949Y-52240046D01*
X120989945Y-52240047D01*
X120868875Y-52317855D01*
X120868868Y-52317860D01*
X120774623Y-52426626D01*
X120714834Y-52557545D01*
X120694353Y-52700000D01*
X120714834Y-52842454D01*
X120774623Y-52973373D01*
X120868868Y-53082139D01*
X120868869Y-53082140D01*
X120868872Y-53082143D01*
X120989947Y-53159953D01*
X121096403Y-53191211D01*
X121128035Y-53200499D01*
X121128037Y-53200500D01*
X121128039Y-53200500D01*
X121271963Y-53200500D01*
X121271964Y-53200499D01*
X121410053Y-53159953D01*
X121531128Y-53082143D01*
X121625377Y-52973373D01*
X121685165Y-52842457D01*
X121705647Y-52700000D01*
X121696332Y-52635216D01*
X121710339Y-52580340D01*
X121717245Y-52572368D01*
X122146473Y-52143143D01*
X122198799Y-52121469D01*
X127825894Y-52121469D01*
X127878220Y-52143143D01*
X127881819Y-52147009D01*
X127906365Y-52175337D01*
X127906366Y-52175338D01*
X127906370Y-52175342D01*
X128027445Y-52253152D01*
X128036218Y-52255727D01*
X128080319Y-52291263D01*
X128086377Y-52347575D01*
X128067699Y-52379057D01*
X127981056Y-52465700D01*
X127928730Y-52487374D01*
X127923498Y-52487000D01*
X127920834Y-52487000D01*
X127776912Y-52487000D01*
X127776909Y-52487000D01*
X127638822Y-52527546D01*
X127638818Y-52527547D01*
X127517748Y-52605355D01*
X127517741Y-52605360D01*
X127423496Y-52714126D01*
X127363707Y-52845045D01*
X127349203Y-52945926D01*
X127343226Y-52987500D01*
X127352207Y-53049969D01*
X127338201Y-53104846D01*
X127289493Y-53133747D01*
X127278961Y-53134500D01*
X123500202Y-53134500D01*
X123438754Y-53159953D01*
X123410461Y-53171672D01*
X123367384Y-53173980D01*
X123367201Y-53175255D01*
X123361963Y-53174502D01*
X123361961Y-53174502D01*
X123218039Y-53174502D01*
X123218036Y-53174502D01*
X123079949Y-53215048D01*
X123079945Y-53215049D01*
X122958875Y-53292857D01*
X122958868Y-53292862D01*
X122864623Y-53401628D01*
X122804834Y-53532547D01*
X122784353Y-53675002D01*
X122804834Y-53817456D01*
X122804834Y-53817457D01*
X122804835Y-53817459D01*
X122857185Y-53932089D01*
X122864623Y-53948375D01*
X122958868Y-54057141D01*
X122958869Y-54057142D01*
X122958872Y-54057145D01*
X123079947Y-54134955D01*
X123111391Y-54144187D01*
X123155489Y-54179724D01*
X123161544Y-54236037D01*
X123142867Y-54267515D01*
X123106485Y-54303897D01*
X123054159Y-54325571D01*
X123043636Y-54324819D01*
X123041429Y-54324502D01*
X123041426Y-54324502D01*
X122897504Y-54324502D01*
X122897501Y-54324502D01*
X122759414Y-54365048D01*
X122759410Y-54365049D01*
X122669949Y-54422543D01*
X122638337Y-54442859D01*
X122568060Y-54523962D01*
X122517415Y-54549313D01*
X122512136Y-54549502D01*
X120296032Y-54549502D01*
X120243706Y-54527828D01*
X120152372Y-54436494D01*
X120130698Y-54384168D01*
X120131450Y-54373648D01*
X120140766Y-54308857D01*
X120120284Y-54166400D01*
X120060496Y-54035484D01*
X120030651Y-54001041D01*
X119966250Y-53926717D01*
X119966248Y-53926716D01*
X119966247Y-53926714D01*
X119909301Y-53890117D01*
X119845173Y-53848904D01*
X119845169Y-53848903D01*
X119707083Y-53808357D01*
X119707080Y-53808357D01*
X119563158Y-53808357D01*
X119563155Y-53808357D01*
X119425068Y-53848903D01*
X119425064Y-53848904D01*
X119303994Y-53926712D01*
X119303986Y-53926718D01*
X119259384Y-53978193D01*
X119208738Y-54003544D01*
X119203459Y-54003733D01*
X115107329Y-54003733D01*
X115055003Y-53982059D01*
X115051412Y-53978202D01*
X114981128Y-53897090D01*
X114906149Y-53848904D01*
X114860054Y-53819280D01*
X114860051Y-53819279D01*
X114840794Y-53813625D01*
X114796694Y-53778087D01*
X114790641Y-53721774D01*
X114809315Y-53690299D01*
X114952441Y-53547174D01*
X115004767Y-53525500D01*
X117144325Y-53525500D01*
X117144327Y-53525500D01*
X117245585Y-53483557D01*
X117323084Y-53406058D01*
X118113475Y-52615666D01*
X118165800Y-52593993D01*
X118218126Y-52615667D01*
X118221725Y-52619533D01*
X118275972Y-52682138D01*
X118275973Y-52682139D01*
X118275977Y-52682143D01*
X118397052Y-52759953D01*
X118503508Y-52791211D01*
X118535140Y-52800499D01*
X118535142Y-52800500D01*
X118535144Y-52800500D01*
X118679068Y-52800500D01*
X118679069Y-52800499D01*
X118817158Y-52759953D01*
X118938233Y-52682143D01*
X119032482Y-52573373D01*
X119092270Y-52442457D01*
X119092271Y-52442446D01*
X119092471Y-52441770D01*
X119092729Y-52441449D01*
X119094468Y-52437642D01*
X119095439Y-52438085D01*
X119128005Y-52397667D01*
X119184317Y-52391608D01*
X119184324Y-52391610D01*
X119282713Y-52420500D01*
X119282715Y-52420500D01*
X119426639Y-52420500D01*
X119426640Y-52420499D01*
X119564729Y-52379953D01*
X119685804Y-52302143D01*
X119780053Y-52193373D01*
X119839841Y-52062457D01*
X119860323Y-51920000D01*
X119839841Y-51777543D01*
X119780053Y-51646627D01*
X119744873Y-51606027D01*
X119685807Y-51537860D01*
X119685805Y-51537859D01*
X119685804Y-51537857D01*
X119613578Y-51491440D01*
X119564730Y-51460047D01*
X119564726Y-51460046D01*
X119426640Y-51419500D01*
X119426637Y-51419500D01*
X119282715Y-51419500D01*
X119190750Y-51446503D01*
X119169902Y-51449500D01*
X118314132Y-51449500D01*
X118242530Y-51479158D01*
X118212877Y-51491440D01*
X118212874Y-51491442D01*
X118051491Y-51652826D01*
X117999165Y-51674500D01*
X117949353Y-51674500D01*
X117839753Y-51674500D01*
X117825804Y-51680278D01*
X117738495Y-51716442D01*
X117738490Y-51716446D01*
X117630402Y-51824533D01*
X117578076Y-51846207D01*
X117525751Y-51824532D01*
X117504077Y-51772206D01*
X117504830Y-51761680D01*
X117506728Y-51748482D01*
X117486246Y-51606025D01*
X117426458Y-51475109D01*
X117389669Y-51432652D01*
X117332212Y-51366342D01*
X117332210Y-51366341D01*
X117332209Y-51366339D01*
X117332203Y-51366335D01*
X117310573Y-51352434D01*
X117278272Y-51305911D01*
X117276581Y-51290182D01*
X117276581Y-50793686D01*
X117298255Y-50741360D01*
X118329750Y-49709865D01*
X119371890Y-48667724D01*
X119424215Y-48646051D01*
X119429452Y-48646426D01*
X119432113Y-48646426D01*
X119576037Y-48646426D01*
X119576038Y-48646425D01*
X119577312Y-48646051D01*
X119714127Y-48605879D01*
X119835202Y-48528069D01*
X119929451Y-48419299D01*
X119989239Y-48288383D01*
X120009721Y-48145926D01*
X119989239Y-48003469D01*
X119929451Y-47872553D01*
X119835202Y-47763783D01*
X119750923Y-47709620D01*
X119714128Y-47685973D01*
X119714124Y-47685972D01*
X119576038Y-47645426D01*
X119576035Y-47645426D01*
X119432113Y-47645426D01*
X119432110Y-47645426D01*
X119294023Y-47685972D01*
X119294019Y-47685973D01*
X119172949Y-47763781D01*
X119172942Y-47763786D01*
X119078697Y-47872552D01*
X119018908Y-48003471D01*
X118998427Y-48145926D01*
X119007740Y-48210707D01*
X118993732Y-48265585D01*
X118986819Y-48273563D01*
X116845023Y-50415362D01*
X116767523Y-50492862D01*
X116725581Y-50594119D01*
X116725581Y-51290182D01*
X116703907Y-51342508D01*
X116691589Y-51352434D01*
X116669958Y-51366335D01*
X116669949Y-51366342D01*
X116575704Y-51475108D01*
X116515915Y-51606027D01*
X116495434Y-51748482D01*
X116515915Y-51890936D01*
X116515915Y-51890937D01*
X116515916Y-51890939D01*
X116536338Y-51935656D01*
X116575704Y-52021855D01*
X116669949Y-52130621D01*
X116669950Y-52130622D01*
X116669953Y-52130625D01*
X116751422Y-52182982D01*
X116790870Y-52208334D01*
X116791028Y-52208435D01*
X116881338Y-52234952D01*
X116929116Y-52248981D01*
X116929118Y-52248982D01*
X117027304Y-52248982D01*
X117079630Y-52270656D01*
X117101304Y-52322982D01*
X117079630Y-52375308D01*
X117002112Y-52452826D01*
X116949786Y-52474500D01*
X115540724Y-52474500D01*
X115488398Y-52452826D01*
X114938209Y-51902638D01*
X114916535Y-51850312D01*
X114917287Y-51839792D01*
X114926603Y-51775000D01*
X114906121Y-51632543D01*
X114846333Y-51501627D01*
X114775170Y-51419500D01*
X114752087Y-51392860D01*
X114752085Y-51392859D01*
X114752084Y-51392857D01*
X114695138Y-51356260D01*
X114631010Y-51315047D01*
X114631006Y-51315046D01*
X114492920Y-51274500D01*
X114492917Y-51274500D01*
X114348995Y-51274500D01*
X114348992Y-51274500D01*
X114210905Y-51315046D01*
X114210901Y-51315047D01*
X114089831Y-51392855D01*
X114089824Y-51392860D01*
X113995579Y-51501626D01*
X113935790Y-51632545D01*
X113915309Y-51775000D01*
X113935790Y-51917454D01*
X113935790Y-51917455D01*
X113935791Y-51917457D01*
X113967988Y-51987958D01*
X113995579Y-52048373D01*
X114089824Y-52157139D01*
X114089825Y-52157140D01*
X114089828Y-52157143D01*
X114210903Y-52234953D01*
X114317359Y-52266211D01*
X114348991Y-52275499D01*
X114348993Y-52275500D01*
X114498210Y-52275500D01*
X114498210Y-52277907D01*
X114545143Y-52289873D01*
X114553139Y-52296799D01*
X115104514Y-52848174D01*
X115126188Y-52900500D01*
X115104514Y-52952826D01*
X115052188Y-52974500D01*
X114805200Y-52974500D01*
X114773816Y-52987500D01*
X114716624Y-53011190D01*
X114703942Y-53016442D01*
X114703941Y-53016444D01*
X113673941Y-54046444D01*
X113612673Y-54107710D01*
X113600356Y-54117635D01*
X113498877Y-54182853D01*
X113498868Y-54182860D01*
X113404623Y-54291626D01*
X113344834Y-54422545D01*
X113324353Y-54565000D01*
X113344834Y-54707454D01*
X113344834Y-54707455D01*
X113344835Y-54707457D01*
X113377843Y-54779733D01*
X113404623Y-54838373D01*
X113498868Y-54947139D01*
X113498869Y-54947140D01*
X113498872Y-54947143D01*
X113619947Y-55024953D01*
X113726403Y-55056211D01*
X113758035Y-55065499D01*
X113758037Y-55065500D01*
X113758039Y-55065500D01*
X113901962Y-55065500D01*
X113913111Y-55062226D01*
X113925204Y-55058675D01*
X113981517Y-55064728D01*
X114017056Y-55108827D01*
X114011003Y-55165140D01*
X114001981Y-55178135D01*
X113994623Y-55186625D01*
X113934834Y-55317545D01*
X113914353Y-55460000D01*
X113934834Y-55602454D01*
X113934834Y-55602455D01*
X113934835Y-55602457D01*
X113983254Y-55708479D01*
X113994623Y-55733373D01*
X114088868Y-55842139D01*
X114088869Y-55842140D01*
X114088872Y-55842143D01*
X114209947Y-55919953D01*
X114316403Y-55951211D01*
X114348035Y-55960499D01*
X114348037Y-55960500D01*
X114348039Y-55960500D01*
X114491963Y-55960500D01*
X114491964Y-55960499D01*
X114630053Y-55919953D01*
X114751128Y-55842143D01*
X114845377Y-55733373D01*
X114905165Y-55602457D01*
X114925647Y-55460000D01*
X114925647Y-55459999D01*
X114925647Y-55456942D01*
X114926320Y-55455316D01*
X114926400Y-55454762D01*
X114926541Y-55454782D01*
X114947321Y-55404616D01*
X114999647Y-55382942D01*
X119130173Y-55382942D01*
X119182499Y-55404616D01*
X119186089Y-55408472D01*
X119256374Y-55489585D01*
X119377449Y-55567395D01*
X119468719Y-55594194D01*
X119515537Y-55607941D01*
X119515539Y-55607942D01*
X119515541Y-55607942D01*
X119659465Y-55607942D01*
X119659466Y-55607941D01*
X119678143Y-55602457D01*
X119797555Y-55567395D01*
X119918630Y-55489585D01*
X120012879Y-55380815D01*
X120072667Y-55249899D01*
X120085021Y-55163970D01*
X120113921Y-55115262D01*
X120158268Y-55100502D01*
X122512136Y-55100502D01*
X122564462Y-55122176D01*
X122568052Y-55126032D01*
X122638337Y-55207145D01*
X122759412Y-55284955D01*
X122849347Y-55311362D01*
X122897500Y-55325501D01*
X122897502Y-55325502D01*
X122897504Y-55325502D01*
X123041428Y-55325502D01*
X123041429Y-55325501D01*
X123179518Y-55284955D01*
X123300593Y-55207145D01*
X123394842Y-55098375D01*
X123454630Y-54967459D01*
X123475112Y-54825002D01*
X123466492Y-54765056D01*
X123480498Y-54710180D01*
X123487405Y-54702208D01*
X123754942Y-54434674D01*
X123807268Y-54413000D01*
X127374884Y-54413000D01*
X127427210Y-54434674D01*
X127430808Y-54438539D01*
X127434552Y-54442860D01*
X127506368Y-54525741D01*
X127506369Y-54525742D01*
X127506372Y-54525745D01*
X127627447Y-54603555D01*
X127669929Y-54616028D01*
X127714027Y-54651565D01*
X127720082Y-54707878D01*
X127708375Y-54729320D01*
X127709004Y-54729724D01*
X127706141Y-54734178D01*
X127646351Y-54865099D01*
X127625870Y-55007554D01*
X127646351Y-55150008D01*
X127646351Y-55150009D01*
X127646352Y-55150011D01*
X127691970Y-55249899D01*
X127706140Y-55280927D01*
X127800385Y-55389694D01*
X127800386Y-55389695D01*
X127800388Y-55389696D01*
X127800389Y-55389697D01*
X127822024Y-55403600D01*
X127854325Y-55450121D01*
X127856017Y-55465853D01*
X127856017Y-56173714D01*
X127834343Y-56226040D01*
X127568701Y-56491681D01*
X127516375Y-56513355D01*
X127464049Y-56491681D01*
X127449065Y-56470101D01*
X127406377Y-56376627D01*
X127406376Y-56376626D01*
X127406376Y-56376625D01*
X127312131Y-56267860D01*
X127312129Y-56267859D01*
X127312128Y-56267857D01*
X127220512Y-56208979D01*
X127191054Y-56190047D01*
X127191050Y-56190046D01*
X127052964Y-56149500D01*
X127052961Y-56149500D01*
X126909039Y-56149500D01*
X126909036Y-56149500D01*
X126770949Y-56190046D01*
X126770945Y-56190047D01*
X126649875Y-56267855D01*
X126649868Y-56267860D01*
X126555623Y-56376626D01*
X126495834Y-56507545D01*
X126475353Y-56650000D01*
X126484666Y-56714782D01*
X126470658Y-56769660D01*
X126463745Y-56777638D01*
X125413559Y-57827826D01*
X125361233Y-57849500D01*
X115470200Y-57849500D01*
X115368944Y-57891440D01*
X115368940Y-57891443D01*
X114261145Y-58999238D01*
X114208819Y-59020912D01*
X114173936Y-59012174D01*
X114103958Y-58974769D01*
X113905935Y-58914700D01*
X113700000Y-58894417D01*
X113494064Y-58914700D01*
X113296043Y-58974769D01*
X113113549Y-59072315D01*
X112953590Y-59203589D01*
X112953589Y-59203590D01*
X112822315Y-59363549D01*
X112724769Y-59546043D01*
X112664700Y-59744064D01*
X112644417Y-59950000D01*
X112215583Y-59950000D01*
X112195300Y-59744066D01*
X112135232Y-59546046D01*
X112037685Y-59363550D01*
X111906410Y-59203590D01*
X111746450Y-59072315D01*
X111563954Y-58974768D01*
X111379068Y-58918684D01*
X111365935Y-58914700D01*
X111160000Y-58894417D01*
X110954064Y-58914700D01*
X110756043Y-58974769D01*
X110573549Y-59072315D01*
X110413590Y-59203589D01*
X110413589Y-59203590D01*
X110282315Y-59363549D01*
X110184769Y-59546043D01*
X110124700Y-59744064D01*
X110104417Y-59950000D01*
X109675583Y-59950000D01*
X109655300Y-59744066D01*
X109595232Y-59546046D01*
X109497685Y-59363550D01*
X109366410Y-59203590D01*
X109206450Y-59072315D01*
X109023954Y-58974768D01*
X108839068Y-58918684D01*
X108825935Y-58914700D01*
X108620000Y-58894417D01*
X108414064Y-58914700D01*
X108216043Y-58974769D01*
X108033549Y-59072315D01*
X107873590Y-59203589D01*
X107873589Y-59203590D01*
X107742315Y-59363549D01*
X107644769Y-59546043D01*
X107584700Y-59744064D01*
X107564417Y-59950000D01*
X107135583Y-59950000D01*
X107115300Y-59744066D01*
X107055232Y-59546046D01*
X106957685Y-59363550D01*
X106826410Y-59203590D01*
X106666450Y-59072315D01*
X106483954Y-58974768D01*
X106299068Y-58918684D01*
X106285935Y-58914700D01*
X106080000Y-58894417D01*
X105874064Y-58914700D01*
X105676043Y-58974769D01*
X105493549Y-59072315D01*
X105333590Y-59203589D01*
X105333589Y-59203590D01*
X105202315Y-59363549D01*
X105104769Y-59546043D01*
X105044700Y-59744064D01*
X105024417Y-59950000D01*
X104595583Y-59950000D01*
X104575300Y-59744066D01*
X104515232Y-59546046D01*
X104417685Y-59363550D01*
X104286410Y-59203590D01*
X104126450Y-59072315D01*
X103943954Y-58974768D01*
X103759068Y-58918684D01*
X103745935Y-58914700D01*
X103540000Y-58894417D01*
X103334064Y-58914700D01*
X103136043Y-58974769D01*
X102953549Y-59072315D01*
X102793590Y-59203589D01*
X102793589Y-59203590D01*
X102662315Y-59363549D01*
X102564769Y-59546043D01*
X102504700Y-59744064D01*
X102484417Y-59950000D01*
X102050500Y-59950000D01*
X102050500Y-59080252D01*
X102038867Y-59021769D01*
X102038294Y-59020912D01*
X102007461Y-58974768D01*
X101994552Y-58955448D01*
X101939532Y-58918684D01*
X101928232Y-58911133D01*
X101928233Y-58911133D01*
X101898989Y-58905316D01*
X101869748Y-58899500D01*
X100130252Y-58899500D01*
X100101010Y-58905316D01*
X100071767Y-58911133D01*
X100005449Y-58955447D01*
X100005447Y-58955449D01*
X99961133Y-59021767D01*
X99949500Y-59080253D01*
X99949500Y-60819746D01*
X99475563Y-60819746D01*
X99503992Y-57496379D01*
X100549500Y-57496379D01*
X100579300Y-57646198D01*
X100579302Y-57646205D01*
X100637760Y-57787336D01*
X100722627Y-57914348D01*
X100722630Y-57914352D01*
X100830648Y-58022370D01*
X100957663Y-58107239D01*
X101098795Y-58165698D01*
X101248620Y-58195500D01*
X101248621Y-58195500D01*
X102451379Y-58195500D01*
X102451380Y-58195500D01*
X102601205Y-58165698D01*
X102742337Y-58107239D01*
X102869352Y-58022370D01*
X102977370Y-57914352D01*
X103062239Y-57787337D01*
X103120698Y-57646205D01*
X103150500Y-57496380D01*
X103150500Y-57491455D01*
X104649500Y-57491455D01*
X104650480Y-57496380D01*
X104677379Y-57631614D01*
X104677381Y-57631620D01*
X104732071Y-57763653D01*
X104811468Y-57882479D01*
X104912521Y-57983532D01*
X105031347Y-58062929D01*
X105163380Y-58117619D01*
X105303545Y-58145500D01*
X105303547Y-58145500D01*
X106396453Y-58145500D01*
X106396455Y-58145500D01*
X106536620Y-58117619D01*
X106668653Y-58062929D01*
X106787479Y-57983532D01*
X106888532Y-57882479D01*
X106967929Y-57763653D01*
X107022619Y-57631620D01*
X107050500Y-57491455D01*
X107050500Y-57348545D01*
X107022619Y-57208380D01*
X106967929Y-57076347D01*
X106888532Y-56957521D01*
X106787479Y-56856468D01*
X106668653Y-56777071D01*
X106668650Y-56777069D01*
X106668649Y-56777069D01*
X106536620Y-56722381D01*
X106536614Y-56722379D01*
X106442752Y-56703709D01*
X106396455Y-56694500D01*
X105303545Y-56694500D01*
X105263810Y-56702403D01*
X105163385Y-56722379D01*
X105163379Y-56722381D01*
X105031350Y-56777069D01*
X104912521Y-56856467D01*
X104912520Y-56856469D01*
X104811469Y-56957520D01*
X104811467Y-56957521D01*
X104732069Y-57076350D01*
X104677381Y-57208379D01*
X104677379Y-57208385D01*
X104654104Y-57325396D01*
X104649500Y-57348545D01*
X104649500Y-57491455D01*
X103150500Y-57491455D01*
X103150500Y-57343620D01*
X103120698Y-57193795D01*
X103062239Y-57052663D01*
X102977370Y-56925648D01*
X102869352Y-56817630D01*
X102809500Y-56777638D01*
X102742336Y-56732760D01*
X102601205Y-56674302D01*
X102601198Y-56674300D01*
X102479030Y-56650000D01*
X102451380Y-56644500D01*
X101248620Y-56644500D01*
X101220970Y-56650000D01*
X101098801Y-56674300D01*
X101098794Y-56674302D01*
X100957663Y-56732760D01*
X100830651Y-56817627D01*
X100722627Y-56925651D01*
X100637760Y-57052663D01*
X100579302Y-57193794D01*
X100579300Y-57193801D01*
X100549500Y-57343620D01*
X100549500Y-57496379D01*
X99503992Y-57496379D01*
X99512572Y-56493366D01*
X99534693Y-56441228D01*
X99586569Y-56420000D01*
X106450002Y-56420000D01*
X106506322Y-56417657D01*
X106536694Y-56405736D01*
X106611174Y-56376505D01*
X106693744Y-56299890D01*
X106737524Y-56208979D01*
X122526503Y-56208979D01*
X122546984Y-56351433D01*
X122546984Y-56351434D01*
X122546985Y-56351436D01*
X122587992Y-56441228D01*
X122606773Y-56482352D01*
X122701018Y-56591118D01*
X122701019Y-56591119D01*
X122701022Y-56591122D01*
X122822097Y-56668932D01*
X122909175Y-56694500D01*
X122960185Y-56709478D01*
X122960187Y-56709479D01*
X122960189Y-56709479D01*
X123104113Y-56709479D01*
X123104114Y-56709478D01*
X123242203Y-56668932D01*
X123363278Y-56591122D01*
X123433554Y-56510018D01*
X123484200Y-56484668D01*
X123489479Y-56484479D01*
X123832521Y-56484479D01*
X123884847Y-56506153D01*
X123888437Y-56510009D01*
X123958722Y-56591122D01*
X124079797Y-56668932D01*
X124166875Y-56694500D01*
X124217885Y-56709478D01*
X124217887Y-56709479D01*
X124217889Y-56709479D01*
X124361813Y-56709479D01*
X124361814Y-56709478D01*
X124499903Y-56668932D01*
X124620978Y-56591122D01*
X124715227Y-56482352D01*
X124775015Y-56351436D01*
X124795497Y-56208979D01*
X124775015Y-56066522D01*
X124715227Y-55935606D01*
X124656783Y-55868157D01*
X124620981Y-55826839D01*
X124620979Y-55826838D01*
X124620978Y-55826836D01*
X124509918Y-55755462D01*
X124499904Y-55749026D01*
X124499900Y-55749025D01*
X124361814Y-55708479D01*
X124361811Y-55708479D01*
X124217889Y-55708479D01*
X124217886Y-55708479D01*
X124079799Y-55749025D01*
X124079795Y-55749026D01*
X123958725Y-55826834D01*
X123958722Y-55826836D01*
X123888445Y-55907939D01*
X123837800Y-55933290D01*
X123832521Y-55933479D01*
X123489479Y-55933479D01*
X123437153Y-55911805D01*
X123433562Y-55907948D01*
X123363278Y-55826836D01*
X123252218Y-55755462D01*
X123242204Y-55749026D01*
X123242200Y-55749025D01*
X123104114Y-55708479D01*
X123104111Y-55708479D01*
X122960189Y-55708479D01*
X122960186Y-55708479D01*
X122822099Y-55749025D01*
X122822095Y-55749026D01*
X122701025Y-55826834D01*
X122701018Y-55826839D01*
X122606773Y-55935605D01*
X122546984Y-56066524D01*
X122526503Y-56208979D01*
X106737524Y-56208979D01*
X106742616Y-56198405D01*
X106751034Y-56086081D01*
X106717832Y-55978445D01*
X106647602Y-55890380D01*
X106647600Y-55890379D01*
X106647599Y-55890377D01*
X106643128Y-55887542D01*
X106629495Y-55868157D01*
X106556211Y-55846248D01*
X106533004Y-55834545D01*
X106456561Y-55777197D01*
X106437151Y-55755462D01*
X106433374Y-55749026D01*
X106388792Y-55673064D01*
X106379771Y-55648649D01*
X106372358Y-55607232D01*
X106371200Y-55594194D01*
X106371200Y-55005921D01*
X107685781Y-55005921D01*
X107706262Y-55148375D01*
X107706262Y-55148376D01*
X107706263Y-55148378D01*
X107752625Y-55249896D01*
X107766051Y-55279294D01*
X107860296Y-55388060D01*
X107860297Y-55388061D01*
X107860300Y-55388064D01*
X107918468Y-55425446D01*
X107967476Y-55456942D01*
X107981375Y-55465874D01*
X108062132Y-55489586D01*
X108119463Y-55506420D01*
X108119465Y-55506421D01*
X108119467Y-55506421D01*
X108263391Y-55506421D01*
X108263392Y-55506420D01*
X108401481Y-55465874D01*
X108522556Y-55388064D01*
X108592832Y-55306960D01*
X108643478Y-55281610D01*
X108648757Y-55281421D01*
X109712050Y-55281421D01*
X109712052Y-55281421D01*
X109813310Y-55239478D01*
X109890809Y-55161979D01*
X109890808Y-55161979D01*
X109925769Y-55127018D01*
X109925768Y-55127018D01*
X111587632Y-53465157D01*
X111620753Y-53385194D01*
X111649110Y-53351262D01*
X111685202Y-53328069D01*
X111693910Y-53318020D01*
X111721162Y-53286569D01*
X111779451Y-53219299D01*
X111839239Y-53088383D01*
X111859721Y-52945926D01*
X111839239Y-52803469D01*
X111779451Y-52672553D01*
X111733509Y-52619533D01*
X111685205Y-52563786D01*
X111685203Y-52563785D01*
X111685202Y-52563783D01*
X111590351Y-52502826D01*
X111564128Y-52485973D01*
X111564124Y-52485972D01*
X111426038Y-52445426D01*
X111426035Y-52445426D01*
X111282113Y-52445426D01*
X111282110Y-52445426D01*
X111144023Y-52485972D01*
X111144019Y-52485973D01*
X111022949Y-52563781D01*
X111022942Y-52563786D01*
X110928697Y-52672552D01*
X110868908Y-52803471D01*
X110848427Y-52945926D01*
X110868908Y-53088380D01*
X110868908Y-53088381D01*
X110868909Y-53088383D01*
X110889970Y-53134500D01*
X110928697Y-53219299D01*
X110941870Y-53234502D01*
X110959754Y-53288241D01*
X110938269Y-53335286D01*
X110635875Y-53637681D01*
X110583549Y-53659355D01*
X110531223Y-53637681D01*
X110516237Y-53616098D01*
X110475377Y-53526627D01*
X110431215Y-53475661D01*
X110381131Y-53417860D01*
X110381129Y-53417859D01*
X110381128Y-53417857D01*
X110297168Y-53363899D01*
X110260054Y-53340047D01*
X110260050Y-53340046D01*
X110121964Y-53299500D01*
X110121961Y-53299500D01*
X109978039Y-53299500D01*
X109978036Y-53299500D01*
X109839949Y-53340046D01*
X109839945Y-53340047D01*
X109726814Y-53412753D01*
X109686807Y-53424500D01*
X108962748Y-53424500D01*
X108910422Y-53402826D01*
X108901001Y-53389264D01*
X108900172Y-53389798D01*
X108897310Y-53385346D01*
X108897308Y-53385344D01*
X108897308Y-53385343D01*
X108822925Y-53299500D01*
X108803062Y-53276576D01*
X108803060Y-53276575D01*
X108803059Y-53276573D01*
X108707326Y-53215049D01*
X108681985Y-53198763D01*
X108681981Y-53198762D01*
X108543895Y-53158216D01*
X108543892Y-53158216D01*
X108399970Y-53158216D01*
X108399967Y-53158216D01*
X108261880Y-53198762D01*
X108261876Y-53198763D01*
X108140806Y-53276571D01*
X108140799Y-53276576D01*
X108046554Y-53385342D01*
X107986765Y-53516261D01*
X107966284Y-53658716D01*
X107986765Y-53801170D01*
X107986765Y-53801171D01*
X107986766Y-53801173D01*
X108042465Y-53923135D01*
X108046554Y-53932089D01*
X108140799Y-54040855D01*
X108140800Y-54040856D01*
X108140803Y-54040859D01*
X108230515Y-54098513D01*
X108258854Y-54116726D01*
X108261878Y-54118669D01*
X108346793Y-54143602D01*
X108399966Y-54159215D01*
X108399968Y-54159216D01*
X108399970Y-54159216D01*
X108543894Y-54159216D01*
X108543895Y-54159215D01*
X108563730Y-54153391D01*
X108681984Y-54118669D01*
X108803059Y-54040859D01*
X108837561Y-54001041D01*
X108888207Y-53975689D01*
X108893487Y-53975500D01*
X109532368Y-53975500D01*
X109584694Y-53997174D01*
X109599680Y-54018758D01*
X109624622Y-54073372D01*
X109718868Y-54182139D01*
X109718869Y-54182140D01*
X109718872Y-54182143D01*
X109839947Y-54259953D01*
X109854519Y-54264231D01*
X109898618Y-54299766D01*
X109904674Y-54356079D01*
X109885997Y-54387559D01*
X109564811Y-54708747D01*
X109512485Y-54730421D01*
X108648757Y-54730421D01*
X108596431Y-54708747D01*
X108592840Y-54704890D01*
X108522556Y-54623778D01*
X108448845Y-54576407D01*
X108401482Y-54545968D01*
X108401478Y-54545967D01*
X108263392Y-54505421D01*
X108263389Y-54505421D01*
X108119467Y-54505421D01*
X108119464Y-54505421D01*
X107981377Y-54545967D01*
X107981373Y-54545968D01*
X107860303Y-54623776D01*
X107860296Y-54623781D01*
X107766051Y-54732547D01*
X107706262Y-54863466D01*
X107685781Y-55005921D01*
X106371200Y-55005921D01*
X106371200Y-49512362D01*
X107653968Y-49512362D01*
X107674449Y-49654817D01*
X107674449Y-49654818D01*
X107674450Y-49654820D01*
X107701486Y-49714020D01*
X107734238Y-49785736D01*
X107828483Y-49894502D01*
X107828484Y-49894503D01*
X107828487Y-49894506D01*
X107921089Y-49954017D01*
X107935778Y-49963458D01*
X107949562Y-49972316D01*
X108040216Y-49998934D01*
X108087650Y-50012862D01*
X108087652Y-50012863D01*
X108236869Y-50012863D01*
X108236869Y-50015270D01*
X108283802Y-50027236D01*
X108291798Y-50034162D01*
X109282274Y-51024638D01*
X109303948Y-51076964D01*
X109297262Y-51107703D01*
X109278978Y-51147741D01*
X109258497Y-51290195D01*
X109278978Y-51432649D01*
X109278978Y-51432650D01*
X109278979Y-51432652D01*
X109287881Y-51452144D01*
X109289485Y-51455656D01*
X109291506Y-51512257D01*
X109252913Y-51553710D01*
X109243021Y-51557399D01*
X109199947Y-51570046D01*
X109199945Y-51570048D01*
X109074419Y-51650718D01*
X109072823Y-51648235D01*
X109028151Y-51663050D01*
X108981185Y-51641570D01*
X108853344Y-51513729D01*
X108831670Y-51461403D01*
X108832422Y-51450883D01*
X108841738Y-51386091D01*
X108821256Y-51243634D01*
X108761468Y-51112718D01*
X108715746Y-51059952D01*
X108667222Y-51003951D01*
X108667220Y-51003950D01*
X108667219Y-51003948D01*
X108579549Y-50947606D01*
X108546145Y-50926138D01*
X108546141Y-50926137D01*
X108408055Y-50885591D01*
X108408052Y-50885591D01*
X108264130Y-50885591D01*
X108264127Y-50885591D01*
X108126040Y-50926137D01*
X108126036Y-50926138D01*
X108004966Y-51003946D01*
X108004959Y-51003951D01*
X107910714Y-51112717D01*
X107850925Y-51243636D01*
X107830444Y-51386091D01*
X107850925Y-51528545D01*
X107850925Y-51528546D01*
X107850926Y-51528548D01*
X107909653Y-51657140D01*
X107910714Y-51659464D01*
X108004959Y-51768230D01*
X108004960Y-51768231D01*
X108004963Y-51768234D01*
X108066747Y-51807940D01*
X108118881Y-51841445D01*
X108126038Y-51846044D01*
X108229579Y-51876446D01*
X108264126Y-51886590D01*
X108264128Y-51886591D01*
X108413345Y-51886591D01*
X108413345Y-51888997D01*
X108460282Y-51900966D01*
X108468275Y-51907890D01*
X108746443Y-52186058D01*
X108823942Y-52263557D01*
X108925200Y-52305500D01*
X108952671Y-52305500D01*
X109004997Y-52327174D01*
X109008587Y-52331030D01*
X109078872Y-52412143D01*
X109199947Y-52489953D01*
X109256050Y-52506426D01*
X109338035Y-52530499D01*
X109338037Y-52530500D01*
X109338039Y-52530500D01*
X109481963Y-52530500D01*
X109481964Y-52530499D01*
X109492018Y-52527547D01*
X109620053Y-52489953D01*
X109741128Y-52412143D01*
X109835377Y-52303373D01*
X109895165Y-52172457D01*
X109915647Y-52030000D01*
X109895165Y-51887543D01*
X109884658Y-51864538D01*
X109882636Y-51807940D01*
X109921228Y-51766486D01*
X109931124Y-51762795D01*
X109934949Y-51761672D01*
X109974197Y-51750148D01*
X110095272Y-51672338D01*
X110189521Y-51563568D01*
X110196006Y-51549366D01*
X110237455Y-51510772D01*
X110294056Y-51512791D01*
X110319242Y-51531643D01*
X110368872Y-51588919D01*
X110489947Y-51666729D01*
X110578932Y-51692857D01*
X110628035Y-51707275D01*
X110628037Y-51707276D01*
X110628039Y-51707276D01*
X110771963Y-51707276D01*
X110771964Y-51707275D01*
X110910053Y-51666729D01*
X111031128Y-51588919D01*
X111125377Y-51480149D01*
X111185165Y-51349233D01*
X111205647Y-51206776D01*
X111185165Y-51064319D01*
X111125377Y-50933403D01*
X111044571Y-50840147D01*
X111031131Y-50824636D01*
X111031129Y-50824635D01*
X111031128Y-50824633D01*
X111031122Y-50824629D01*
X111009492Y-50810728D01*
X110977191Y-50764205D01*
X110975500Y-50748476D01*
X110975500Y-50465175D01*
X110997174Y-50412849D01*
X111028653Y-50394172D01*
X111060053Y-50384953D01*
X111181128Y-50307143D01*
X111275377Y-50198373D01*
X111335165Y-50067457D01*
X111355647Y-49925000D01*
X111335165Y-49782543D01*
X111275377Y-49651627D01*
X111222418Y-49590508D01*
X111181131Y-49542860D01*
X111181129Y-49542859D01*
X111181128Y-49542857D01*
X111086660Y-49482146D01*
X111060054Y-49465047D01*
X111060050Y-49465046D01*
X110921964Y-49424500D01*
X110921961Y-49424500D01*
X110778039Y-49424500D01*
X110778036Y-49424500D01*
X110639949Y-49465046D01*
X110639945Y-49465047D01*
X110518875Y-49542855D01*
X110518868Y-49542860D01*
X110424623Y-49651626D01*
X110364834Y-49782545D01*
X110344353Y-49925000D01*
X110364834Y-50067454D01*
X110364834Y-50067455D01*
X110364835Y-50067457D01*
X110416286Y-50180117D01*
X110417813Y-50183460D01*
X110424500Y-50214201D01*
X110424500Y-50748476D01*
X110402826Y-50800802D01*
X110390508Y-50810728D01*
X110368877Y-50824629D01*
X110368868Y-50824636D01*
X110274621Y-50933404D01*
X110268136Y-50947606D01*
X110226684Y-50986200D01*
X110170083Y-50984177D01*
X110144898Y-50965324D01*
X110095275Y-50908055D01*
X110095273Y-50908054D01*
X110095272Y-50908052D01*
X110017735Y-50858222D01*
X109974198Y-50830242D01*
X109974196Y-50830241D01*
X109840717Y-50791048D01*
X109809240Y-50772372D01*
X108676868Y-49640001D01*
X108655194Y-49587675D01*
X108655946Y-49577155D01*
X108665262Y-49512363D01*
X108644780Y-49369906D01*
X108584992Y-49238990D01*
X108522319Y-49166661D01*
X108490746Y-49130223D01*
X108490744Y-49130222D01*
X108490743Y-49130220D01*
X108433797Y-49093623D01*
X108369669Y-49052410D01*
X108369665Y-49052409D01*
X108231579Y-49011863D01*
X108231576Y-49011863D01*
X108087654Y-49011863D01*
X108087651Y-49011863D01*
X107949564Y-49052409D01*
X107949560Y-49052410D01*
X107828490Y-49130218D01*
X107828483Y-49130223D01*
X107734238Y-49238989D01*
X107674449Y-49369908D01*
X107653968Y-49512362D01*
X106371200Y-49512362D01*
X106371200Y-48006206D01*
X106372364Y-47993135D01*
X106373486Y-47986877D01*
X106379696Y-47952282D01*
X106388707Y-47927906D01*
X106436494Y-47846475D01*
X106455899Y-47824742D01*
X106531421Y-47768075D01*
X106554624Y-47756371D01*
X106600703Y-47742590D01*
X106606628Y-47740818D01*
X106619161Y-47727657D01*
X106647604Y-47709620D01*
X106717834Y-47621554D01*
X106751035Y-47513918D01*
X106742618Y-47401593D01*
X106693745Y-47300108D01*
X106611174Y-47223493D01*
X106506320Y-47182341D01*
X106506319Y-47182340D01*
X106450004Y-47180000D01*
X106450000Y-47180000D01*
X99586545Y-47180000D01*
X99534219Y-47158326D01*
X99512548Y-47106658D01*
X99510939Y-46925699D01*
X99504990Y-46256380D01*
X100549500Y-46256380D01*
X100549732Y-46257545D01*
X100579300Y-46406198D01*
X100579302Y-46406205D01*
X100637760Y-46547336D01*
X100721976Y-46673373D01*
X100722630Y-46674352D01*
X100830648Y-46782370D01*
X100957663Y-46867239D01*
X101098795Y-46925698D01*
X101248620Y-46955500D01*
X101248621Y-46955500D01*
X102451379Y-46955500D01*
X102451380Y-46955500D01*
X102601205Y-46925698D01*
X102742337Y-46867239D01*
X102869352Y-46782370D01*
X102977370Y-46674352D01*
X103062239Y-46547337D01*
X103120698Y-46406205D01*
X103150500Y-46256380D01*
X103150500Y-46251455D01*
X104649500Y-46251455D01*
X104658709Y-46297752D01*
X104677379Y-46391614D01*
X104677381Y-46391620D01*
X104732071Y-46523653D01*
X104754716Y-46557543D01*
X104805506Y-46633557D01*
X104811468Y-46642479D01*
X104912521Y-46743532D01*
X105031347Y-46822929D01*
X105163380Y-46877619D01*
X105303545Y-46905500D01*
X105303547Y-46905500D01*
X106396453Y-46905500D01*
X106396455Y-46905500D01*
X106536620Y-46877619D01*
X106668653Y-46822929D01*
X106787479Y-46743532D01*
X106888532Y-46642479D01*
X106967929Y-46523653D01*
X107022619Y-46391620D01*
X107050500Y-46251455D01*
X107050500Y-46108545D01*
X107022619Y-45968380D01*
X106967929Y-45836347D01*
X106888532Y-45717521D01*
X106787479Y-45616468D01*
X106668653Y-45537071D01*
X106668650Y-45537069D01*
X106668649Y-45537069D01*
X106536620Y-45482381D01*
X106536614Y-45482379D01*
X106442752Y-45463709D01*
X106396455Y-45454500D01*
X105303545Y-45454500D01*
X105263810Y-45462403D01*
X105163385Y-45482379D01*
X105163379Y-45482381D01*
X105031350Y-45537069D01*
X104912521Y-45616467D01*
X104912520Y-45616469D01*
X104811469Y-45717520D01*
X104811467Y-45717521D01*
X104732069Y-45836350D01*
X104677381Y-45968379D01*
X104677379Y-45968385D01*
X104656340Y-46074157D01*
X104649500Y-46108545D01*
X104649500Y-46251455D01*
X103150500Y-46251455D01*
X103150500Y-46103620D01*
X103120698Y-45953795D01*
X103062239Y-45812663D01*
X102977370Y-45685648D01*
X102869352Y-45577630D01*
X102869348Y-45577627D01*
X102742336Y-45492760D01*
X102601205Y-45434302D01*
X102601198Y-45434300D01*
X102488328Y-45411849D01*
X102451380Y-45404500D01*
X101248620Y-45404500D01*
X101218981Y-45410395D01*
X101098801Y-45434300D01*
X101098794Y-45434302D01*
X100957663Y-45492760D01*
X100830651Y-45577627D01*
X100722627Y-45685651D01*
X100637760Y-45812663D01*
X100579302Y-45953794D01*
X100579300Y-45953801D01*
X100552916Y-46086446D01*
X100549500Y-46103620D01*
X100549500Y-46256380D01*
X99504990Y-46256380D01*
X99503480Y-46086444D01*
X99485823Y-44100000D01*
X99669363Y-44100000D01*
X99726566Y-44313483D01*
X99726571Y-44313494D01*
X99826401Y-44527579D01*
X99961888Y-44721075D01*
X100128924Y-44888111D01*
X100322420Y-45023598D01*
X100536505Y-45123428D01*
X100536508Y-45123430D01*
X100750000Y-45180634D01*
X100750000Y-44283012D01*
X100807007Y-44315925D01*
X100934174Y-44350000D01*
X101065826Y-44350000D01*
X101192993Y-44315925D01*
X101250000Y-44283012D01*
X101250000Y-45180634D01*
X101463491Y-45123430D01*
X101463494Y-45123428D01*
X101677579Y-45023598D01*
X101871075Y-44888111D01*
X102038111Y-44721075D01*
X102173598Y-44527579D01*
X102202933Y-44464673D01*
X102244691Y-44426410D01*
X102301274Y-44428880D01*
X102337067Y-44464673D01*
X102366401Y-44527579D01*
X102501888Y-44721075D01*
X102668924Y-44888111D01*
X102862420Y-45023598D01*
X103076505Y-45123428D01*
X103076508Y-45123430D01*
X103290000Y-45180634D01*
X103290000Y-44283012D01*
X103347007Y-44315925D01*
X103474174Y-44350000D01*
X103605826Y-44350000D01*
X103732993Y-44315925D01*
X103790000Y-44283012D01*
X103790000Y-45180634D01*
X104003491Y-45123430D01*
X104003494Y-45123428D01*
X104217579Y-45023598D01*
X104411075Y-44888111D01*
X104578111Y-44721075D01*
X104713598Y-44527579D01*
X104813428Y-44313494D01*
X104813433Y-44313483D01*
X104874568Y-44085325D01*
X104874569Y-44085318D01*
X104886604Y-43947758D01*
X104912755Y-43897520D01*
X104966771Y-43880489D01*
X105017009Y-43906640D01*
X105033966Y-43946953D01*
X105044700Y-44055935D01*
X105058067Y-44100000D01*
X105104768Y-44253954D01*
X105202315Y-44436450D01*
X105333590Y-44596410D01*
X105493550Y-44727685D01*
X105676046Y-44825232D01*
X105874066Y-44885300D01*
X106080000Y-44905583D01*
X106285934Y-44885300D01*
X106483954Y-44825232D01*
X106666450Y-44727685D01*
X106826410Y-44596410D01*
X106957685Y-44436450D01*
X107055232Y-44253954D01*
X107115300Y-44055934D01*
X107135583Y-43850000D01*
X107564417Y-43850000D01*
X107584700Y-44055935D01*
X107598067Y-44100000D01*
X107644768Y-44253954D01*
X107742315Y-44436450D01*
X107873590Y-44596410D01*
X108033550Y-44727685D01*
X108216046Y-44825232D01*
X108414066Y-44885300D01*
X108620000Y-44905583D01*
X108825934Y-44885300D01*
X109023954Y-44825232D01*
X109206450Y-44727685D01*
X109366410Y-44596410D01*
X109497685Y-44436450D01*
X109595232Y-44253954D01*
X109655300Y-44055934D01*
X109675583Y-43850000D01*
X110104417Y-43850000D01*
X110124700Y-44055935D01*
X110138067Y-44100000D01*
X110184768Y-44253954D01*
X110282315Y-44436450D01*
X110413590Y-44596410D01*
X110573550Y-44727685D01*
X110756046Y-44825232D01*
X110954066Y-44885300D01*
X111160000Y-44905583D01*
X111365934Y-44885300D01*
X111563954Y-44825232D01*
X111633936Y-44787825D01*
X111690300Y-44782273D01*
X111721145Y-44800760D01*
X113553942Y-46633558D01*
X113655200Y-46675500D01*
X114192671Y-46675500D01*
X114244997Y-46697174D01*
X114248587Y-46701030D01*
X114318872Y-46782143D01*
X114439947Y-46859953D01*
X114546403Y-46891211D01*
X114578035Y-46900499D01*
X114578037Y-46900500D01*
X114578039Y-46900500D01*
X114721963Y-46900500D01*
X114721964Y-46900499D01*
X114860053Y-46859953D01*
X114981128Y-46782143D01*
X115052305Y-46700000D01*
X119144353Y-46700000D01*
X119164834Y-46842454D01*
X119164834Y-46842455D01*
X119164835Y-46842457D01*
X119200530Y-46920618D01*
X119224623Y-46973373D01*
X119318868Y-47082139D01*
X119318869Y-47082140D01*
X119318872Y-47082143D01*
X119439947Y-47159953D01*
X119546403Y-47191211D01*
X119578035Y-47200499D01*
X119578037Y-47200500D01*
X119578039Y-47200500D01*
X119721962Y-47200500D01*
X119767314Y-47187183D01*
X119857307Y-47160759D01*
X119913619Y-47166813D01*
X119949157Y-47210912D01*
X119951402Y-47242291D01*
X119942709Y-47302760D01*
X119963190Y-47445215D01*
X119963190Y-47445216D01*
X119963191Y-47445218D01*
X119994566Y-47513918D01*
X120022979Y-47576134D01*
X120117224Y-47684900D01*
X120117225Y-47684901D01*
X120117228Y-47684904D01*
X120204232Y-47740818D01*
X120218519Y-47750000D01*
X120238303Y-47762714D01*
X120344759Y-47793972D01*
X120376391Y-47803260D01*
X120376393Y-47803261D01*
X120376395Y-47803261D01*
X120520319Y-47803261D01*
X120520320Y-47803260D01*
X120658409Y-47762714D01*
X120779484Y-47684904D01*
X120849760Y-47603800D01*
X120900406Y-47578450D01*
X120905685Y-47578261D01*
X121382994Y-47578261D01*
X121435320Y-47599935D01*
X122807745Y-48972361D01*
X122829419Y-49024687D01*
X122828666Y-49035217D01*
X122819353Y-49099999D01*
X122819353Y-49100000D01*
X122821863Y-49117457D01*
X122839834Y-49242454D01*
X122839834Y-49242455D01*
X122839835Y-49242457D01*
X122853836Y-49273115D01*
X122899623Y-49373373D01*
X122993868Y-49482139D01*
X122993869Y-49482140D01*
X122993872Y-49482143D01*
X122993877Y-49482146D01*
X123003371Y-49488248D01*
X123035672Y-49534771D01*
X123025615Y-49590508D01*
X122979092Y-49622809D01*
X122963363Y-49624500D01*
X122816103Y-49624500D01*
X122763777Y-49602826D01*
X122742856Y-49561032D01*
X122735165Y-49507545D01*
X122735165Y-49507543D01*
X122675377Y-49376627D01*
X122585684Y-49273115D01*
X122581131Y-49267860D01*
X122581129Y-49267859D01*
X122581128Y-49267857D01*
X122522128Y-49229940D01*
X122460054Y-49190047D01*
X122460050Y-49190046D01*
X122321964Y-49149500D01*
X122321961Y-49149500D01*
X122178039Y-49149500D01*
X122178036Y-49149500D01*
X122039949Y-49190046D01*
X122039945Y-49190047D01*
X121918875Y-49267855D01*
X121918868Y-49267860D01*
X121824623Y-49376626D01*
X121764834Y-49507545D01*
X121744353Y-49650000D01*
X121764834Y-49792454D01*
X121764834Y-49792455D01*
X121764835Y-49792457D01*
X121794072Y-49856477D01*
X121824623Y-49923373D01*
X121918868Y-50032139D01*
X121918869Y-50032140D01*
X121918872Y-50032143D01*
X121973822Y-50067457D01*
X122033937Y-50106091D01*
X122039947Y-50109953D01*
X122107711Y-50129850D01*
X122178035Y-50150499D01*
X122178037Y-50150500D01*
X122178039Y-50150500D01*
X122321959Y-50150500D01*
X122321961Y-50150500D01*
X122333709Y-50147050D01*
X122382877Y-50149684D01*
X122445200Y-50175500D01*
X123612825Y-50175500D01*
X123665151Y-50197174D01*
X123686825Y-50249500D01*
X123680130Y-50280258D01*
X123679673Y-50281258D01*
X123638210Y-50319841D01*
X123612368Y-50324500D01*
X121627329Y-50324500D01*
X121575003Y-50302826D01*
X121571412Y-50298969D01*
X121501128Y-50217857D01*
X121407237Y-50157517D01*
X121380054Y-50140047D01*
X121380050Y-50140046D01*
X121241964Y-50099500D01*
X121241961Y-50099500D01*
X121098039Y-50099500D01*
X121098036Y-50099500D01*
X120959949Y-50140046D01*
X120959945Y-50140047D01*
X120838875Y-50217855D01*
X120838868Y-50217860D01*
X120744623Y-50326626D01*
X120684834Y-50457545D01*
X120664353Y-50600000D01*
X120684834Y-50742454D01*
X120684834Y-50742455D01*
X120684835Y-50742457D01*
X120737704Y-50858222D01*
X120744623Y-50873373D01*
X120838868Y-50982139D01*
X120838869Y-50982140D01*
X120838872Y-50982143D01*
X120959947Y-51059953D01*
X121066403Y-51091211D01*
X121098035Y-51100499D01*
X121098037Y-51100500D01*
X121098039Y-51100500D01*
X121241963Y-51100500D01*
X121241964Y-51100499D01*
X121380053Y-51059953D01*
X121501128Y-50982143D01*
X121571404Y-50901039D01*
X121622050Y-50875689D01*
X121627329Y-50875500D01*
X123766807Y-50875500D01*
X123806814Y-50887247D01*
X123900734Y-50947606D01*
X123919947Y-50959953D01*
X124009337Y-50986200D01*
X124058035Y-51000499D01*
X124058037Y-51000500D01*
X124058039Y-51000500D01*
X124201963Y-51000500D01*
X124201964Y-51000499D01*
X124340053Y-50959953D01*
X124461128Y-50882143D01*
X124555377Y-50773373D01*
X124615165Y-50642457D01*
X124635647Y-50500000D01*
X124615165Y-50357543D01*
X124559984Y-50236716D01*
X124557964Y-50180117D01*
X124596557Y-50138664D01*
X124627298Y-50131977D01*
X124865717Y-50131977D01*
X124918043Y-50153651D01*
X124921633Y-50157507D01*
X124991918Y-50238620D01*
X125084520Y-50298131D01*
X125098543Y-50307144D01*
X125112993Y-50316430D01*
X125219449Y-50347688D01*
X125251081Y-50356976D01*
X125251083Y-50356977D01*
X125251085Y-50356977D01*
X125395009Y-50356977D01*
X125395010Y-50356976D01*
X125409144Y-50352826D01*
X125533099Y-50316430D01*
X125654174Y-50238620D01*
X125748423Y-50129850D01*
X125808211Y-49998934D01*
X125828693Y-49856477D01*
X125808211Y-49714020D01*
X125748423Y-49583104D01*
X125690283Y-49516006D01*
X125672398Y-49462267D01*
X125697750Y-49411621D01*
X125706193Y-49405300D01*
X125781128Y-49357143D01*
X125875377Y-49248373D01*
X125935165Y-49117457D01*
X125955647Y-48975000D01*
X125935165Y-48832543D01*
X125907235Y-48771385D01*
X126631853Y-48771385D01*
X126652334Y-48913839D01*
X126712123Y-49044758D01*
X126806368Y-49153524D01*
X126806369Y-49153525D01*
X126806372Y-49153528D01*
X126898974Y-49213039D01*
X126925271Y-49229940D01*
X126927447Y-49231338D01*
X127033348Y-49262433D01*
X127065535Y-49271884D01*
X127065537Y-49271885D01*
X127065539Y-49271885D01*
X127209462Y-49271885D01*
X127241651Y-49262433D01*
X127262265Y-49256380D01*
X127318577Y-49262433D01*
X127335440Y-49275056D01*
X127525431Y-49465047D01*
X127703629Y-49643244D01*
X127725303Y-49695570D01*
X127707229Y-49744029D01*
X127630536Y-49832538D01*
X127570747Y-49963458D01*
X127550266Y-50105913D01*
X127570747Y-50248367D01*
X127570747Y-50248368D01*
X127570748Y-50248370D01*
X127599365Y-50311031D01*
X127630536Y-50379286D01*
X127724781Y-50488052D01*
X127724782Y-50488053D01*
X127724785Y-50488056D01*
X127845860Y-50565866D01*
X127936030Y-50592342D01*
X127983948Y-50606412D01*
X127983950Y-50606413D01*
X127983952Y-50606413D01*
X128127876Y-50606413D01*
X128127877Y-50606412D01*
X128265966Y-50565866D01*
X128387041Y-50488056D01*
X128481290Y-50379286D01*
X128541078Y-50248370D01*
X128561560Y-50105913D01*
X128541078Y-49963456D01*
X128481290Y-49832540D01*
X128446556Y-49792454D01*
X128387044Y-49723773D01*
X128387042Y-49723772D01*
X128387041Y-49723770D01*
X128371870Y-49714020D01*
X128365405Y-49709865D01*
X128333104Y-49663342D01*
X128331413Y-49647613D01*
X128331413Y-49551113D01*
X128315362Y-49512363D01*
X128314843Y-49511111D01*
X128289472Y-49449857D01*
X128289470Y-49449854D01*
X127730588Y-48890972D01*
X133689181Y-48890972D01*
X133709662Y-49033426D01*
X133709662Y-49033427D01*
X133709663Y-49033429D01*
X133753868Y-49130223D01*
X133769451Y-49164345D01*
X133863696Y-49273111D01*
X133863697Y-49273112D01*
X133863700Y-49273115D01*
X133984775Y-49350925D01*
X134061227Y-49373373D01*
X134122863Y-49391471D01*
X134122865Y-49391472D01*
X134122867Y-49391472D01*
X134266791Y-49391472D01*
X134266792Y-49391471D01*
X134404881Y-49350925D01*
X134525956Y-49273115D01*
X134596232Y-49192011D01*
X134646878Y-49166661D01*
X134652157Y-49166472D01*
X136457618Y-49166472D01*
X136509944Y-49188146D01*
X136530865Y-49229940D01*
X136536829Y-49271422D01*
X136536829Y-49271423D01*
X136536830Y-49271425D01*
X136573137Y-49350925D01*
X136596618Y-49402341D01*
X136690863Y-49511107D01*
X136690864Y-49511108D01*
X136690867Y-49511111D01*
X136759840Y-49555437D01*
X136802890Y-49583104D01*
X136811942Y-49588921D01*
X136896704Y-49613809D01*
X136950030Y-49629467D01*
X136950032Y-49629468D01*
X136950034Y-49629468D01*
X137093958Y-49629468D01*
X137093959Y-49629467D01*
X137232048Y-49588921D01*
X137353123Y-49511111D01*
X137447372Y-49402341D01*
X137507160Y-49271425D01*
X137527642Y-49128968D01*
X137507160Y-48986511D01*
X137447372Y-48855595D01*
X137378944Y-48776624D01*
X137353126Y-48746828D01*
X137353124Y-48746827D01*
X137353123Y-48746825D01*
X137296177Y-48710228D01*
X137232049Y-48669015D01*
X137232045Y-48669014D01*
X137093959Y-48628468D01*
X137093956Y-48628468D01*
X136950034Y-48628468D01*
X136950033Y-48628468D01*
X136928346Y-48634835D01*
X136879182Y-48632199D01*
X136838799Y-48615472D01*
X134652157Y-48615472D01*
X134599831Y-48593798D01*
X134596240Y-48589941D01*
X134525956Y-48508829D01*
X134469010Y-48472232D01*
X134404882Y-48431019D01*
X134404878Y-48431018D01*
X134266792Y-48390472D01*
X134266789Y-48390472D01*
X134122867Y-48390472D01*
X134122864Y-48390472D01*
X133984777Y-48431018D01*
X133984773Y-48431019D01*
X133863703Y-48508827D01*
X133863696Y-48508832D01*
X133769451Y-48617598D01*
X133709662Y-48748517D01*
X133689181Y-48890972D01*
X127730588Y-48890972D01*
X127664821Y-48825205D01*
X127644653Y-48776515D01*
X127643900Y-48776624D01*
X127643475Y-48773672D01*
X127643147Y-48772879D01*
X127643147Y-48771386D01*
X127639616Y-48746825D01*
X127622665Y-48628928D01*
X127562877Y-48498012D01*
X127504827Y-48431018D01*
X127468631Y-48389245D01*
X127468629Y-48389244D01*
X127468628Y-48389242D01*
X127411682Y-48352645D01*
X127347554Y-48311432D01*
X127347550Y-48311431D01*
X127209464Y-48270885D01*
X127209461Y-48270885D01*
X127065539Y-48270885D01*
X127065536Y-48270885D01*
X126927449Y-48311431D01*
X126927445Y-48311432D01*
X126806375Y-48389240D01*
X126806368Y-48389245D01*
X126712123Y-48498011D01*
X126652334Y-48628930D01*
X126631853Y-48771385D01*
X125907235Y-48771385D01*
X125875377Y-48701627D01*
X125846001Y-48667725D01*
X125781131Y-48592860D01*
X125781129Y-48592859D01*
X125781128Y-48592857D01*
X125769066Y-48585105D01*
X125759492Y-48578952D01*
X125727191Y-48532429D01*
X125725500Y-48516700D01*
X125725500Y-48208299D01*
X125747174Y-48155973D01*
X125759488Y-48146049D01*
X125781128Y-48132143D01*
X125875377Y-48023373D01*
X125935165Y-47892457D01*
X125955647Y-47750000D01*
X125935165Y-47607543D01*
X125875377Y-47476627D01*
X125781128Y-47367857D01*
X125724182Y-47331260D01*
X125660054Y-47290047D01*
X125660050Y-47290046D01*
X125521964Y-47249500D01*
X125521961Y-47249500D01*
X125378039Y-47249500D01*
X125378036Y-47249500D01*
X125239949Y-47290046D01*
X125239945Y-47290047D01*
X125118875Y-47367855D01*
X125118868Y-47367860D01*
X125024623Y-47476626D01*
X124964834Y-47607545D01*
X124944353Y-47750000D01*
X124964834Y-47892454D01*
X124964834Y-47892455D01*
X124964835Y-47892457D01*
X125007956Y-47986877D01*
X125024623Y-48023373D01*
X125118868Y-48132140D01*
X125118869Y-48132141D01*
X125118871Y-48132142D01*
X125118872Y-48132143D01*
X125140507Y-48146046D01*
X125172808Y-48192567D01*
X125174500Y-48208299D01*
X125174500Y-48516700D01*
X125152826Y-48569026D01*
X125140508Y-48578952D01*
X125118877Y-48592853D01*
X125118868Y-48592860D01*
X125024623Y-48701626D01*
X124964834Y-48832545D01*
X124944353Y-48975000D01*
X124964834Y-49117454D01*
X124964834Y-49117455D01*
X124964835Y-49117457D01*
X124987220Y-49166472D01*
X125024623Y-49248373D01*
X125082762Y-49315470D01*
X125100647Y-49369209D01*
X125075295Y-49419855D01*
X125066844Y-49426181D01*
X124991923Y-49474330D01*
X124991917Y-49474335D01*
X124985149Y-49482146D01*
X124921641Y-49555437D01*
X124870996Y-49580788D01*
X124865717Y-49580977D01*
X124455146Y-49580977D01*
X124345546Y-49580977D01*
X124292799Y-49602826D01*
X124254073Y-49618867D01*
X124225754Y-49624500D01*
X123686637Y-49624500D01*
X123634311Y-49602826D01*
X123612637Y-49550500D01*
X123634311Y-49498174D01*
X123646629Y-49488248D01*
X123649533Y-49486381D01*
X123656128Y-49482143D01*
X123750377Y-49373373D01*
X123810165Y-49242457D01*
X123830647Y-49100000D01*
X123810165Y-48957543D01*
X123750377Y-48826627D01*
X123726814Y-48799434D01*
X123656131Y-48717860D01*
X123656129Y-48717859D01*
X123656128Y-48717857D01*
X123578121Y-48667725D01*
X123535054Y-48640047D01*
X123535050Y-48640046D01*
X123396964Y-48599500D01*
X123396961Y-48599500D01*
X123253039Y-48599500D01*
X123247747Y-48599500D01*
X123247747Y-48597102D01*
X123200783Y-48585105D01*
X123192816Y-48578200D01*
X121683820Y-47069205D01*
X121683819Y-47069204D01*
X121683185Y-47068941D01*
X121683184Y-47068940D01*
X121683184Y-47068941D01*
X121582561Y-47027261D01*
X121582560Y-47027261D01*
X120905685Y-47027261D01*
X120853359Y-47005587D01*
X120849768Y-47001730D01*
X120779484Y-46920618D01*
X120712575Y-46877618D01*
X120658410Y-46842808D01*
X120658406Y-46842807D01*
X120520320Y-46802261D01*
X120520317Y-46802261D01*
X120376395Y-46802261D01*
X120241047Y-46842002D01*
X120184734Y-46835947D01*
X120149196Y-46791847D01*
X120146952Y-46760472D01*
X120155647Y-46700000D01*
X120152776Y-46680031D01*
X120166783Y-46625153D01*
X120215492Y-46596253D01*
X120226023Y-46595500D01*
X122050233Y-46595500D01*
X122102559Y-46617174D01*
X122582745Y-47097361D01*
X122604419Y-47149687D01*
X122603666Y-47160217D01*
X122594353Y-47224999D01*
X122614834Y-47367454D01*
X122674623Y-47498373D01*
X122768868Y-47607139D01*
X122768869Y-47607140D01*
X122768872Y-47607143D01*
X122828442Y-47645426D01*
X122889870Y-47684904D01*
X122889947Y-47684953D01*
X122973956Y-47709620D01*
X123028035Y-47725499D01*
X123028037Y-47725500D01*
X123028039Y-47725500D01*
X123171963Y-47725500D01*
X123171964Y-47725499D01*
X123310053Y-47684953D01*
X123431128Y-47607143D01*
X123525377Y-47498373D01*
X123585165Y-47367457D01*
X123605647Y-47225000D01*
X123585165Y-47082543D01*
X123525377Y-46951627D01*
X123461249Y-46877619D01*
X123431131Y-46842860D01*
X123431129Y-46842859D01*
X123431128Y-46842857D01*
X123351755Y-46791847D01*
X123310054Y-46765047D01*
X123310050Y-46765046D01*
X123171964Y-46724500D01*
X123171961Y-46724500D01*
X123028039Y-46724500D01*
X123022747Y-46724500D01*
X123022747Y-46722102D01*
X122975783Y-46710105D01*
X122967816Y-46703200D01*
X122351059Y-46086444D01*
X122351057Y-46086442D01*
X122291742Y-46061873D01*
X122249800Y-46044500D01*
X119975200Y-46044500D01*
X119903598Y-46074157D01*
X119903599Y-46074158D01*
X119873942Y-46086442D01*
X119873936Y-46086446D01*
X119782181Y-46178200D01*
X119729855Y-46199874D01*
X119724621Y-46199500D01*
X119721961Y-46199500D01*
X119578039Y-46199500D01*
X119578036Y-46199500D01*
X119439949Y-46240046D01*
X119439945Y-46240047D01*
X119318875Y-46317855D01*
X119318868Y-46317860D01*
X119224623Y-46426626D01*
X119164834Y-46557545D01*
X119144353Y-46700000D01*
X115052305Y-46700000D01*
X115075377Y-46673373D01*
X115135165Y-46542457D01*
X115155647Y-46400000D01*
X115135165Y-46257543D01*
X115075377Y-46126627D01*
X114981128Y-46017857D01*
X114881455Y-45953801D01*
X114860054Y-45940047D01*
X114860050Y-45940046D01*
X114721964Y-45899500D01*
X114721961Y-45899500D01*
X114578039Y-45899500D01*
X114578036Y-45899500D01*
X114439949Y-45940046D01*
X114439945Y-45940047D01*
X114318875Y-46017855D01*
X114318872Y-46017857D01*
X114248595Y-46098960D01*
X114197950Y-46124311D01*
X114192671Y-46124500D01*
X113854768Y-46124500D01*
X113802442Y-46102826D01*
X112110761Y-44411146D01*
X112089087Y-44358820D01*
X112097825Y-44323936D01*
X112103412Y-44313483D01*
X112135232Y-44253954D01*
X112195300Y-44055934D01*
X112215583Y-43850000D01*
X112644417Y-43850000D01*
X112664700Y-44055935D01*
X112678067Y-44100000D01*
X112724768Y-44253954D01*
X112822315Y-44436450D01*
X112953590Y-44596410D01*
X113113550Y-44727685D01*
X113296046Y-44825232D01*
X113494066Y-44885300D01*
X113700000Y-44905583D01*
X113905934Y-44885300D01*
X114103954Y-44825232D01*
X114173936Y-44787825D01*
X114230300Y-44782273D01*
X114261146Y-44800761D01*
X115093942Y-45633557D01*
X115094452Y-45633898D01*
X115095417Y-45635032D01*
X115099096Y-45638711D01*
X115098800Y-45639006D01*
X115120656Y-45664687D01*
X115124622Y-45673372D01*
X115218868Y-45782139D01*
X115218869Y-45782140D01*
X115218872Y-45782143D01*
X115339947Y-45859953D01*
X115446403Y-45891211D01*
X115478035Y-45900499D01*
X115478037Y-45900500D01*
X115478039Y-45900500D01*
X115621963Y-45900500D01*
X115621964Y-45900499D01*
X115760053Y-45859953D01*
X115881128Y-45782143D01*
X115975377Y-45673373D01*
X116035165Y-45542457D01*
X116055647Y-45400000D01*
X116035165Y-45257543D01*
X115975377Y-45126627D01*
X115881128Y-45017857D01*
X115800872Y-44966279D01*
X115768571Y-44919758D01*
X115768840Y-44918262D01*
X115758299Y-44926914D01*
X115715970Y-44927103D01*
X115621961Y-44899500D01*
X115478039Y-44899500D01*
X115478036Y-44899500D01*
X115339949Y-44940046D01*
X115339941Y-44940049D01*
X115292535Y-44970515D01*
X115236798Y-44980571D01*
X115200203Y-44960588D01*
X114650761Y-44411146D01*
X114629087Y-44358820D01*
X114637825Y-44323936D01*
X114643412Y-44313483D01*
X114675232Y-44253954D01*
X114735300Y-44055934D01*
X114755583Y-43850000D01*
X115184417Y-43850000D01*
X115204700Y-44055935D01*
X115218067Y-44100000D01*
X115264768Y-44253954D01*
X115362315Y-44436450D01*
X115493590Y-44596410D01*
X115653550Y-44727685D01*
X115771701Y-44790839D01*
X115807632Y-44834619D01*
X115806652Y-44844562D01*
X115825150Y-44831719D01*
X115862359Y-44833213D01*
X116034066Y-44885300D01*
X116240000Y-44905583D01*
X116445934Y-44885300D01*
X116643954Y-44825232D01*
X116826450Y-44727685D01*
X116986410Y-44596410D01*
X117117685Y-44436450D01*
X117215232Y-44253954D01*
X117275300Y-44055934D01*
X117295583Y-43850000D01*
X117724417Y-43850000D01*
X117744700Y-44055935D01*
X117758067Y-44100000D01*
X117804768Y-44253954D01*
X117902315Y-44436450D01*
X118033590Y-44596410D01*
X118193550Y-44727685D01*
X118376046Y-44825232D01*
X118574066Y-44885300D01*
X118780000Y-44905583D01*
X118985934Y-44885300D01*
X119183954Y-44825232D01*
X119366450Y-44727685D01*
X119526410Y-44596410D01*
X119657685Y-44436450D01*
X119755232Y-44253954D01*
X119815300Y-44055934D01*
X119835583Y-43850000D01*
X120264417Y-43850000D01*
X120284700Y-44055935D01*
X120298067Y-44100000D01*
X120344768Y-44253954D01*
X120442315Y-44436450D01*
X120573590Y-44596410D01*
X120733550Y-44727685D01*
X120916046Y-44825232D01*
X121114066Y-44885300D01*
X121320000Y-44905583D01*
X121525934Y-44885300D01*
X121723954Y-44825232D01*
X121906450Y-44727685D01*
X122066410Y-44596410D01*
X122197685Y-44436450D01*
X122295232Y-44253954D01*
X122355300Y-44055934D01*
X122375583Y-43850000D01*
X122804417Y-43850000D01*
X122824700Y-44055935D01*
X122838067Y-44100000D01*
X122884768Y-44253954D01*
X122982315Y-44436450D01*
X123113590Y-44596410D01*
X123273550Y-44727685D01*
X123456046Y-44825232D01*
X123654066Y-44885300D01*
X123860000Y-44905583D01*
X124065934Y-44885300D01*
X124263954Y-44825232D01*
X124446450Y-44727685D01*
X124606410Y-44596410D01*
X124737685Y-44436450D01*
X124835232Y-44253954D01*
X124895300Y-44055934D01*
X124915583Y-43850000D01*
X125344417Y-43850000D01*
X125364700Y-44055935D01*
X125378067Y-44100000D01*
X125424768Y-44253954D01*
X125522315Y-44436450D01*
X125653590Y-44596410D01*
X125813550Y-44727685D01*
X125996046Y-44825232D01*
X126194066Y-44885300D01*
X126400000Y-44905583D01*
X126605934Y-44885300D01*
X126803954Y-44825232D01*
X126986450Y-44727685D01*
X127146410Y-44596410D01*
X127277685Y-44436450D01*
X127375232Y-44253954D01*
X127435300Y-44055934D01*
X127455583Y-43850000D01*
X127884417Y-43850000D01*
X127904700Y-44055935D01*
X127918067Y-44100000D01*
X127964768Y-44253954D01*
X128062315Y-44436450D01*
X128193590Y-44596410D01*
X128353550Y-44727685D01*
X128536046Y-44825232D01*
X128734066Y-44885300D01*
X128940000Y-44905583D01*
X129145934Y-44885300D01*
X129343954Y-44825232D01*
X129526450Y-44727685D01*
X129686410Y-44596410D01*
X129817685Y-44436450D01*
X129915232Y-44253954D01*
X129975300Y-44055934D01*
X129995583Y-43850000D01*
X130424417Y-43850000D01*
X130444700Y-44055935D01*
X130458067Y-44100000D01*
X130504768Y-44253954D01*
X130602315Y-44436450D01*
X130733590Y-44596410D01*
X130893550Y-44727685D01*
X131076046Y-44825232D01*
X131274066Y-44885300D01*
X131480000Y-44905583D01*
X131685934Y-44885300D01*
X131883954Y-44825232D01*
X132066450Y-44727685D01*
X132226410Y-44596410D01*
X132357685Y-44436450D01*
X132455232Y-44253954D01*
X132515300Y-44055934D01*
X132535583Y-43850000D01*
X132964417Y-43850000D01*
X132984700Y-44055935D01*
X132998067Y-44100000D01*
X133044768Y-44253954D01*
X133142315Y-44436450D01*
X133273590Y-44596410D01*
X133433550Y-44727685D01*
X133616046Y-44825232D01*
X133814066Y-44885300D01*
X134020000Y-44905583D01*
X134225934Y-44885300D01*
X134423954Y-44825232D01*
X134606450Y-44727685D01*
X134766410Y-44596410D01*
X134897685Y-44436450D01*
X134995232Y-44253954D01*
X135055300Y-44055934D01*
X135075583Y-43850000D01*
X135504417Y-43850000D01*
X135524700Y-44055935D01*
X135538067Y-44100000D01*
X135584768Y-44253954D01*
X135682315Y-44436450D01*
X135813590Y-44596410D01*
X135973550Y-44727685D01*
X136156046Y-44825232D01*
X136354066Y-44885300D01*
X136560000Y-44905583D01*
X136765934Y-44885300D01*
X136963954Y-44825232D01*
X137146450Y-44727685D01*
X137306410Y-44596410D01*
X137437685Y-44436450D01*
X137535232Y-44253954D01*
X137595300Y-44055934D01*
X137615583Y-43850000D01*
X138044417Y-43850000D01*
X138064700Y-44055935D01*
X138078067Y-44100000D01*
X138124768Y-44253954D01*
X138222315Y-44436450D01*
X138353590Y-44596410D01*
X138513550Y-44727685D01*
X138696046Y-44825232D01*
X138894066Y-44885300D01*
X139100000Y-44905583D01*
X139305934Y-44885300D01*
X139503954Y-44825232D01*
X139686450Y-44727685D01*
X139846410Y-44596410D01*
X139977685Y-44436450D01*
X140075232Y-44253954D01*
X140135300Y-44055934D01*
X140155583Y-43850000D01*
X140584417Y-43850000D01*
X140604700Y-44055935D01*
X140618067Y-44100000D01*
X140664768Y-44253954D01*
X140762315Y-44436450D01*
X140893590Y-44596410D01*
X141053550Y-44727685D01*
X141236046Y-44825232D01*
X141434066Y-44885300D01*
X141640000Y-44905583D01*
X141845934Y-44885300D01*
X142043954Y-44825232D01*
X142226450Y-44727685D01*
X142386410Y-44596410D01*
X142517685Y-44436450D01*
X142615232Y-44253954D01*
X142675300Y-44055934D01*
X142695583Y-43850000D01*
X143124417Y-43850000D01*
X143144700Y-44055935D01*
X143158067Y-44100000D01*
X143204768Y-44253954D01*
X143302315Y-44436450D01*
X143433590Y-44596410D01*
X143593550Y-44727685D01*
X143776046Y-44825232D01*
X143974066Y-44885300D01*
X144180000Y-44905583D01*
X144385934Y-44885300D01*
X144583954Y-44825232D01*
X144766450Y-44727685D01*
X144926410Y-44596410D01*
X145057685Y-44436450D01*
X145155232Y-44253954D01*
X145215300Y-44055934D01*
X145235583Y-43850000D01*
X145664417Y-43850000D01*
X145684700Y-44055935D01*
X145698067Y-44100000D01*
X145744768Y-44253954D01*
X145842315Y-44436450D01*
X145973590Y-44596410D01*
X146133550Y-44727685D01*
X146316046Y-44825232D01*
X146514066Y-44885300D01*
X146720000Y-44905583D01*
X146925934Y-44885300D01*
X147123954Y-44825232D01*
X147306450Y-44727685D01*
X147316124Y-44719746D01*
X148209500Y-44719746D01*
X148221133Y-44778232D01*
X148236187Y-44800761D01*
X148265448Y-44844552D01*
X148309560Y-44874027D01*
X148331767Y-44888866D01*
X148331768Y-44888866D01*
X148331769Y-44888867D01*
X148390252Y-44900500D01*
X148390254Y-44900500D01*
X150129746Y-44900500D01*
X150129748Y-44900500D01*
X150188231Y-44888867D01*
X150254552Y-44844552D01*
X150298867Y-44778231D01*
X150310500Y-44719748D01*
X150310500Y-42980252D01*
X150298867Y-42921769D01*
X150254552Y-42855448D01*
X150232343Y-42840608D01*
X150188232Y-42811133D01*
X150188233Y-42811133D01*
X150158989Y-42805316D01*
X150129748Y-42799500D01*
X148390252Y-42799500D01*
X148361010Y-42805316D01*
X148331767Y-42811133D01*
X148265449Y-42855447D01*
X148265447Y-42855449D01*
X148221133Y-42921767D01*
X148209500Y-42980253D01*
X148209500Y-44719746D01*
X147316124Y-44719746D01*
X147466410Y-44596410D01*
X147597685Y-44436450D01*
X147695232Y-44253954D01*
X147755300Y-44055934D01*
X147775583Y-43850000D01*
X147755300Y-43644066D01*
X147695232Y-43446046D01*
X147597685Y-43263550D01*
X147466410Y-43103590D01*
X147306450Y-42972315D01*
X147123954Y-42874768D01*
X147012158Y-42840855D01*
X146925935Y-42814700D01*
X146720000Y-42794417D01*
X146514064Y-42814700D01*
X146316043Y-42874769D01*
X146133549Y-42972315D01*
X145973590Y-43103589D01*
X145973589Y-43103590D01*
X145842315Y-43263549D01*
X145744769Y-43446043D01*
X145684700Y-43644064D01*
X145664417Y-43850000D01*
X145235583Y-43850000D01*
X145215300Y-43644066D01*
X145155232Y-43446046D01*
X145057685Y-43263550D01*
X144926410Y-43103590D01*
X144766450Y-42972315D01*
X144583954Y-42874768D01*
X144472158Y-42840855D01*
X144385935Y-42814700D01*
X144180000Y-42794417D01*
X143974064Y-42814700D01*
X143776043Y-42874769D01*
X143593549Y-42972315D01*
X143433590Y-43103589D01*
X143433589Y-43103590D01*
X143302315Y-43263549D01*
X143204769Y-43446043D01*
X143144700Y-43644064D01*
X143124417Y-43850000D01*
X142695583Y-43850000D01*
X142675300Y-43644066D01*
X142615232Y-43446046D01*
X142517685Y-43263550D01*
X142386410Y-43103590D01*
X142226450Y-42972315D01*
X142043954Y-42874768D01*
X141932158Y-42840855D01*
X141845935Y-42814700D01*
X141640000Y-42794417D01*
X141434064Y-42814700D01*
X141236043Y-42874769D01*
X141053549Y-42972315D01*
X140893590Y-43103589D01*
X140893589Y-43103590D01*
X140762315Y-43263549D01*
X140664769Y-43446043D01*
X140604700Y-43644064D01*
X140584417Y-43850000D01*
X140155583Y-43850000D01*
X140135300Y-43644066D01*
X140075232Y-43446046D01*
X139977685Y-43263550D01*
X139846410Y-43103590D01*
X139686450Y-42972315D01*
X139503954Y-42874768D01*
X139392158Y-42840855D01*
X139305935Y-42814700D01*
X139100000Y-42794417D01*
X138894064Y-42814700D01*
X138696043Y-42874769D01*
X138513549Y-42972315D01*
X138353590Y-43103589D01*
X138353589Y-43103590D01*
X138222315Y-43263549D01*
X138124769Y-43446043D01*
X138064700Y-43644064D01*
X138044417Y-43850000D01*
X137615583Y-43850000D01*
X137595300Y-43644066D01*
X137535232Y-43446046D01*
X137437685Y-43263550D01*
X137306410Y-43103590D01*
X137146450Y-42972315D01*
X136963954Y-42874768D01*
X136852158Y-42840855D01*
X136765935Y-42814700D01*
X136560000Y-42794417D01*
X136354064Y-42814700D01*
X136156043Y-42874769D01*
X135973549Y-42972315D01*
X135813590Y-43103589D01*
X135813589Y-43103590D01*
X135682315Y-43263549D01*
X135584769Y-43446043D01*
X135524700Y-43644064D01*
X135504417Y-43850000D01*
X135075583Y-43850000D01*
X135055300Y-43644066D01*
X134995232Y-43446046D01*
X134897685Y-43263550D01*
X134766410Y-43103590D01*
X134606450Y-42972315D01*
X134423954Y-42874768D01*
X134312158Y-42840855D01*
X134225935Y-42814700D01*
X134020000Y-42794417D01*
X133814064Y-42814700D01*
X133616043Y-42874769D01*
X133433549Y-42972315D01*
X133273590Y-43103589D01*
X133273589Y-43103590D01*
X133142315Y-43263549D01*
X133044769Y-43446043D01*
X132984700Y-43644064D01*
X132964417Y-43850000D01*
X132535583Y-43850000D01*
X132515300Y-43644066D01*
X132455232Y-43446046D01*
X132357685Y-43263550D01*
X132226410Y-43103590D01*
X132066450Y-42972315D01*
X131883954Y-42874768D01*
X131772158Y-42840855D01*
X131685935Y-42814700D01*
X131480000Y-42794417D01*
X131274064Y-42814700D01*
X131076043Y-42874769D01*
X130893549Y-42972315D01*
X130733590Y-43103589D01*
X130733589Y-43103590D01*
X130602315Y-43263549D01*
X130504769Y-43446043D01*
X130444700Y-43644064D01*
X130424417Y-43850000D01*
X129995583Y-43850000D01*
X129975300Y-43644066D01*
X129915232Y-43446046D01*
X129817685Y-43263550D01*
X129686410Y-43103590D01*
X129526450Y-42972315D01*
X129343954Y-42874768D01*
X129232158Y-42840855D01*
X129145935Y-42814700D01*
X128940000Y-42794417D01*
X128734064Y-42814700D01*
X128536043Y-42874769D01*
X128353549Y-42972315D01*
X128193590Y-43103589D01*
X128193589Y-43103590D01*
X128062315Y-43263549D01*
X127964769Y-43446043D01*
X127904700Y-43644064D01*
X127884417Y-43850000D01*
X127455583Y-43850000D01*
X127435300Y-43644066D01*
X127375232Y-43446046D01*
X127277685Y-43263550D01*
X127146410Y-43103590D01*
X126986450Y-42972315D01*
X126803954Y-42874768D01*
X126692158Y-42840855D01*
X126605935Y-42814700D01*
X126400000Y-42794417D01*
X126194064Y-42814700D01*
X125996043Y-42874769D01*
X125813549Y-42972315D01*
X125653590Y-43103589D01*
X125653589Y-43103590D01*
X125522315Y-43263549D01*
X125424769Y-43446043D01*
X125364700Y-43644064D01*
X125344417Y-43850000D01*
X124915583Y-43850000D01*
X124895300Y-43644066D01*
X124835232Y-43446046D01*
X124737685Y-43263550D01*
X124606410Y-43103590D01*
X124446450Y-42972315D01*
X124263954Y-42874768D01*
X124152158Y-42840855D01*
X124065935Y-42814700D01*
X123860000Y-42794417D01*
X123654064Y-42814700D01*
X123456043Y-42874769D01*
X123273549Y-42972315D01*
X123113590Y-43103589D01*
X123113589Y-43103590D01*
X122982315Y-43263549D01*
X122884769Y-43446043D01*
X122824700Y-43644064D01*
X122804417Y-43850000D01*
X122375583Y-43850000D01*
X122355300Y-43644066D01*
X122295232Y-43446046D01*
X122197685Y-43263550D01*
X122066410Y-43103590D01*
X121906450Y-42972315D01*
X121723954Y-42874768D01*
X121612158Y-42840855D01*
X121525935Y-42814700D01*
X121320000Y-42794417D01*
X121114064Y-42814700D01*
X120916043Y-42874769D01*
X120733549Y-42972315D01*
X120573590Y-43103589D01*
X120573589Y-43103590D01*
X120442315Y-43263549D01*
X120344769Y-43446043D01*
X120284700Y-43644064D01*
X120264417Y-43850000D01*
X119835583Y-43850000D01*
X119815300Y-43644066D01*
X119755232Y-43446046D01*
X119657685Y-43263550D01*
X119526410Y-43103590D01*
X119366450Y-42972315D01*
X119183954Y-42874768D01*
X119072158Y-42840855D01*
X118985935Y-42814700D01*
X118780000Y-42794417D01*
X118574064Y-42814700D01*
X118376043Y-42874769D01*
X118193549Y-42972315D01*
X118033590Y-43103589D01*
X118033589Y-43103590D01*
X117902315Y-43263549D01*
X117804769Y-43446043D01*
X117744700Y-43644064D01*
X117724417Y-43850000D01*
X117295583Y-43850000D01*
X117275300Y-43644066D01*
X117215232Y-43446046D01*
X117117685Y-43263550D01*
X116986410Y-43103590D01*
X116826450Y-42972315D01*
X116643954Y-42874768D01*
X116532158Y-42840855D01*
X116445935Y-42814700D01*
X116240000Y-42794417D01*
X116034064Y-42814700D01*
X115836043Y-42874769D01*
X115653549Y-42972315D01*
X115493590Y-43103589D01*
X115493589Y-43103590D01*
X115362315Y-43263549D01*
X115264769Y-43446043D01*
X115204700Y-43644064D01*
X115184417Y-43850000D01*
X114755583Y-43850000D01*
X114735300Y-43644066D01*
X114675232Y-43446046D01*
X114577685Y-43263550D01*
X114446410Y-43103590D01*
X114286450Y-42972315D01*
X114103954Y-42874768D01*
X113992158Y-42840855D01*
X113905935Y-42814700D01*
X113700000Y-42794417D01*
X113494064Y-42814700D01*
X113296043Y-42874769D01*
X113113549Y-42972315D01*
X112953590Y-43103589D01*
X112953589Y-43103590D01*
X112822315Y-43263549D01*
X112724769Y-43446043D01*
X112664700Y-43644064D01*
X112644417Y-43850000D01*
X112215583Y-43850000D01*
X112195300Y-43644066D01*
X112135232Y-43446046D01*
X112037685Y-43263550D01*
X111906410Y-43103590D01*
X111746450Y-42972315D01*
X111563954Y-42874768D01*
X111452158Y-42840855D01*
X111365935Y-42814700D01*
X111160000Y-42794417D01*
X110954064Y-42814700D01*
X110756043Y-42874769D01*
X110573549Y-42972315D01*
X110413590Y-43103589D01*
X110413589Y-43103590D01*
X110282315Y-43263549D01*
X110184769Y-43446043D01*
X110124700Y-43644064D01*
X110104417Y-43850000D01*
X109675583Y-43850000D01*
X109655300Y-43644066D01*
X109595232Y-43446046D01*
X109497685Y-43263550D01*
X109366410Y-43103590D01*
X109206450Y-42972315D01*
X109023954Y-42874768D01*
X108912158Y-42840855D01*
X108825935Y-42814700D01*
X108620000Y-42794417D01*
X108414064Y-42814700D01*
X108216043Y-42874769D01*
X108033549Y-42972315D01*
X107873590Y-43103589D01*
X107873589Y-43103590D01*
X107742315Y-43263549D01*
X107644769Y-43446043D01*
X107584700Y-43644064D01*
X107564417Y-43850000D01*
X107135583Y-43850000D01*
X107115300Y-43644066D01*
X107055232Y-43446046D01*
X106957685Y-43263550D01*
X106826410Y-43103590D01*
X106666450Y-42972315D01*
X106483954Y-42874768D01*
X106372158Y-42840855D01*
X106285935Y-42814700D01*
X106080000Y-42794417D01*
X105874064Y-42814700D01*
X105676043Y-42874769D01*
X105493549Y-42972315D01*
X105333590Y-43103589D01*
X105333589Y-43103590D01*
X105202315Y-43263549D01*
X105104769Y-43446043D01*
X105044700Y-43644064D01*
X105033966Y-43753046D01*
X105007267Y-43802995D01*
X104953068Y-43819436D01*
X104903119Y-43792737D01*
X104886604Y-43752241D01*
X104874569Y-43614681D01*
X104874568Y-43614674D01*
X104813433Y-43386516D01*
X104813428Y-43386505D01*
X104713598Y-43172421D01*
X104578109Y-42978921D01*
X104411075Y-42811888D01*
X104411076Y-42811888D01*
X104217579Y-42676401D01*
X104003494Y-42576571D01*
X104003483Y-42576566D01*
X103790000Y-42519363D01*
X103790000Y-43416988D01*
X103732993Y-43384075D01*
X103605826Y-43350000D01*
X103474174Y-43350000D01*
X103347007Y-43384075D01*
X103290000Y-43416988D01*
X103290000Y-42519363D01*
X103289999Y-42519363D01*
X103076512Y-42576567D01*
X102862421Y-42676401D01*
X102668921Y-42811890D01*
X102501890Y-42978921D01*
X102366400Y-43172421D01*
X102337067Y-43235327D01*
X102295309Y-43273590D01*
X102238726Y-43271120D01*
X102202933Y-43235327D01*
X102173599Y-43172421D01*
X102038109Y-42978921D01*
X101871075Y-42811888D01*
X101871076Y-42811888D01*
X101677579Y-42676401D01*
X101463494Y-42576571D01*
X101463483Y-42576566D01*
X101250000Y-42519363D01*
X101250000Y-43416988D01*
X101192993Y-43384075D01*
X101065826Y-43350000D01*
X100934174Y-43350000D01*
X100807007Y-43384075D01*
X100750000Y-43416988D01*
X100750000Y-42519363D01*
X100749999Y-42519363D01*
X100536512Y-42576567D01*
X100322421Y-42676401D01*
X100128921Y-42811890D01*
X99961890Y-42978921D01*
X99826401Y-43172421D01*
X99726567Y-43386512D01*
X99669363Y-43599999D01*
X99669364Y-43600000D01*
X100566988Y-43600000D01*
X100534075Y-43657007D01*
X100500000Y-43784174D01*
X100500000Y-43915826D01*
X100534075Y-44042993D01*
X100566988Y-44100000D01*
X99669363Y-44100000D01*
X99485823Y-44100000D01*
X99470664Y-42394658D01*
X99491872Y-42342141D01*
X99544003Y-42320003D01*
X99544661Y-42320000D01*
X150716000Y-42320000D01*
X150768326Y-42341674D01*
G37*
%TD.AperFunction*%
%TD*%
%TA.AperFunction,NonConductor*%
G36*
X132032499Y-52372174D02*
G01*
X132036089Y-52376030D01*
X132058628Y-52402041D01*
X132076513Y-52455779D01*
X132051162Y-52506426D01*
X132002702Y-52524500D01*
X131843767Y-52524500D01*
X131791441Y-52502826D01*
X131769767Y-52450500D01*
X131791441Y-52398174D01*
X131817441Y-52372174D01*
X131869767Y-52350500D01*
X131980173Y-52350500D01*
X132032499Y-52372174D01*
G37*
%TD.AperFunction*%
%TA.AperFunction,NonConductor*%
G36*
X127341885Y-53707174D02*
G01*
X127370385Y-53735674D01*
X127392059Y-53788000D01*
X127370385Y-53840326D01*
X127318059Y-53862000D01*
X123854162Y-53862000D01*
X123801836Y-53840326D01*
X123780162Y-53788000D01*
X123780915Y-53777468D01*
X123785013Y-53748968D01*
X123813914Y-53700259D01*
X123858260Y-53685500D01*
X127289559Y-53685500D01*
X127341885Y-53707174D01*
G37*
%TD.AperFunction*%
%TA.AperFunction,NonConductor*%
G36*
X119204447Y-54576407D02*
G01*
X119208047Y-54580274D01*
X119253052Y-54632213D01*
X119270937Y-54685951D01*
X119253052Y-54729131D01*
X119186099Y-54806401D01*
X119135453Y-54831753D01*
X119130173Y-54831942D01*
X114967743Y-54831942D01*
X114915417Y-54810268D01*
X114893743Y-54757942D01*
X114915417Y-54705616D01*
X114927731Y-54695691D01*
X114981128Y-54661376D01*
X115051404Y-54580272D01*
X115102050Y-54554922D01*
X115107329Y-54554733D01*
X119152121Y-54554733D01*
X119204447Y-54576407D01*
G37*
%TD.AperFunction*%
%TA.AperFunction,NonConductor*%
G36*
X114394852Y-54711100D02*
G01*
X114404118Y-54716160D01*
X114432157Y-54734180D01*
X114439947Y-54739186D01*
X114485117Y-54752449D01*
X114560881Y-54774696D01*
X114604981Y-54810234D01*
X114611035Y-54866546D01*
X114592358Y-54898025D01*
X114552181Y-54938201D01*
X114499855Y-54959874D01*
X114494621Y-54959500D01*
X114491961Y-54959500D01*
X114348039Y-54959500D01*
X114348038Y-54959500D01*
X114324792Y-54966325D01*
X114268479Y-54960269D01*
X114232942Y-54916169D01*
X114238998Y-54859856D01*
X114248014Y-54846870D01*
X114255377Y-54838373D01*
X114296800Y-54747670D01*
X114338251Y-54709079D01*
X114394852Y-54711100D01*
G37*
%TD.AperFunction*%
M02*
