M48
; DRILL file {KiCad 8.0.0-rc2-179-gceb8beb8c4} date 2024-02-16T13:13:00+0100
; FORMAT={-:-/ absolute / inch / decimal}
; #@! TF.CreationDate,2024-02-16T13:13:00+01:00
; #@! TF.GenerationSoftware,Kicad,Pcbnew,8.0.0-rc2-179-gceb8beb8c4
; #@! TF.FileFunction,Plated,1,2,PTH
FMAT,2
INCH
; #@! TA.AperFunction,Plated,PTH,ViaDrill
T1C0.0118
; #@! TA.AperFunction,Plated,PTH,ComponentDrill
T2C0.0236
; #@! TA.AperFunction,Plated,PTH,ComponentDrill
T3C0.0394
%
G90
G05
T1
X3.9421Y-1.8039
X3.9421Y-2.2528
X3.9421Y-2.3039
X4.0248Y-1.7724
X4.0287Y-2.3945
X4.0839Y-2.2921
X4.0878Y-2.2528
X4.0917Y-1.8157
X4.1232Y-2.3984
X4.1311Y-1.7724
X4.135Y-1.6898
X4.1783Y-2.3079
X4.1941Y-1.7803
X4.2217Y-2.3945
X4.2256Y-1.6898
X4.2295Y-1.7528
X4.2303Y-1.8642
X4.2323Y-2.2126
X4.2413Y-2.2488
X4.2531Y-1.8039
X4.2583Y-1.9493
X4.2595Y-2.1656
X4.2652Y-2.0231
X4.2705Y-2.1125
X4.2807Y-2.2921
X4.2965Y-1.7764
X4.2965Y-1.8197
X4.3075Y-2.0484
X4.3122Y-1.8394
X4.3201Y-2.2528
X4.3214Y-2.0193
X4.324Y-1.6898
X4.324Y-1.9575
X4.324Y-2.3945
X4.3327Y-2.1181
X4.3476Y-1.9102
X4.3516Y-2.3118
X4.3583Y-2.016
X4.3594Y-2.2134
X4.3594Y-2.2528
X4.3642Y-1.9656
X4.3673Y-1.7921
X4.3673Y-1.8433
X4.3831Y-1.9299
X4.384Y-2.0845
X4.387Y-2.048
X4.4067Y-2.2646
X4.4146Y-1.7921
X4.4185Y-1.863
X4.4264Y-1.6898
X4.4264Y-1.7291
X4.4264Y-1.7488
X4.4264Y-2.3945
X4.4303Y-1.8236
X4.4303Y-2.3276
X4.4815Y-2.1482
X4.4933Y-1.7803
X4.4972Y-2.2685
X4.5039Y-1.9331
X4.5047Y-2.1835
X4.5048Y-2.0384
X4.513Y-1.6898
X4.5138Y-1.8268
X4.5138Y-2.137
X4.5406Y-1.7606
X4.5492Y-1.7874
X4.5776Y-2.0502
X4.5886Y-1.8917
X4.6063Y-2.0373
X4.6154Y-1.7646
X4.624Y-2.3917
X4.6272Y-1.7055
X4.633Y-2.1053
X4.639Y-1.7646
X4.6587Y-1.8472
X4.6696Y-2.0591
X4.6705Y-1.9969
X4.6823Y-1.8748
X4.6831Y-2.2047
X4.6862Y-1.8551
X4.699Y-2.0441
X4.7049Y-1.8955
X4.7082Y-2.1696
X4.71Y-2.1381
X4.7106Y-1.8386
X4.7138Y-1.8669
X4.7138Y-2.0992
X4.7146Y-1.9941
X4.7256Y-1.7055
X4.7256Y-1.7409
X4.7295Y-2.3394
X4.7295Y-2.3945
X4.7382Y-1.9193
X4.7413Y-2.048
X4.7413Y-2.1346
X4.7421Y-1.8623
X4.7571Y-1.7764
X4.7705Y-1.9921
X4.7717Y-2.0748
X4.7768Y-1.8433
X4.7886Y-2.1228
X4.7925Y-1.7764
X4.813Y-1.9547
X4.828Y-1.7055
X4.828Y-1.7409
X4.828Y-2.3433
X4.828Y-2.3827
X4.8413Y-2.1585
X4.8425Y-2.2657
X4.8438Y-2.213
X4.8465Y-1.8593
X4.8539Y-2.1132
X4.8553Y-1.9331
X4.887Y-1.9882
X4.8933Y-2.213
X4.8947Y-2.0801
X4.9256Y-2.0087
X4.9264Y-1.7055
X4.9264Y-1.7449
X4.934Y-1.9629
X4.939Y-1.8799
X4.939Y-1.9281
X4.9421Y-2.2252
X4.9993Y-2.2303
X5.0054Y-1.9201
X5.0287Y-1.7055
X5.0287Y-1.7449
X5.0287Y-2.3906
X5.033Y-2.1316
X5.0334Y-2.0861
X5.0416Y-1.9727
X5.0445Y-2.1657
X5.0487Y-2.0391
X5.0512Y-1.7972
X5.0551Y-2.2795
X5.072Y-2.1583
X5.0827Y-2.0138
X5.0827Y-2.1102
X5.1147Y-2.162
X5.1232Y-2.3945
X5.1272Y-1.7094
X5.1272Y-1.7409
X5.1272Y-2.3472
X5.1469Y-1.8079
X5.1587Y-1.7764
X5.1587Y-2.2685
X5.1587Y-2.3079
X5.1654Y-2.1594
X5.1811Y-2.0138
X5.1811Y-2.1122
X5.198Y-1.7764
X5.2059Y-2.2921
X5.2141Y-2.0187
X5.2141Y-2.0502
X5.2217Y-1.7488
X5.2256Y-1.7094
X5.2256Y-2.3945
X5.2299Y-2.1346
X5.2302Y-1.9819
X5.2303Y-2.1021
X5.2453Y-2.3118
X5.2492Y-1.7882
X5.261Y-2.2134
X5.2833Y-1.9248
X5.3043Y-1.8157
X5.3043Y-2.2921
X5.3091Y-1.878
X5.3169Y-2.0106
X5.324Y-2.3118
X5.324Y-2.3945
X5.328Y-1.7094
X5.3437Y-2.2921
X5.3772Y-2.1162
X5.3946Y-1.9342
X5.4028Y-2.2724
X5.41Y-1.9617
X5.4134Y-1.8169
X5.4224Y-2.3118
X5.4264Y-1.7094
X5.4264Y-1.7449
X5.4264Y-2.3945
X5.4331Y-2.126
X5.4331Y-2.2047
X5.4421Y-2.2724
X5.4579Y-1.7764
X5.4823Y-1.8189
X5.5012Y-2.2724
X5.5063Y-1.9811
X5.5069Y-2.0148
X5.5118Y-2.126
X5.5118Y-2.2047
X5.5209Y-2.3118
X5.5248Y-1.7016
X5.5287Y-2.3945
X5.5406Y-2.2724
X5.5524Y-1.7764
X5.5878Y-1.8512
X5.5906Y-1.9685
X5.5906Y-2.0472
X5.5906Y-2.126
X5.5906Y-2.2047
X5.5996Y-1.7764
X5.6193Y-2.3315
X5.6193Y-2.3945
X5.6272Y-1.7016
X5.6547Y-1.8
X5.6693Y-1.8898
X5.6693Y-1.9685
X5.6693Y-2.0472
X5.6693Y-2.126
X5.6693Y-2.2047
X5.6693Y-2.2835
X5.7374Y-1.6858
X5.748Y-1.811
X5.748Y-1.8898
X5.748Y-1.9685
X5.748Y-2.0472
X5.748Y-2.126
X5.748Y-2.2047
X5.748Y-2.2835
X5.8201Y-1.6937
X5.8268Y-1.811
X5.8268Y-1.8898
X5.8268Y-1.9685
X5.8268Y-2.0472
X5.8268Y-2.126
X5.8268Y-2.2047
X5.8268Y-2.2835
X5.9055Y-1.811
X5.9055Y-1.8898
X5.9055Y-1.9685
X5.9055Y-2.0472
X5.9055Y-2.126
X5.9055Y-2.2047
X5.9055Y-2.2835
T3
X3.9764Y-1.7264
X3.9764Y-2.3602
X4.0764Y-1.7264
X4.0764Y-2.3602
X4.1764Y-1.7264
X4.1764Y-2.3602
X4.2764Y-1.7264
X4.2764Y-2.3602
X4.3764Y-1.7264
X4.3764Y-2.3602
X4.4764Y-1.7264
X4.4764Y-2.3602
X4.5764Y-1.7264
X4.5764Y-2.3602
X4.6764Y-1.7264
X4.6764Y-2.3602
X4.7764Y-1.7264
X4.7764Y-2.3602
X4.8764Y-1.7264
X4.8764Y-2.3602
X4.9764Y-1.7264
X4.9764Y-2.3602
X5.0764Y-1.7264
X5.0764Y-2.3602
X5.1764Y-1.7264
X5.1764Y-2.3602
X5.2764Y-1.7264
X5.2764Y-2.3602
X5.3764Y-1.7264
X5.3764Y-2.3602
X5.4764Y-1.7264
X5.4764Y-2.3602
X5.5764Y-1.7264
X5.5764Y-2.3602
X5.6764Y-1.7264
X5.6764Y-2.3602
X5.7764Y-1.7264
X5.7764Y-2.3602
X5.8764Y-1.7264
X5.8764Y-2.3602
T2
G00X4.0335Y-1.8181
M15
G01X3.9862Y-1.8181
M16
G05
G00X4.0335Y-2.2606
M15
G01X3.9862Y-2.2606
M16
G05
G00X4.1831Y-1.8181
M15
G01X4.1516Y-1.8181
M16
G05
G00X4.1831Y-2.2606
M15
G01X4.1516Y-2.2606
M16
G05
M30
