%TF.GenerationSoftware,KiCad,Pcbnew,8.0.0-rc2-179-gceb8beb8c4*%
%TF.CreationDate,2024-02-16T13:12:57+01:00*%
%TF.ProjectId,CAT_MEP,4341545f-4d45-4502-9e6b-696361645f70,rev?*%
%TF.SameCoordinates,Original*%
%TF.FileFunction,Soldermask,Bot*%
%TF.FilePolarity,Negative*%
%FSLAX46Y46*%
G04 Gerber Fmt 4.6, Leading zero omitted, Abs format (unit mm)*
G04 Created by KiCad (PCBNEW 8.0.0-rc2-179-gceb8beb8c4) date 2024-02-16 13:12:57*
%MOMM*%
%LPD*%
G01*
G04 APERTURE LIST*
%ADD10O,2.000000X1.050000*%
%ADD11O,2.200000X1.150000*%
%ADD12C,1.000000*%
%ADD13R,1.700000X1.700000*%
%ADD14O,1.700000X1.700000*%
G04 APERTURE END LIST*
D10*
%TO.C,J1*%
X105850000Y-46180000D03*
D11*
X101850000Y-46180000D03*
D10*
X105850000Y-57420000D03*
D11*
X101850000Y-57420000D03*
%TD*%
D12*
%TO.C,J4*%
X119851000Y-56209000D03*
X124931000Y-55193000D03*
X124931000Y-57225000D03*
%TD*%
D13*
%TO.C,J2*%
X149260000Y-43850000D03*
D14*
X146720000Y-43850000D03*
X144180000Y-43850000D03*
X141640000Y-43850000D03*
X139100000Y-43850000D03*
X136560000Y-43850000D03*
X134020000Y-43850000D03*
X131480000Y-43850000D03*
X128940000Y-43850000D03*
X126400000Y-43850000D03*
X123860000Y-43850000D03*
X121320000Y-43850000D03*
X118780000Y-43850000D03*
X116240000Y-43850000D03*
X113700000Y-43850000D03*
X111160000Y-43850000D03*
X108620000Y-43850000D03*
X106080000Y-43850000D03*
X103540000Y-43850000D03*
X101000000Y-43850000D03*
%TD*%
D13*
%TO.C,J3*%
X101000000Y-59950000D03*
D14*
X103540000Y-59950000D03*
X106080000Y-59950000D03*
X108620000Y-59950000D03*
X111160000Y-59950000D03*
X113700000Y-59950000D03*
X116240000Y-59950000D03*
X118780000Y-59950000D03*
X121320000Y-59950000D03*
X123860000Y-59950000D03*
X126400000Y-59950000D03*
X128940000Y-59950000D03*
X131480000Y-59950000D03*
X134020000Y-59950000D03*
X136560000Y-59950000D03*
X139100000Y-59950000D03*
X141640000Y-59950000D03*
X144180000Y-59950000D03*
X146720000Y-59950000D03*
X149260000Y-59950000D03*
%TD*%
M02*
