%TF.GenerationSoftware,KiCad,Pcbnew,8.0.0-rc2-179-gceb8beb8c4*%
%TF.CreationDate,2024-02-16T13:12:57+01:00*%
%TF.ProjectId,CAT_MEP,4341545f-4d45-4502-9e6b-696361645f70,rev?*%
%TF.SameCoordinates,Original*%
%TF.FileFunction,Legend,Bot*%
%TF.FilePolarity,Positive*%
%FSLAX46Y46*%
G04 Gerber Fmt 4.6, Leading zero omitted, Abs format (unit mm)*
G04 Created by KiCad (PCBNEW 8.0.0-rc2-179-gceb8beb8c4) date 2024-02-16 13:12:57*
%MOMM*%
%LPD*%
G01*
G04 APERTURE LIST*
%ADD10C,0.200000*%
G04 APERTURE END LIST*
D10*
X149522231Y-56023740D02*
X149255564Y-56823740D01*
X149255564Y-56823740D02*
X148988898Y-56023740D01*
X148417469Y-56785645D02*
X148493660Y-56823740D01*
X148493660Y-56823740D02*
X148646041Y-56823740D01*
X148646041Y-56823740D02*
X148722231Y-56785645D01*
X148722231Y-56785645D02*
X148760327Y-56709454D01*
X148760327Y-56709454D02*
X148760327Y-56404692D01*
X148760327Y-56404692D02*
X148722231Y-56328502D01*
X148722231Y-56328502D02*
X148646041Y-56290406D01*
X148646041Y-56290406D02*
X148493660Y-56290406D01*
X148493660Y-56290406D02*
X148417469Y-56328502D01*
X148417469Y-56328502D02*
X148379374Y-56404692D01*
X148379374Y-56404692D02*
X148379374Y-56480883D01*
X148379374Y-56480883D02*
X148760327Y-56557073D01*
X148036517Y-56823740D02*
X148036517Y-56290406D01*
X148036517Y-56442787D02*
X147998422Y-56366597D01*
X147998422Y-56366597D02*
X147960327Y-56328502D01*
X147960327Y-56328502D02*
X147884136Y-56290406D01*
X147884136Y-56290406D02*
X147807946Y-56290406D01*
X147579375Y-56785645D02*
X147503184Y-56823740D01*
X147503184Y-56823740D02*
X147350803Y-56823740D01*
X147350803Y-56823740D02*
X147274613Y-56785645D01*
X147274613Y-56785645D02*
X147236517Y-56709454D01*
X147236517Y-56709454D02*
X147236517Y-56671359D01*
X147236517Y-56671359D02*
X147274613Y-56595168D01*
X147274613Y-56595168D02*
X147350803Y-56557073D01*
X147350803Y-56557073D02*
X147465089Y-56557073D01*
X147465089Y-56557073D02*
X147541279Y-56518978D01*
X147541279Y-56518978D02*
X147579375Y-56442787D01*
X147579375Y-56442787D02*
X147579375Y-56404692D01*
X147579375Y-56404692D02*
X147541279Y-56328502D01*
X147541279Y-56328502D02*
X147465089Y-56290406D01*
X147465089Y-56290406D02*
X147350803Y-56290406D01*
X147350803Y-56290406D02*
X147274613Y-56328502D01*
X146893660Y-56823740D02*
X146893660Y-56290406D01*
X146893660Y-56023740D02*
X146931756Y-56061835D01*
X146931756Y-56061835D02*
X146893660Y-56099930D01*
X146893660Y-56099930D02*
X146855565Y-56061835D01*
X146855565Y-56061835D02*
X146893660Y-56023740D01*
X146893660Y-56023740D02*
X146893660Y-56099930D01*
X146398423Y-56823740D02*
X146474613Y-56785645D01*
X146474613Y-56785645D02*
X146512708Y-56747549D01*
X146512708Y-56747549D02*
X146550804Y-56671359D01*
X146550804Y-56671359D02*
X146550804Y-56442787D01*
X146550804Y-56442787D02*
X146512708Y-56366597D01*
X146512708Y-56366597D02*
X146474613Y-56328502D01*
X146474613Y-56328502D02*
X146398423Y-56290406D01*
X146398423Y-56290406D02*
X146284137Y-56290406D01*
X146284137Y-56290406D02*
X146207946Y-56328502D01*
X146207946Y-56328502D02*
X146169851Y-56366597D01*
X146169851Y-56366597D02*
X146131756Y-56442787D01*
X146131756Y-56442787D02*
X146131756Y-56671359D01*
X146131756Y-56671359D02*
X146169851Y-56747549D01*
X146169851Y-56747549D02*
X146207946Y-56785645D01*
X146207946Y-56785645D02*
X146284137Y-56823740D01*
X146284137Y-56823740D02*
X146398423Y-56823740D01*
X145788898Y-56290406D02*
X145788898Y-56823740D01*
X145788898Y-56366597D02*
X145750803Y-56328502D01*
X145750803Y-56328502D02*
X145674613Y-56290406D01*
X145674613Y-56290406D02*
X145560327Y-56290406D01*
X145560327Y-56290406D02*
X145484136Y-56328502D01*
X145484136Y-56328502D02*
X145446041Y-56404692D01*
X145446041Y-56404692D02*
X145446041Y-56823740D01*
X145065088Y-56747549D02*
X145026993Y-56785645D01*
X145026993Y-56785645D02*
X145065088Y-56823740D01*
X145065088Y-56823740D02*
X145103184Y-56785645D01*
X145103184Y-56785645D02*
X145065088Y-56747549D01*
X145065088Y-56747549D02*
X145065088Y-56823740D01*
X145065088Y-56328502D02*
X145026993Y-56366597D01*
X145026993Y-56366597D02*
X145065088Y-56404692D01*
X145065088Y-56404692D02*
X145103184Y-56366597D01*
X145103184Y-56366597D02*
X145065088Y-56328502D01*
X145065088Y-56328502D02*
X145065088Y-56404692D01*
X143655565Y-56823740D02*
X144112708Y-56823740D01*
X143884136Y-56823740D02*
X143884136Y-56023740D01*
X143884136Y-56023740D02*
X143960327Y-56138025D01*
X143960327Y-56138025D02*
X144036517Y-56214216D01*
X144036517Y-56214216D02*
X144112708Y-56252311D01*
X143312707Y-56747549D02*
X143274612Y-56785645D01*
X143274612Y-56785645D02*
X143312707Y-56823740D01*
X143312707Y-56823740D02*
X143350803Y-56785645D01*
X143350803Y-56785645D02*
X143312707Y-56747549D01*
X143312707Y-56747549D02*
X143312707Y-56823740D01*
X142779374Y-56023740D02*
X142703184Y-56023740D01*
X142703184Y-56023740D02*
X142626993Y-56061835D01*
X142626993Y-56061835D02*
X142588898Y-56099930D01*
X142588898Y-56099930D02*
X142550803Y-56176121D01*
X142550803Y-56176121D02*
X142512708Y-56328502D01*
X142512708Y-56328502D02*
X142512708Y-56518978D01*
X142512708Y-56518978D02*
X142550803Y-56671359D01*
X142550803Y-56671359D02*
X142588898Y-56747549D01*
X142588898Y-56747549D02*
X142626993Y-56785645D01*
X142626993Y-56785645D02*
X142703184Y-56823740D01*
X142703184Y-56823740D02*
X142779374Y-56823740D01*
X142779374Y-56823740D02*
X142855565Y-56785645D01*
X142855565Y-56785645D02*
X142893660Y-56747549D01*
X142893660Y-56747549D02*
X142931755Y-56671359D01*
X142931755Y-56671359D02*
X142969851Y-56518978D01*
X142969851Y-56518978D02*
X142969851Y-56328502D01*
X142969851Y-56328502D02*
X142931755Y-56176121D01*
X142931755Y-56176121D02*
X142893660Y-56099930D01*
X142893660Y-56099930D02*
X142855565Y-56061835D01*
X142855565Y-56061835D02*
X142779374Y-56023740D01*
X141331755Y-57128502D02*
X141369850Y-57090406D01*
X141369850Y-57090406D02*
X141446041Y-56976121D01*
X141446041Y-56976121D02*
X141484136Y-56899930D01*
X141484136Y-56899930D02*
X141522231Y-56785645D01*
X141522231Y-56785645D02*
X141560326Y-56595168D01*
X141560326Y-56595168D02*
X141560326Y-56442787D01*
X141560326Y-56442787D02*
X141522231Y-56252311D01*
X141522231Y-56252311D02*
X141484136Y-56138025D01*
X141484136Y-56138025D02*
X141446041Y-56061835D01*
X141446041Y-56061835D02*
X141369850Y-55947549D01*
X141369850Y-55947549D02*
X141331755Y-55909454D01*
X140607946Y-56823740D02*
X141065089Y-56823740D01*
X140836517Y-56823740D02*
X140836517Y-56023740D01*
X140836517Y-56023740D02*
X140912708Y-56138025D01*
X140912708Y-56138025D02*
X140988898Y-56214216D01*
X140988898Y-56214216D02*
X141065089Y-56252311D01*
X139922231Y-56023740D02*
X140074612Y-56023740D01*
X140074612Y-56023740D02*
X140150803Y-56061835D01*
X140150803Y-56061835D02*
X140188898Y-56099930D01*
X140188898Y-56099930D02*
X140265088Y-56214216D01*
X140265088Y-56214216D02*
X140303184Y-56366597D01*
X140303184Y-56366597D02*
X140303184Y-56671359D01*
X140303184Y-56671359D02*
X140265088Y-56747549D01*
X140265088Y-56747549D02*
X140226993Y-56785645D01*
X140226993Y-56785645D02*
X140150803Y-56823740D01*
X140150803Y-56823740D02*
X139998422Y-56823740D01*
X139998422Y-56823740D02*
X139922231Y-56785645D01*
X139922231Y-56785645D02*
X139884136Y-56747549D01*
X139884136Y-56747549D02*
X139846041Y-56671359D01*
X139846041Y-56671359D02*
X139846041Y-56480883D01*
X139846041Y-56480883D02*
X139884136Y-56404692D01*
X139884136Y-56404692D02*
X139922231Y-56366597D01*
X139922231Y-56366597D02*
X139998422Y-56328502D01*
X139998422Y-56328502D02*
X140150803Y-56328502D01*
X140150803Y-56328502D02*
X140226993Y-56366597D01*
X140226993Y-56366597D02*
X140265088Y-56404692D01*
X140265088Y-56404692D02*
X140303184Y-56480883D01*
X139503183Y-56747549D02*
X139465088Y-56785645D01*
X139465088Y-56785645D02*
X139503183Y-56823740D01*
X139503183Y-56823740D02*
X139541279Y-56785645D01*
X139541279Y-56785645D02*
X139503183Y-56747549D01*
X139503183Y-56747549D02*
X139503183Y-56823740D01*
X138969850Y-56023740D02*
X138893660Y-56023740D01*
X138893660Y-56023740D02*
X138817469Y-56061835D01*
X138817469Y-56061835D02*
X138779374Y-56099930D01*
X138779374Y-56099930D02*
X138741279Y-56176121D01*
X138741279Y-56176121D02*
X138703184Y-56328502D01*
X138703184Y-56328502D02*
X138703184Y-56518978D01*
X138703184Y-56518978D02*
X138741279Y-56671359D01*
X138741279Y-56671359D02*
X138779374Y-56747549D01*
X138779374Y-56747549D02*
X138817469Y-56785645D01*
X138817469Y-56785645D02*
X138893660Y-56823740D01*
X138893660Y-56823740D02*
X138969850Y-56823740D01*
X138969850Y-56823740D02*
X139046041Y-56785645D01*
X139046041Y-56785645D02*
X139084136Y-56747549D01*
X139084136Y-56747549D02*
X139122231Y-56671359D01*
X139122231Y-56671359D02*
X139160327Y-56518978D01*
X139160327Y-56518978D02*
X139160327Y-56328502D01*
X139160327Y-56328502D02*
X139122231Y-56176121D01*
X139122231Y-56176121D02*
X139084136Y-56099930D01*
X139084136Y-56099930D02*
X139046041Y-56061835D01*
X139046041Y-56061835D02*
X138969850Y-56023740D01*
X138398422Y-56099930D02*
X138360326Y-56061835D01*
X138360326Y-56061835D02*
X138284136Y-56023740D01*
X138284136Y-56023740D02*
X138093660Y-56023740D01*
X138093660Y-56023740D02*
X138017469Y-56061835D01*
X138017469Y-56061835D02*
X137979374Y-56099930D01*
X137979374Y-56099930D02*
X137941279Y-56176121D01*
X137941279Y-56176121D02*
X137941279Y-56252311D01*
X137941279Y-56252311D02*
X137979374Y-56366597D01*
X137979374Y-56366597D02*
X138436517Y-56823740D01*
X138436517Y-56823740D02*
X137941279Y-56823740D01*
X137598421Y-56747549D02*
X137560326Y-56785645D01*
X137560326Y-56785645D02*
X137598421Y-56823740D01*
X137598421Y-56823740D02*
X137636517Y-56785645D01*
X137636517Y-56785645D02*
X137598421Y-56747549D01*
X137598421Y-56747549D02*
X137598421Y-56823740D01*
X137255565Y-56099930D02*
X137217469Y-56061835D01*
X137217469Y-56061835D02*
X137141279Y-56023740D01*
X137141279Y-56023740D02*
X136950803Y-56023740D01*
X136950803Y-56023740D02*
X136874612Y-56061835D01*
X136874612Y-56061835D02*
X136836517Y-56099930D01*
X136836517Y-56099930D02*
X136798422Y-56176121D01*
X136798422Y-56176121D02*
X136798422Y-56252311D01*
X136798422Y-56252311D02*
X136836517Y-56366597D01*
X136836517Y-56366597D02*
X137293660Y-56823740D01*
X137293660Y-56823740D02*
X136798422Y-56823740D01*
X136303183Y-56023740D02*
X136226993Y-56023740D01*
X136226993Y-56023740D02*
X136150802Y-56061835D01*
X136150802Y-56061835D02*
X136112707Y-56099930D01*
X136112707Y-56099930D02*
X136074612Y-56176121D01*
X136074612Y-56176121D02*
X136036517Y-56328502D01*
X136036517Y-56328502D02*
X136036517Y-56518978D01*
X136036517Y-56518978D02*
X136074612Y-56671359D01*
X136074612Y-56671359D02*
X136112707Y-56747549D01*
X136112707Y-56747549D02*
X136150802Y-56785645D01*
X136150802Y-56785645D02*
X136226993Y-56823740D01*
X136226993Y-56823740D02*
X136303183Y-56823740D01*
X136303183Y-56823740D02*
X136379374Y-56785645D01*
X136379374Y-56785645D02*
X136417469Y-56747549D01*
X136417469Y-56747549D02*
X136455564Y-56671359D01*
X136455564Y-56671359D02*
X136493660Y-56518978D01*
X136493660Y-56518978D02*
X136493660Y-56328502D01*
X136493660Y-56328502D02*
X136455564Y-56176121D01*
X136455564Y-56176121D02*
X136417469Y-56099930D01*
X136417469Y-56099930D02*
X136379374Y-56061835D01*
X136379374Y-56061835D02*
X136303183Y-56023740D01*
X135731755Y-56099930D02*
X135693659Y-56061835D01*
X135693659Y-56061835D02*
X135617469Y-56023740D01*
X135617469Y-56023740D02*
X135426993Y-56023740D01*
X135426993Y-56023740D02*
X135350802Y-56061835D01*
X135350802Y-56061835D02*
X135312707Y-56099930D01*
X135312707Y-56099930D02*
X135274612Y-56176121D01*
X135274612Y-56176121D02*
X135274612Y-56252311D01*
X135274612Y-56252311D02*
X135312707Y-56366597D01*
X135312707Y-56366597D02*
X135769850Y-56823740D01*
X135769850Y-56823740D02*
X135274612Y-56823740D01*
X134588897Y-56290406D02*
X134588897Y-56823740D01*
X134779373Y-55985645D02*
X134969850Y-56557073D01*
X134969850Y-56557073D02*
X134474611Y-56557073D01*
X134246040Y-57128502D02*
X134207945Y-57090406D01*
X134207945Y-57090406D02*
X134131754Y-56976121D01*
X134131754Y-56976121D02*
X134093659Y-56899930D01*
X134093659Y-56899930D02*
X134055564Y-56785645D01*
X134055564Y-56785645D02*
X134017468Y-56595168D01*
X134017468Y-56595168D02*
X134017468Y-56442787D01*
X134017468Y-56442787D02*
X134055564Y-56252311D01*
X134055564Y-56252311D02*
X134093659Y-56138025D01*
X134093659Y-56138025D02*
X134131754Y-56061835D01*
X134131754Y-56061835D02*
X134207945Y-55947549D01*
X134207945Y-55947549D02*
X134246040Y-55909454D01*
X149407945Y-58111695D02*
X149407945Y-57311695D01*
X149407945Y-57311695D02*
X149217469Y-57311695D01*
X149217469Y-57311695D02*
X149103183Y-57349790D01*
X149103183Y-57349790D02*
X149026993Y-57425980D01*
X149026993Y-57425980D02*
X148988898Y-57502171D01*
X148988898Y-57502171D02*
X148950802Y-57654552D01*
X148950802Y-57654552D02*
X148950802Y-57768838D01*
X148950802Y-57768838D02*
X148988898Y-57921219D01*
X148988898Y-57921219D02*
X149026993Y-57997409D01*
X149026993Y-57997409D02*
X149103183Y-58073600D01*
X149103183Y-58073600D02*
X149217469Y-58111695D01*
X149217469Y-58111695D02*
X149407945Y-58111695D01*
X148265088Y-58111695D02*
X148265088Y-57692647D01*
X148265088Y-57692647D02*
X148303183Y-57616457D01*
X148303183Y-57616457D02*
X148379374Y-57578361D01*
X148379374Y-57578361D02*
X148531755Y-57578361D01*
X148531755Y-57578361D02*
X148607945Y-57616457D01*
X148265088Y-58073600D02*
X148341279Y-58111695D01*
X148341279Y-58111695D02*
X148531755Y-58111695D01*
X148531755Y-58111695D02*
X148607945Y-58073600D01*
X148607945Y-58073600D02*
X148646041Y-57997409D01*
X148646041Y-57997409D02*
X148646041Y-57921219D01*
X148646041Y-57921219D02*
X148607945Y-57845028D01*
X148607945Y-57845028D02*
X148531755Y-57806933D01*
X148531755Y-57806933D02*
X148341279Y-57806933D01*
X148341279Y-57806933D02*
X148265088Y-57768838D01*
X147884135Y-58111695D02*
X147884135Y-57578361D01*
X147884135Y-57730742D02*
X147846040Y-57654552D01*
X147846040Y-57654552D02*
X147807945Y-57616457D01*
X147807945Y-57616457D02*
X147731754Y-57578361D01*
X147731754Y-57578361D02*
X147655564Y-57578361D01*
X147388897Y-58111695D02*
X147388897Y-57578361D01*
X147388897Y-57311695D02*
X147426993Y-57349790D01*
X147426993Y-57349790D02*
X147388897Y-57387885D01*
X147388897Y-57387885D02*
X147350802Y-57349790D01*
X147350802Y-57349790D02*
X147388897Y-57311695D01*
X147388897Y-57311695D02*
X147388897Y-57387885D01*
X146893660Y-58111695D02*
X146969850Y-58073600D01*
X146969850Y-58073600D02*
X147007945Y-58035504D01*
X147007945Y-58035504D02*
X147046041Y-57959314D01*
X147046041Y-57959314D02*
X147046041Y-57730742D01*
X147046041Y-57730742D02*
X147007945Y-57654552D01*
X147007945Y-57654552D02*
X146969850Y-57616457D01*
X146969850Y-57616457D02*
X146893660Y-57578361D01*
X146893660Y-57578361D02*
X146779374Y-57578361D01*
X146779374Y-57578361D02*
X146703183Y-57616457D01*
X146703183Y-57616457D02*
X146665088Y-57654552D01*
X146665088Y-57654552D02*
X146626993Y-57730742D01*
X146626993Y-57730742D02*
X146626993Y-57959314D01*
X146626993Y-57959314D02*
X146665088Y-58035504D01*
X146665088Y-58035504D02*
X146703183Y-58073600D01*
X146703183Y-58073600D02*
X146779374Y-58111695D01*
X146779374Y-58111695D02*
X146893660Y-58111695D01*
X145712707Y-58073600D02*
X145598421Y-58111695D01*
X145598421Y-58111695D02*
X145407945Y-58111695D01*
X145407945Y-58111695D02*
X145331754Y-58073600D01*
X145331754Y-58073600D02*
X145293659Y-58035504D01*
X145293659Y-58035504D02*
X145255564Y-57959314D01*
X145255564Y-57959314D02*
X145255564Y-57883123D01*
X145255564Y-57883123D02*
X145293659Y-57806933D01*
X145293659Y-57806933D02*
X145331754Y-57768838D01*
X145331754Y-57768838D02*
X145407945Y-57730742D01*
X145407945Y-57730742D02*
X145560326Y-57692647D01*
X145560326Y-57692647D02*
X145636516Y-57654552D01*
X145636516Y-57654552D02*
X145674611Y-57616457D01*
X145674611Y-57616457D02*
X145712707Y-57540266D01*
X145712707Y-57540266D02*
X145712707Y-57464076D01*
X145712707Y-57464076D02*
X145674611Y-57387885D01*
X145674611Y-57387885D02*
X145636516Y-57349790D01*
X145636516Y-57349790D02*
X145560326Y-57311695D01*
X145560326Y-57311695D02*
X145369849Y-57311695D01*
X145369849Y-57311695D02*
X145255564Y-57349790D01*
X144569849Y-58073600D02*
X144646040Y-58111695D01*
X144646040Y-58111695D02*
X144798421Y-58111695D01*
X144798421Y-58111695D02*
X144874611Y-58073600D01*
X144874611Y-58073600D02*
X144912706Y-58035504D01*
X144912706Y-58035504D02*
X144950802Y-57959314D01*
X144950802Y-57959314D02*
X144950802Y-57730742D01*
X144950802Y-57730742D02*
X144912706Y-57654552D01*
X144912706Y-57654552D02*
X144874611Y-57616457D01*
X144874611Y-57616457D02*
X144798421Y-57578361D01*
X144798421Y-57578361D02*
X144646040Y-57578361D01*
X144646040Y-57578361D02*
X144569849Y-57616457D01*
X144226992Y-58111695D02*
X144226992Y-57311695D01*
X143884135Y-58111695D02*
X143884135Y-57692647D01*
X143884135Y-57692647D02*
X143922230Y-57616457D01*
X143922230Y-57616457D02*
X143998421Y-57578361D01*
X143998421Y-57578361D02*
X144112707Y-57578361D01*
X144112707Y-57578361D02*
X144188897Y-57616457D01*
X144188897Y-57616457D02*
X144226992Y-57654552D01*
X143198420Y-58073600D02*
X143274611Y-58111695D01*
X143274611Y-58111695D02*
X143426992Y-58111695D01*
X143426992Y-58111695D02*
X143503182Y-58073600D01*
X143503182Y-58073600D02*
X143541278Y-57997409D01*
X143541278Y-57997409D02*
X143541278Y-57692647D01*
X143541278Y-57692647D02*
X143503182Y-57616457D01*
X143503182Y-57616457D02*
X143426992Y-57578361D01*
X143426992Y-57578361D02*
X143274611Y-57578361D01*
X143274611Y-57578361D02*
X143198420Y-57616457D01*
X143198420Y-57616457D02*
X143160325Y-57692647D01*
X143160325Y-57692647D02*
X143160325Y-57768838D01*
X143160325Y-57768838D02*
X143541278Y-57845028D01*
X142474611Y-57578361D02*
X142474611Y-58111695D01*
X142817468Y-57578361D02*
X142817468Y-57997409D01*
X142817468Y-57997409D02*
X142779373Y-58073600D01*
X142779373Y-58073600D02*
X142703183Y-58111695D01*
X142703183Y-58111695D02*
X142588897Y-58111695D01*
X142588897Y-58111695D02*
X142512706Y-58073600D01*
X142512706Y-58073600D02*
X142474611Y-58035504D01*
X142093658Y-58111695D02*
X142093658Y-57311695D01*
X142093658Y-57616457D02*
X142017468Y-57578361D01*
X142017468Y-57578361D02*
X141865087Y-57578361D01*
X141865087Y-57578361D02*
X141788896Y-57616457D01*
X141788896Y-57616457D02*
X141750801Y-57654552D01*
X141750801Y-57654552D02*
X141712706Y-57730742D01*
X141712706Y-57730742D02*
X141712706Y-57959314D01*
X141712706Y-57959314D02*
X141750801Y-58035504D01*
X141750801Y-58035504D02*
X141788896Y-58073600D01*
X141788896Y-58073600D02*
X141865087Y-58111695D01*
X141865087Y-58111695D02*
X142017468Y-58111695D01*
X142017468Y-58111695D02*
X142093658Y-58073600D01*
X141065086Y-58073600D02*
X141141277Y-58111695D01*
X141141277Y-58111695D02*
X141293658Y-58111695D01*
X141293658Y-58111695D02*
X141369848Y-58073600D01*
X141369848Y-58073600D02*
X141407944Y-57997409D01*
X141407944Y-57997409D02*
X141407944Y-57692647D01*
X141407944Y-57692647D02*
X141369848Y-57616457D01*
X141369848Y-57616457D02*
X141293658Y-57578361D01*
X141293658Y-57578361D02*
X141141277Y-57578361D01*
X141141277Y-57578361D02*
X141065086Y-57616457D01*
X141065086Y-57616457D02*
X141026991Y-57692647D01*
X141026991Y-57692647D02*
X141026991Y-57768838D01*
X141026991Y-57768838D02*
X141407944Y-57845028D01*
X140684134Y-58111695D02*
X140684134Y-57578361D01*
X140684134Y-57730742D02*
X140646039Y-57654552D01*
X140646039Y-57654552D02*
X140607944Y-57616457D01*
X140607944Y-57616457D02*
X140531753Y-57578361D01*
X140531753Y-57578361D02*
X140455563Y-57578361D01*
M02*
